<svg width="22" height="22" viewBox="0 0 22 22" fill="none" xmlns="http://www.w3.org/2000/svg">
<g clip-path="url(#clip0_160_2559)">
<path d="M21.484 7.5625H18.9115L18.1965 5.775C17.4617 3.93723 15.7082 2.75 13.7286 2.75H8.27157C6.29243 2.75 4.53845 3.93723 3.80325 5.775L3.08825 7.5625H0.516143C0.180557 7.5625 -0.0656543 7.87789 0.0159863 8.20316L0.273799 9.23441C0.330947 9.46387 0.537197 9.625 0.773955 9.625H1.63634C1.05927 10.129 0.687588 10.8616 0.687588 11.6875V13.75C0.687588 14.4427 0.952275 15.0679 1.37509 15.5517V17.875C1.37509 18.6343 1.99083 19.25 2.75009 19.25H4.12509C4.88435 19.25 5.50009 18.6343 5.50009 17.875V16.5H16.5001V17.875C16.5001 18.6343 17.1158 19.25 17.8751 19.25H19.2501C20.0093 19.25 20.6251 18.6343 20.6251 17.875V15.5517C21.0479 15.0683 21.3126 14.4431 21.3126 13.75V11.6875C21.3126 10.8616 20.9409 10.129 20.3643 9.625H21.2267C21.4634 9.625 21.6697 9.46387 21.7268 9.23441L21.9846 8.20316C22.0658 7.87789 21.8196 7.5625 21.484 7.5625ZM6.35646 6.79637C6.6697 6.01348 7.4281 5.5 8.27157 5.5H13.7286C14.5721 5.5 15.3305 6.01348 15.6437 6.79637L16.5001 8.9375H5.50009L6.35646 6.79637ZM4.12509 13.7414C3.30009 13.7414 2.75009 13.1931 2.75009 12.3707C2.75009 11.5483 3.30009 11 4.12509 11C4.95009 11 6.18759 12.2336 6.18759 13.0561C6.18759 13.8785 4.95009 13.7414 4.12509 13.7414ZM17.8751 13.7414C17.0501 13.7414 15.8126 13.8785 15.8126 13.0561C15.8126 12.2336 17.0501 11 17.8751 11C18.7001 11 19.2501 11.5483 19.2501 12.3707C19.2501 13.1931 18.7001 13.7414 17.8751 13.7414Z" fill="#B9BABE"/>
</g>
<defs>
<clipPath id="clip0_160_2559">
<rect width="22" height="22" fill="white"/>
</clipPath>
</defs>
</svg>
