<svg width="21" height="21" viewBox="0 0 21 21" fill="none" xmlns="http://www.w3.org/2000/svg">
<g clip-path="url(#clip0_133_2001)">
<path d="M0 16.9167C0 17.8829 0.783854 18.6667 1.75 18.6667H19.25C20.2161 18.6667 21 17.8829 21 16.9167V10.5H0V16.9167ZM7 14.4375C7 14.1969 7.19687 14 7.4375 14H12.3958C12.6365 14 12.8333 14.1969 12.8333 14.4375V15.8959C12.8333 16.1365 12.6365 16.3334 12.3958 16.3334H7.4375C7.19687 16.3334 7 16.1365 7 15.8959V14.4375ZM2.33333 14.4375C2.33333 14.1969 2.53021 14 2.77083 14H5.39583C5.63646 14 5.83333 14.1969 5.83333 14.4375V15.8959C5.83333 16.1365 5.63646 16.3334 5.39583 16.3334H2.77083C2.53021 16.3334 2.33333 16.1365 2.33333 15.8959V14.4375ZM21 4.08337V5.83337H0V4.08337C0 3.11723 0.783854 2.33337 1.75 2.33337H19.25C20.2161 2.33337 21 3.11723 21 4.08337Z" fill="#B9BABE"/>
</g>
<defs>
<clipPath id="clip0_133_2001">
<rect width="21" height="21" fill="white"/>
</clipPath>
</defs>
</svg>
