<svg width="22" height="22" viewBox="0 0 22 22" fill="none" xmlns="http://www.w3.org/2000/svg">
<g clip-path="url(#clip0_213_3418)">
<path d="M17.6311 8.80002C17.1189 8.79659 16.6308 8.87909 16.1736 9.03721L15.0426 7.15002H17.8751C18.3323 7.15002 18.7001 6.78221 18.7001 6.32502V5.22502C18.7001 4.76784 18.3323 4.40002 17.8751 4.40002H16.3179C16.0842 4.40002 15.8608 4.49971 15.7061 4.67159L14.417 6.10502L13.6333 4.79877C13.482 4.55127 13.2139 4.40002 12.9251 4.40002H10.1751C9.87264 4.40002 9.62514 4.64752 9.62514 4.95002V5.50002C9.62514 5.80252 9.87264 6.05002 10.1751 6.05002H12.4576L13.1176 7.15002H7.8342C7.22576 6.35596 6.29076 5.77502 4.40014 5.77502H2.49232C2.02826 5.77502 1.63982 6.15315 1.65014 6.61721C1.65701 7.06409 2.02482 7.42502 2.47514 7.42502H4.40014C5.24232 7.42502 5.73045 7.79971 6.04326 8.27752L5.65482 8.98221C5.20795 8.84815 4.73014 8.78627 4.23514 8.80346C1.9217 8.88596 0.0551365 10.78 0.000136529 13.0969C-0.0548635 15.5753 1.93545 17.6 4.40014 17.6C6.44889 17.6 8.17107 16.1975 8.66264 14.3H11.557C12.0279 14.3 12.4026 13.9081 12.382 13.4372C12.3098 11.8181 12.9836 10.2163 14.3139 9.14034L14.7436 9.85534C13.7948 10.67 13.1933 11.88 13.2036 13.231C13.2208 15.6235 15.1698 17.5794 17.5623 17.6C20.0236 17.6241 22.0242 15.6235 22.0036 13.1622C21.9795 10.7697 20.0236 8.81721 17.6311 8.80002ZM4.40014 15.95C2.8842 15.95 1.65014 14.716 1.65014 13.2C1.65014 11.6841 2.8842 10.45 4.40014 10.45C4.54451 10.45 4.68889 10.4603 4.82982 10.4844L3.40326 13.0763C3.10076 13.6263 3.49951 14.3 4.12514 14.3H6.91982C6.49357 15.2694 5.5242 15.95 4.40014 15.95ZM20.3467 13.3513C20.2711 14.7469 19.1436 15.8744 17.7514 15.9466C16.1667 16.0325 14.8501 14.7675 14.8501 13.2C14.8501 12.4644 15.1389 11.7975 15.6098 11.306L17.3079 14.1385C17.4626 14.3997 17.8029 14.4822 18.0642 14.3275L18.5351 14.0456C18.7964 13.891 18.8789 13.5506 18.7242 13.2894L17.0536 10.5085C17.2323 10.4706 17.4145 10.4535 17.6001 10.4535C19.1676 10.45 20.4292 11.7666 20.3467 13.3513Z" fill="#B9BABE"/>
</g>
<defs>
<clipPath id="clip0_213_3418">
<rect width="22" height="22" fill="white"/>
</clipPath>
</defs>
</svg>
