<svg width="22" height="22" viewBox="0 0 22 22" fill="none" xmlns="http://www.w3.org/2000/svg">
<path d="M21.45 14.3H20.9V10.584C20.9 10.1475 20.7247 9.72808 20.4153 9.4187L16.9813 5.98464C16.6719 5.67526 16.2525 5.49995 15.8159 5.49995H14.3V3.84995C14.3 2.93901 13.5609 2.19995 12.65 2.19995H1.65C0.739062 2.19995 0 2.93901 0 3.84995V14.85C0 15.7609 0.739062 16.5 1.65 16.5H2.2C2.2 18.3218 3.67813 19.8 5.5 19.8C7.32188 19.8 8.8 18.3218 8.8 16.5H13.2C13.2 18.3218 14.6781 19.8 16.5 19.8C18.3219 19.8 19.8 18.3218 19.8 16.5H21.45C21.7525 16.5 22 16.2525 22 15.95V14.85C22 14.5475 21.7525 14.3 21.45 14.3ZM5.5 18.15C4.58906 18.15 3.85 17.4109 3.85 16.5C3.85 15.589 4.58906 14.85 5.5 14.85C6.41094 14.85 7.15 15.589 7.15 16.5C7.15 17.4109 6.41094 18.15 5.5 18.15ZM16.5 18.15C15.5891 18.15 14.85 17.4109 14.85 16.5C14.85 15.589 15.5891 14.85 16.5 14.85C17.4109 14.85 18.15 15.589 18.15 16.5C18.15 17.4109 17.4109 18.15 16.5 18.15ZM19.25 11H14.3V7.14995H15.8159L19.25 10.584V11Z" fill="#B9BABE"/>
</svg>
