<svg width="91" height="34" viewBox="0 0 91 34" fill="none" xmlns="http://www.w3.org/2000/svg">
<path d="M19.8449 15.8898C21.2707 16.4014 22.3918 17.185 23.2082 18.2408C24.0245 19.2857 24.4327 20.5755 24.4327 22.1102C24.4327 24.2762 23.551 25.9687 21.7878 27.1878C20.0354 28.3959 17.4721 29 14.098 29H0.514286V3.85714H13.3796C15.5782 3.85714 17.4068 4.13469 18.8653 4.6898C20.3238 5.2449 21.4122 6.01769 22.1306 7.00816C22.849 7.99864 23.2082 9.1415 23.2082 10.4367C23.2082 12.8422 22.0871 14.6599 19.8449 15.8898ZM12.4327 9H7.55102V13.849H12.4327C14.8054 13.849 16.0027 13.0327 16.0245 11.4C16.0245 9.82177 14.8272 9.02177 12.4327 9ZM13.5102 23.8571C14.7401 23.8571 15.6707 23.6503 16.302 23.2367C16.9333 22.8122 17.249 22.1701 17.249 21.3102C17.249 20.4503 16.9333 19.8136 16.302 19.4C15.6707 18.9755 14.7401 18.7633 13.5102 18.7633H7.55102V23.8571H13.5102ZM36.0988 9.21224C38.2104 9.21224 40.0063 9.53333 41.4866 10.1755C42.9668 10.8068 44.0988 11.7864 44.8825 13.1143C45.6662 14.4422 46.058 16.1347 46.058 18.1918V29H39.6907V26.4857C38.7002 28.3796 36.7845 29.3265 33.9437 29.3265C32.3873 29.3265 31.0702 29.0599 29.9927 28.5265C28.9151 27.9932 28.0934 27.2748 27.5274 26.3714C26.9723 25.468 26.6947 24.4503 26.6947 23.3184C26.6947 22.1211 26.9941 21.0925 27.5927 20.2327C28.2022 19.3619 29.1437 18.6925 30.4172 18.2245C31.6907 17.7456 33.3342 17.5061 35.3478 17.5061H39.2335C39.1791 16.5156 38.8145 15.7537 38.1396 15.2204C37.4648 14.6871 36.4526 14.4204 35.1029 14.4204C34.1668 14.4204 33.2199 14.5728 32.2621 14.8776C31.3151 15.1714 30.4988 15.5796 29.8131 16.102L27.5274 11.4653C28.6594 10.7361 29.9873 10.181 31.5111 9.8C33.0458 9.40816 34.575 9.21224 36.0988 9.21224ZM35.8539 25.0163C36.6049 25.0163 37.2852 24.8313 37.8947 24.4612C38.5043 24.0912 38.9505 23.5197 39.2335 22.7469V21.0653H36.2784C35.19 21.0653 34.4226 21.2449 33.9764 21.6041C33.5301 21.9633 33.307 22.4422 33.307 23.0408C33.307 23.6177 33.5301 24.0912 33.9764 24.4612C34.4226 24.8313 35.0485 25.0163 35.8539 25.0163ZM70.53 29H62.7423L59.2647 23.9061L55.5259 29H48.13L55.5259 19.2694L48.3423 9.53878H56.032L59.4769 14.4531L63.0688 9.53878H70.2851L63.1014 19.0082L70.53 29ZM76.0219 7.38367C74.7702 7.38367 73.7634 7.03538 73.0015 6.33878C72.2396 5.63129 71.8586 4.76599 71.8586 3.74286C71.8586 2.71973 72.2396 1.85986 73.0015 1.16326C73.7634 0.466666 74.7702 0.118367 76.0219 0.118367C77.2845 0.118367 78.2913 0.45034 79.0423 1.11429C79.8042 1.77823 80.1851 2.62177 80.1851 3.6449C80.1851 4.72245 79.8042 5.61497 79.0423 6.32245C78.2913 7.02993 77.2845 7.38367 76.0219 7.38367ZM72.6096 29V9.53878H79.4341V29H72.6096ZM89.9004 24.3306H83.876L82.929 3.46531H90.8474L89.9004 24.3306ZM90.88 30.0449L87.0596 33.849L83.2555 30.0449L87.0596 26.2245L90.88 30.0449Z" fill="#F7A74B"/>
</svg>
