<svg width="32" height="32" viewBox="0 0 32 32" fill="none" xmlns="http://www.w3.org/2000/svg">
<path d="M15.9814 14.9375L24.4814 6.43745C25.0689 5.84995 26.0189 5.84995 26.6001 6.43745L28.0126 7.84995C28.6001 8.43745 28.6001 9.38745 28.0126 9.9687L21.9939 16L28.0189 22.025C28.6063 22.6124 28.6063 23.5625 28.0189 24.1437L26.6064 25.5625C26.0189 26.15 25.0688 26.15 24.4876 25.5625L15.9876 17.0625C15.3939 16.475 15.3939 15.525 15.9814 14.9375ZM3.98135 17.0625L12.4814 25.5625C13.0689 26.15 14.0189 26.15 14.6001 25.5625L16.0126 24.15C16.6001 23.5625 16.6001 22.6124 16.0126 22.0312L9.99385 16L16.0189 9.97495C16.6064 9.38745 16.6064 8.43745 16.0189 7.8562L14.6064 6.43745C14.0189 5.84995 13.0689 5.84995 12.4876 6.43745L3.9876 14.9375C3.39385 15.525 3.39385 16.475 3.98135 17.0625Z" fill="#6D6D6D"/>
</svg>
