<svg width="32" height="32" viewBox="0 0 32 32" fill="none" xmlns="http://www.w3.org/2000/svg">
<path d="M16.0187 17.0624L7.51875 25.5624C6.93125 26.1499 5.98125 26.1499 5.4 25.5624L3.9875 24.1499C3.4 23.5624 3.4 22.6124 3.9875 22.0312L10.0125 16.0062L3.9875 9.9812C3.4 9.3937 3.4 8.4437 3.9875 7.86245L5.39375 6.43745C5.98125 5.84995 6.93125 5.84995 7.5125 6.43745L16.0125 14.9374C16.6062 15.5249 16.6062 16.4749 16.0187 17.0624ZM28.0187 14.9374L19.5187 6.43745C18.9312 5.84995 17.9812 5.84995 17.4 6.43745L15.9875 7.84995C15.4 8.43745 15.4 9.38745 15.9875 9.9687L22.0125 15.9937L15.9875 22.0187C15.4 22.6062 15.4 23.5562 15.9875 24.1374L17.4 25.5499C17.9875 26.1374 18.9375 26.1374 19.5187 25.5499L28.0187 17.0499C28.6062 16.4749 28.6062 15.5249 28.0187 14.9374Z" fill="#6D6D6D"/>
</svg>
