<svg width="312" height="164" viewBox="0 0 312 164" fill="none" xmlns="http://www.w3.org/2000/svg">
<rect width="312" height="155" rx="20" fill="#0ACC72"/>
<g filter="url(#filter0_d_312_508)">
<rect x="27" y="93" width="120.447" height="44.6533" rx="13.5135" fill="white"/>
</g>
<path d="M63.4351 116.427H64.4473V115.8C64.4473 115.595 64.3733 115.426 64.2253 115.291C64.0773 115.151 63.8944 115.082 63.6767 115.082C63.4634 115.082 63.2849 115.151 63.1412 115.291C62.9976 115.43 62.9257 115.6 62.9257 115.8C62.9257 115.909 62.9366 116.011 62.9584 116.107C62.9845 116.203 63.0324 116.281 63.102 116.342C63.1761 116.399 63.2871 116.427 63.4351 116.427ZM67.0139 116.42H67.36V119.405H66.9682C66.929 119.731 66.8571 120.027 66.7527 120.293C66.5785 120.733 66.3608 121.103 66.0996 121.403C65.8427 121.704 65.5815 121.956 65.3159 122.161C65.1592 122.27 64.9437 122.383 64.6694 122.5C64.3995 122.622 64.012 122.722 63.5069 122.801C63.0672 122.87 62.4969 122.905 61.7959 122.905H61.0841V119.94H61.8743C62.4098 119.94 62.8539 119.925 63.2065 119.895C63.5592 119.864 63.8117 119.808 63.9641 119.725C64.1165 119.642 64.2014 119.538 64.2188 119.411H63.6571C63.0781 119.394 62.5513 119.261 62.0767 119.013C61.6065 118.769 61.2299 118.419 60.9469 117.962C60.6639 117.5 60.5224 116.943 60.5224 116.29C60.5224 115.563 60.6248 114.962 60.8294 114.487C61.0384 114.008 61.3039 113.63 61.6261 113.351C61.9483 113.068 62.2901 112.87 62.6514 112.757C63.0128 112.639 63.348 112.58 63.6571 112.58C64.5932 112.58 65.3965 112.933 66.0669 113.638C66.6982 114.352 67.0139 115.236 67.0139 116.29V116.42ZM78.4488 113.58C78.4488 113.58 78.4663 113.671 78.5011 113.854C78.5403 114.032 78.5838 114.248 78.6317 114.5C78.6796 114.753 78.7231 114.999 78.7623 115.238C78.8015 115.478 78.8254 115.663 78.8341 115.793C78.8429 115.889 78.8472 115.985 78.8472 116.081C78.8472 116.433 78.808 116.764 78.7297 117.073C78.6513 117.383 78.5533 117.655 78.4358 117.89C78.3182 118.121 78.1985 118.301 78.0766 118.432C77.4845 119.05 76.7204 119.374 75.7843 119.405C75.3229 119.405 74.9245 119.348 74.5892 119.235C74.2584 119.126 73.9819 118.993 73.7599 118.837C73.4943 119.015 73.2222 119.155 72.9435 119.255C72.6649 119.355 72.3601 119.405 72.0292 119.405C71.5678 119.405 71.189 119.348 70.8929 119.235C70.6012 119.126 70.3465 118.993 70.1288 118.837C69.9678 119.011 69.7958 119.137 69.6129 119.216C69.4344 119.298 69.158 119.35 68.7835 119.372C68.4091 119.394 67.8279 119.405 67.0399 119.405V116.42H68.0521C68.3351 116.42 68.5332 116.373 68.6464 116.277C68.7639 116.177 68.8227 116.037 68.8227 115.859V114.344H71.5003V115.891C71.5003 116.053 71.5395 116.185 71.6178 116.29C71.7005 116.394 71.8116 116.449 71.9509 116.453C72.2905 116.453 72.4581 116.266 72.4537 115.891V114.344H75.1248V115.891C75.1248 116.053 75.1726 116.185 75.2684 116.29C75.3642 116.394 75.4818 116.447 75.6211 116.447C75.7996 116.447 75.9346 116.399 76.026 116.303C76.1218 116.203 76.1697 116.107 76.1697 116.016V115.983C76.1305 115.752 76.0848 115.493 76.0325 115.206C75.9803 114.918 75.9324 114.666 75.8888 114.448C75.8497 114.23 75.8301 114.122 75.8301 114.122L78.4488 113.58ZM75.1248 109.648L73.8121 110.954L72.506 109.648L73.8121 108.336L75.1248 109.648ZM73.7141 111.673L72.2774 113.103L70.8472 111.673L72.2774 110.236L73.7141 111.673ZM76.777 111.673L75.3403 113.103L73.9101 111.673L75.3403 110.236L76.777 111.673ZM82.8614 116.701C82.9398 116.701 83.0312 116.679 83.1357 116.636C83.2446 116.592 83.3403 116.523 83.4231 116.427C83.5058 116.327 83.5471 116.198 83.5471 116.042C83.5471 115.963 83.5101 115.87 83.4361 115.761C83.3621 115.648 83.2794 115.539 83.188 115.434C83.0965 115.325 83.0138 115.236 82.9398 115.167C82.8658 115.093 82.8288 115.056 82.8288 115.056C82.8288 115.056 82.7939 115.09 82.7243 115.16C82.659 115.225 82.5828 115.31 82.4957 115.415C82.413 115.519 82.3368 115.63 82.2671 115.748C82.2018 115.861 82.1692 115.965 82.1692 116.061C82.1692 116.218 82.2105 116.344 82.2933 116.44C82.3803 116.531 82.4783 116.599 82.5871 116.642C82.696 116.682 82.7874 116.701 82.8614 116.701ZM82.77 111.242C82.77 111.242 82.7831 111.257 82.8092 111.287C82.992 111.496 83.6625 112.236 84.8206 113.508C85.1167 113.808 85.3888 114.159 85.6369 114.559C85.8851 114.955 86.0375 115.471 86.0941 116.107C86.1028 116.211 86.1071 116.312 86.1071 116.407C86.1071 116.782 86.0614 117.113 85.97 117.4C85.8786 117.687 85.761 117.938 85.6173 118.151C85.4737 118.364 85.3213 118.543 85.1602 118.687C84.8598 118.956 84.5224 119.146 84.148 119.255C83.7779 119.368 83.3556 119.424 82.881 119.424C82.4065 119.424 81.9863 119.37 81.6206 119.261C81.2549 119.152 80.9197 118.956 80.6149 118.673C80.3667 118.438 80.1534 118.11 79.9749 117.687C79.7964 117.261 79.7071 116.795 79.7071 116.29V116.14C79.7463 115.53 79.8682 115.021 80.0729 114.611C80.2818 114.198 80.5039 113.869 80.739 113.625C80.8435 113.516 80.9371 113.41 81.0198 113.305C80.9676 113.249 80.924 113.201 80.8892 113.162C80.8108 113.075 80.7716 113.029 80.7716 113.024L82.77 111.242ZM94.6047 116.427H94.9509V119.405H94.3174C93.6948 119.401 93.0962 119.17 92.5215 118.713C92.3647 118.856 92.1906 118.98 91.999 119.085C91.4983 119.359 90.9541 119.496 90.3664 119.496C89.8744 119.496 89.3607 119.446 88.8251 119.346C88.294 119.25 87.8368 119.15 87.4537 119.046C87.0706 118.946 86.8355 118.88 86.7484 118.85L87.5451 115.996C87.7106 116.048 87.9566 116.116 88.2831 116.198C88.6096 116.281 88.9623 116.357 89.3411 116.427C89.7198 116.492 90.0616 116.525 90.3664 116.525C90.4796 116.525 90.571 116.51 90.6407 116.479C90.7103 116.449 90.756 116.414 90.7778 116.375C90.7865 116.357 90.7909 116.338 90.7909 116.316C90.7909 116.277 90.78 116.235 90.7582 116.192C90.7408 116.148 90.7255 116.116 90.7125 116.094C90.7081 116.09 90.706 116.087 90.706 116.087C89.87 114.855 89.2801 113.984 88.9362 113.475C88.5966 112.961 88.4289 112.704 88.4333 112.704L90.6733 111.242C90.6733 111.246 90.8409 111.501 91.1762 112.006C91.5114 112.506 92.0926 113.368 92.9198 114.592C92.9503 114.635 92.9786 114.681 93.0047 114.729C93.0265 114.768 93.0962 114.875 93.2137 115.049C93.3356 115.219 93.4793 115.41 93.6447 115.624C93.8145 115.837 93.9843 116.024 94.1541 116.185C94.3283 116.346 94.4785 116.427 94.6047 116.427ZM99.2286 114.344V116.107C99.2286 116.216 99.2525 116.296 99.3004 116.349C99.3483 116.396 99.4681 116.42 99.6596 116.42H99.9731V119.398H99.7119C99.0457 119.398 98.4406 119.231 97.8964 118.896C97.7178 119 97.5306 119.089 97.3347 119.163C96.8993 119.32 96.403 119.398 95.8457 119.398H94.618V116.42H96.0351C96.2485 116.42 96.3878 116.399 96.4531 116.355C96.5184 116.307 96.551 116.224 96.551 116.107V114.344H99.2286ZM98.9478 111.457L97.4196 112.979L95.898 111.457L97.4196 109.929L98.9478 111.457ZM103.92 113.456C103.92 113.456 103.957 113.656 104.031 114.056C104.105 114.453 104.19 114.914 104.286 115.441C104.351 115.78 104.384 116.094 104.384 116.381C104.384 116.529 104.375 116.671 104.358 116.806C104.323 117.071 104.258 117.348 104.162 117.635C104.07 117.918 103.949 118.153 103.796 118.34C103.491 118.737 103.089 119.03 102.588 119.222C102.218 119.34 101.78 119.398 101.275 119.398H99.6492V116.42H101.275C101.436 116.42 101.545 116.401 101.602 116.362C101.658 116.318 101.687 116.253 101.687 116.166C101.687 116.1 101.678 116.024 101.661 115.937C101.443 114.805 101.334 114.239 101.334 114.239L103.92 113.456ZM103.692 111.013L102.164 112.535L100.642 111.013L102.164 109.485L103.692 111.013ZM108.065 109.681V119.418H105.387V109.681H108.065ZM113.339 114.344V117.851C113.339 118.56 113.246 119.253 113.058 119.927C112.871 120.602 112.601 121.136 112.249 121.527C111.835 122.002 111.319 122.355 110.701 122.585C110.113 122.807 109.447 122.918 108.702 122.918H108.062V119.934H108.702C109.447 119.934 109.961 119.775 110.244 119.457C110.414 119.248 110.525 118.991 110.577 118.687C110.633 118.382 110.662 118.103 110.662 117.851V114.344H113.339Z" fill="#2B2B2B"/>
<path d="M38.9371 62.1984H35.3224L34.7543 49.6792H39.5053L38.9371 62.1984ZM39.5249 65.6269L37.2327 67.9094L34.9502 65.6269L37.2327 63.3347L39.5249 65.6269ZM45.4339 61.1404H46.9523V60.2C46.9523 59.8931 46.8413 59.6384 46.6192 59.4359C46.3972 59.2269 46.1229 59.1224 45.7964 59.1224C45.4764 59.1224 45.2086 59.2269 44.9931 59.4359C44.7776 59.6449 44.6698 59.8996 44.6698 60.2C44.6698 60.3633 44.6861 60.5167 44.7188 60.6604C44.758 60.8041 44.8298 60.9216 44.9343 61.0131C45.0453 61.098 45.2119 61.1404 45.4339 61.1404ZM50.8021 61.1306H51.3213V65.6073H50.7335C50.6747 66.0971 50.567 66.5412 50.4102 66.9396C50.149 67.5992 49.8225 68.1543 49.4306 68.6049C49.0453 69.0555 48.6535 69.4343 48.2551 69.7412C48.02 69.9045 47.6968 70.0743 47.2853 70.2506C46.8804 70.4335 46.2992 70.5837 45.5417 70.7012C44.8821 70.8057 44.0266 70.858 42.9751 70.858H41.9074V66.4106H43.0927C43.8959 66.4106 44.5621 66.3878 45.091 66.342C45.62 66.2963 45.9988 66.2114 46.2274 66.0873C46.4559 65.9633 46.5833 65.8065 46.6094 65.6171H45.767C44.8984 65.591 44.1082 65.3918 43.3964 65.0196C42.691 64.6539 42.1261 64.1282 41.7017 63.4424C41.2772 62.7502 41.0649 61.9143 41.0649 60.9347C41.0649 59.8441 41.2184 58.9429 41.5253 58.231C41.8388 57.5127 42.2372 56.9445 42.7204 56.5265C43.2037 56.102 43.7164 55.8049 44.2584 55.6351C44.8004 55.4588 45.3033 55.3706 45.767 55.3706C47.171 55.3706 48.3759 55.8996 49.3817 56.9576C50.3286 58.0286 50.8021 59.3543 50.8021 60.9347V61.1306ZM67.9545 56.8694C67.9545 56.8694 67.9806 57.0065 68.0329 57.2808C68.0917 57.5486 68.157 57.8718 68.2288 58.2506C68.3006 58.6294 68.3659 58.9984 68.4247 59.3576C68.4835 59.7167 68.5194 59.9943 68.5325 60.1902C68.5455 60.3339 68.5521 60.4776 68.5521 60.6212C68.5521 61.1502 68.4933 61.6465 68.3757 62.1102C68.2582 62.5739 68.1112 62.982 67.9349 63.3347C67.7586 63.6808 67.579 63.9518 67.3961 64.1478C66.508 65.0751 65.3619 65.5616 63.9578 65.6073C63.2655 65.6073 62.668 65.5224 62.1651 65.3527C61.6688 65.1894 61.2541 64.9902 60.921 64.7551C60.5227 65.0229 60.1145 65.2318 59.6965 65.382C59.2786 65.5322 58.8214 65.6073 58.3251 65.6073C57.6329 65.6073 57.0647 65.5224 56.6206 65.3527C56.1831 65.1894 55.801 64.9902 55.4745 64.7551C55.2329 65.0163 54.9749 65.2057 54.7006 65.3233C54.4329 65.4473 54.0182 65.5257 53.4565 65.5584C52.8949 65.591 52.0231 65.6073 50.841 65.6073V61.1306H52.3594C52.7839 61.1306 53.081 61.0588 53.2508 60.9151C53.4272 60.7649 53.5153 60.5559 53.5153 60.2882V58.0155H57.5317V60.3371C57.5317 60.5788 57.5904 60.778 57.708 60.9347C57.8321 61.0914 57.9986 61.1731 58.2076 61.1796C58.717 61.1796 58.9684 60.8988 58.9619 60.3371V58.0155H62.9684V60.3371C62.9684 60.5788 63.0402 60.778 63.1839 60.9347C63.3276 61.0914 63.5039 61.1698 63.7129 61.1698C63.9806 61.1698 64.1831 61.098 64.3202 60.9543C64.4639 60.8041 64.5357 60.6604 64.5357 60.5233V60.4743C64.477 60.1282 64.4084 59.7396 64.33 59.3086C64.2517 58.8776 64.1798 58.4988 64.1145 58.1722C64.0557 57.8457 64.0263 57.6824 64.0263 57.6824L67.9545 56.8694ZM62.9684 50.9722L60.9994 52.9314L59.0402 50.9722L60.9994 49.0033L62.9684 50.9722ZM60.8525 54.009L58.6974 56.1543L56.5521 54.009L58.6974 51.8539L60.8525 54.009ZM65.4468 54.009L63.2917 56.1543L61.1463 54.009L63.2917 51.8539L65.4468 54.009ZM87.0166 55.3706C88.4206 55.3706 89.6255 55.8996 90.6313 56.9576C91.5782 58.0286 92.0517 59.3543 92.0517 60.9347V61.1306H92.7962V65.6073H92.0223C92.0092 65.862 91.9864 66.0873 91.9537 66.2833C91.9276 66.4792 91.8688 66.7469 91.7774 67.0865C91.5357 67.9029 91.1341 68.5984 90.5725 69.1731C89.4819 70.3029 87.7545 70.8678 85.3904 70.8678H83.4704C82.1708 70.8678 81.0247 70.6327 80.0321 70.1624C79.046 69.6988 78.2655 69.0229 77.6908 68.1347C77.3774 67.6253 77.139 67.0245 76.9757 66.3322C76.819 65.64 76.7406 64.9445 76.7406 64.2457C76.7406 64.0563 76.7472 63.8702 76.7602 63.6873C76.8517 62.218 77.3088 60.5657 78.1317 58.7306L81.7855 60.3763C81.1651 61.7608 80.8223 62.9461 80.757 63.9322C80.7504 64.0237 80.7472 64.1118 80.7472 64.1967C80.7472 64.7453 80.8517 65.1796 81.0606 65.4996C81.237 65.7543 81.4688 65.9469 81.7562 66.0776C82.0435 66.2082 82.3439 66.2931 82.6574 66.3322C82.9708 66.3714 83.2419 66.391 83.4704 66.391H85.3904C86.148 66.391 86.7064 66.3551 87.0655 66.2833C87.4313 66.218 87.6729 66.1265 87.7904 66.009C87.9145 65.8914 87.9798 65.7576 87.9864 65.6073H87.2125C86.357 65.6073 85.5635 65.4212 84.8321 65.049C84.1072 64.6767 83.5259 64.1445 83.0884 63.4522C82.6508 62.7535 82.4321 61.9143 82.4321 60.9347C82.4321 59.8441 82.5823 58.9429 82.8827 58.231C83.1831 57.5127 83.5651 56.9445 84.0288 56.5265C84.499 56.102 84.9986 55.8049 85.5276 55.6351C86.0566 55.4588 86.5529 55.3706 87.0166 55.3706ZM86.6835 61.1306H88.1921V60.2C88.1921 59.8931 88.0811 59.6384 87.859 59.4359C87.6435 59.2269 87.3725 59.1224 87.046 59.1224C86.7194 59.1224 86.4484 59.2269 86.2329 59.4359C86.0239 59.6449 85.9194 59.8996 85.9194 60.2C85.9194 60.3633 85.9357 60.5167 85.9684 60.6604C86.0076 60.8041 86.0794 60.9184 86.1839 61.0033C86.2949 61.0882 86.4615 61.1306 86.6835 61.1306ZM86.7815 52.1673L84.6264 54.3127L82.4811 52.1673L84.6264 50.0122L86.7815 52.1673ZM91.3757 52.1673L89.2206 54.3127L87.0753 52.1673L89.2206 50.0122L91.3757 52.1673ZM106.653 61.111L106.878 61.1208C107.029 61.1208 107.205 61.1241 107.407 61.1306C107.61 61.1306 107.786 61.1306 107.936 61.1306V65.6171C107.198 65.6171 106.588 65.5453 106.104 65.4016C105.628 65.2645 105.249 65.1045 104.968 64.9216C104.694 64.7388 104.501 64.5755 104.39 64.4318L104.224 64.2163C102.813 64.7453 101.079 65.111 99.022 65.3135C96.9648 65.5159 94.7216 65.6171 92.2922 65.6171V61.1306C93.5199 61.1306 94.7869 61.1208 96.093 61.1012C97.4057 61.0751 98.6008 61.0163 99.6783 60.9249C100.762 60.8335 101.602 60.6931 102.196 60.5037L101.451 60.2686C100.949 60.1118 100.374 59.9355 99.7273 59.7396C99.0808 59.5371 98.4995 59.3608 97.9836 59.2106C97.9052 59.191 97.8301 59.1812 97.7583 59.1812C97.582 59.1812 97.4416 59.2661 97.3371 59.4359C97.2326 59.5992 97.1248 59.8343 97.0138 60.1412L93.2718 59.1812C93.6701 57.7053 94.431 56.6408 95.5542 55.9878C96.1681 55.6482 96.7983 55.4784 97.4448 55.4784C97.8105 55.4784 98.1665 55.5306 98.5126 55.6351C100.034 56.0922 101.474 56.5461 102.833 56.9967C104.197 57.4473 105.193 57.7804 105.82 57.9959C106.082 58.0873 106.229 58.1363 106.261 58.1429L106.682 61.111H106.653ZM113.285 60.5135C113.285 60.6114 113.308 60.7094 113.353 60.8073C113.399 60.8988 113.484 60.9771 113.608 61.0424C113.732 61.1012 113.918 61.1306 114.166 61.1306V65.6171C113.5 65.6171 112.883 65.5094 112.315 65.2939C111.943 65.1567 111.597 64.9804 111.277 64.7649C110.421 65.3331 109.409 65.6171 108.24 65.6171H107.466V61.1306H108.24C108.593 61.1306 108.851 61.0816 109.014 60.9837C109.184 60.8792 109.268 60.6702 109.268 60.3567V51.0212H113.285V60.5135ZM121.406 62.169C121.445 62.169 121.475 62.1624 121.494 62.1494C121.599 62.0971 121.693 61.9633 121.778 61.7478C121.863 61.5257 121.906 61.2841 121.906 61.0229C121.906 60.9314 121.899 60.84 121.886 60.7486C121.853 60.5396 121.778 60.3306 121.661 60.1216C121.543 59.9061 121.39 59.7233 121.2 59.5731C121.017 59.4229 120.808 59.3478 120.573 59.3478C120.338 59.3478 120.136 59.4653 119.966 59.7004C119.803 59.9355 119.669 60.1967 119.564 60.4841C119.46 60.7649 119.388 60.9967 119.349 61.1796C119.512 61.3167 119.728 61.4637 119.995 61.6204C120.27 61.7706 120.541 61.9012 120.808 62.0122C121.083 62.1167 121.282 62.169 121.406 62.169ZM120.593 55.4588C121.279 55.4588 121.879 55.5796 122.395 55.8212C122.911 56.0629 123.352 56.3763 123.718 56.7616C124.084 57.1469 124.381 57.5682 124.609 58.0253C124.844 58.4759 125.021 58.92 125.138 59.3576C125.256 59.7951 125.321 60.1837 125.334 60.5233C125.341 60.68 125.344 60.8335 125.344 60.9837C125.344 61.7739 125.252 62.4465 125.07 63.0016C124.893 63.5567 124.661 64.0171 124.374 64.3829C124.093 64.7486 123.79 65.0359 123.463 65.2449C123.137 65.4604 122.817 65.6139 122.503 65.7053C122.196 65.7967 121.928 65.8457 121.7 65.8522C121.615 65.8588 121.524 65.862 121.426 65.862C120.786 65.862 120.181 65.7902 119.613 65.6465C119.052 65.5094 118.552 65.3494 118.115 65.1665C117.684 64.9837 117.341 64.8204 117.086 64.6767C116.812 64.9445 116.41 65.1665 115.881 65.3429C115.352 65.5192 114.846 65.6073 114.363 65.6073H113.677V61.1306H114.069C114.715 61.1306 115.133 61.0196 115.323 60.7976C115.512 60.5755 115.692 60.1478 115.861 59.5143C115.914 59.3576 115.969 59.1812 116.028 58.9853C116.074 58.822 116.162 58.6 116.292 58.3192C116.423 58.0384 116.603 57.7347 116.831 57.4082C117.066 57.0816 117.354 56.7714 117.693 56.4776C118.039 56.1837 118.451 55.942 118.928 55.7527C119.411 55.5567 119.966 55.4588 120.593 55.4588ZM135.073 58.1429L138.668 59.8767C137.95 61.3657 137.591 62.6392 137.591 63.6971C137.591 64.5461 137.816 65.209 138.267 65.6857C138.717 66.169 139.39 66.4106 140.285 66.4106H142.89C143.387 66.4106 143.805 66.3943 144.144 66.3616C144.484 66.329 144.765 66.2865 144.987 66.2343C145.209 66.1886 145.379 66.1396 145.496 66.0873C145.62 66.0416 145.705 66.0024 145.751 65.9698C145.797 65.9371 145.819 65.9208 145.819 65.9208C145.434 65.738 144.997 65.5976 144.507 65.4996C144.023 65.4016 143.498 65.3167 142.93 65.2449C142.734 65.2188 142.534 65.1894 142.332 65.1567V61.1404H151.285V65.6073H149.493C149.525 65.7967 149.542 65.9861 149.542 66.1755C149.542 67.0441 149.382 67.7624 149.062 68.3306C148.748 68.8988 148.337 69.3527 147.828 69.6922C147.318 70.0318 146.766 70.2833 146.172 70.4465C145.578 70.6163 144.99 70.7241 144.409 70.7698C143.834 70.822 143.328 70.8482 142.89 70.8482H140.285C139.109 70.8482 138.097 70.6424 137.248 70.231C136.399 69.8196 135.7 69.271 135.152 68.5853C134.603 67.9061 134.198 67.142 133.937 66.2931C133.676 65.4441 133.545 64.5788 133.545 63.6971C133.545 62.9069 133.676 62.0122 133.937 61.0131C134.205 60.0139 134.583 59.0571 135.073 58.1429ZM167.68 58.0155V60.3371C167.68 60.6049 167.765 60.8041 167.935 60.9347C168.111 61.0653 168.409 61.1306 168.826 61.1306H169.767V65.6073C168.768 65.6073 168.026 65.591 167.543 65.5584C167.066 65.5257 166.704 65.4473 166.456 65.3233C166.208 65.2057 165.96 65.0163 165.711 64.7551C165.261 65.0947 164.657 65.3527 163.899 65.529C163.657 65.5747 163.4 65.6008 163.125 65.6073H163.086C161.721 65.5943 160.787 65.3102 160.284 64.7551C159.886 65.0229 159.488 65.2318 159.089 65.382C158.691 65.5322 158.244 65.6073 157.747 65.6073C157.055 65.6073 156.487 65.5224 156.043 65.3527C155.605 65.1894 155.223 64.9902 154.897 64.7551C154.838 64.8139 154.782 64.8694 154.73 64.9216C154.547 65.1306 154.358 65.2841 154.162 65.382C153.966 65.48 153.63 65.542 153.153 65.5682C152.676 65.5943 151.893 65.6073 150.802 65.6073V61.1306H151.791C152.216 61.1306 152.513 61.062 152.683 60.9249C152.853 60.7878 152.937 60.5853 152.937 60.3176V58.0155H156.954V60.3371C156.954 60.5788 157.009 60.778 157.12 60.9347C157.231 61.0914 157.391 61.1731 157.6 61.1796C158.103 61.1796 158.345 60.8988 158.325 60.3371V58.0155H162.332V60.3371C162.332 60.5788 162.4 60.778 162.537 60.9347C162.675 61.0914 162.848 61.1698 163.057 61.1698C163.266 61.1698 163.419 61.0914 163.517 60.9347C163.615 60.778 163.664 60.5788 163.664 60.3371V58.0155H167.68ZM178.557 59.2302C179.021 59.8506 179.39 60.298 179.664 60.5722C179.938 60.84 180.229 61 180.536 61.0522C180.843 61.1045 181.297 61.1306 181.898 61.1306V65.6171C181.16 65.6171 180.477 65.5682 179.85 65.4702C179.23 65.3722 178.639 65.1665 178.077 64.8531C177.685 64.6245 177.32 64.3502 176.98 64.0302C176.621 64.409 176.19 64.7322 175.687 65C174.871 65.4114 173.996 65.6171 173.062 65.6171H169.271V61.1306H172.768C173.049 61.1306 173.339 61.1143 173.64 61.0816C173.94 61.049 174.198 61.0098 174.414 60.9641C174.629 60.9118 174.753 60.8563 174.786 60.7976C174.786 60.7976 174.662 60.631 174.414 60.298C174.172 59.9584 173.888 59.5731 173.561 59.142L171.21 56.311L171.906 53.2645L180.379 49.16L182.123 52.7649L175.912 55.782C175.984 55.8669 176.161 56.0955 176.441 56.4678C176.729 56.8335 177.062 57.2678 177.441 57.7706C177.826 58.2669 178.198 58.7535 178.557 59.2302ZM187.935 56.6833C187.935 56.6833 187.991 56.9837 188.102 57.5845C188.213 58.1788 188.34 58.871 188.484 59.6612C188.582 60.1706 188.631 60.6408 188.631 61.0718C188.631 61.2939 188.618 61.5061 188.591 61.7086C188.539 62.1069 188.441 62.5216 188.298 62.9527C188.16 63.3771 187.978 63.7298 187.749 64.0106C187.292 64.6049 186.688 65.0457 185.937 65.3331C185.382 65.5094 184.725 65.5976 183.968 65.5976H181.529V61.1306H183.968C184.209 61.1306 184.373 61.1012 184.458 61.0424C184.542 60.9771 184.585 60.8792 184.585 60.7486C184.585 60.6506 184.572 60.5363 184.546 60.4057C184.219 58.7078 184.056 57.8588 184.056 57.8588L187.935 56.6833ZM187.014 68.6245L184.722 70.9069L182.44 68.6245L184.722 66.3322L187.014 68.6245ZM211.376 58.0155V64.4906C211.376 65.5616 211.235 66.4694 210.955 67.2139C210.674 67.9649 210.298 68.5788 209.828 69.0555C209.364 69.5322 208.842 69.9012 208.261 70.1624C207.686 70.4302 207.092 70.6131 206.478 70.711C205.864 70.8155 205.279 70.8678 204.724 70.8678H203.568C202.524 70.8678 201.619 70.7339 200.855 70.4661C200.097 70.1984 199.457 69.8359 198.935 69.3788C198.419 68.9282 198.008 68.4188 197.701 67.8506C197.394 67.2824 197.172 66.6849 197.035 66.058C196.904 65.4376 196.839 64.8335 196.839 64.2457C196.839 64.0563 196.845 63.8702 196.858 63.6873C196.956 62.218 197.413 60.5657 198.23 58.7306L201.893 60.3763C201.266 61.7608 200.924 62.9461 200.865 63.9322C200.865 63.9453 200.865 63.9616 200.865 63.9812C200.852 64.0857 200.845 64.2033 200.845 64.3339C200.845 64.5298 200.875 64.7486 200.933 64.9902C200.992 65.2253 201.11 65.4473 201.286 65.6563C201.469 65.8718 201.74 66.0482 202.099 66.1853C202.465 66.3224 202.955 66.391 203.568 66.391H204.724C205.364 66.391 205.861 66.3355 206.213 66.2245C206.572 66.1135 206.834 65.9698 206.997 65.7935C207.167 65.6171 207.271 65.4278 207.31 65.2253C207.35 65.0294 207.369 64.84 207.369 64.6571V58.0155H211.376ZM206.586 57.1339L204.293 59.4163L202.011 57.1339L204.293 54.8416L206.586 57.1339ZM218.381 61.1306V65.6171H217.51C216.935 65.6171 216.429 65.5518 215.991 65.4212C215.56 65.2906 215.191 65.1273 214.884 64.9314C214.577 64.7355 214.326 64.5396 214.13 64.3437C213.928 64.1478 213.728 63.8963 213.532 63.5894C213.343 63.2824 213.18 62.9135 213.043 62.4824C212.912 62.0449 212.847 61.5388 212.847 60.9641C212.847 60.4286 212.847 59.5437 212.847 58.3094C212.847 57.0751 212.847 55.8343 212.847 54.5869C212.853 53.3331 212.857 52.3567 212.857 51.658C212.857 51.2465 212.857 51.0343 212.857 51.0212H216.863V60.5037C216.863 60.7322 216.938 60.8955 217.088 60.9935C217.239 61.0849 217.372 61.1306 217.49 61.1306H218.381ZM219.301 56.458L219.712 53.0588L228.283 49.1502L229.949 52.8041L224.081 55.4882C224.238 55.6514 224.407 55.8245 224.59 56.0073C225.015 56.4253 225.492 56.9118 226.021 57.4669C226.118 57.5714 226.213 57.6694 226.305 57.7608C226.67 58.1396 226.984 58.4857 227.245 58.7992C227.506 59.1061 227.718 59.4294 227.882 59.769C228.097 60.2327 228.234 60.6571 228.293 61.0424C228.332 61.3298 228.352 61.6041 228.352 61.8653C228.352 61.9633 228.345 62.1233 228.332 62.3453C228.319 62.5673 228.231 62.8939 228.068 63.3249C227.944 63.6449 227.709 63.9845 227.363 64.3437C227.016 64.6963 226.51 64.9935 225.844 65.2351C225.119 65.4833 224.198 65.6073 223.082 65.6073H217.88V61.1306H223.082C223.278 61.1306 223.509 61.1273 223.777 61.1208C224.045 61.1078 224.244 61.0947 224.375 61.0816C223.767 60.3763 223.095 59.6906 222.357 59.0245C221.619 58.3518 220.959 57.7837 220.378 57.32C219.803 56.8498 219.454 56.569 219.33 56.4776L219.301 56.458ZM219.859 52.1086L219.986 50.7176L227.314 47.5241L227.823 48.6212L219.859 52.1086ZM235.09 61.1404H236.609V60.2C236.609 59.8931 236.498 59.6384 236.275 59.4359C236.053 59.2269 235.779 59.1224 235.453 59.1224C235.133 59.1224 234.865 59.2269 234.649 59.4359C234.434 59.6449 234.326 59.8996 234.326 60.2C234.326 60.3633 234.342 60.5167 234.375 60.6604C234.414 60.8041 234.486 60.9216 234.591 61.0131C234.702 61.098 234.868 61.1404 235.09 61.1404ZM232.749 66.4106C233.552 66.4106 234.218 66.3878 234.747 66.342C235.276 66.2963 235.655 66.2114 235.884 66.0873C236.112 65.9633 236.24 65.8065 236.266 65.6171H235.423C234.555 65.591 233.764 65.3918 233.053 65.0196C232.347 64.6539 231.782 64.1282 231.358 63.4424C230.933 62.7502 230.721 61.9143 230.721 60.9347C230.721 59.8441 230.875 58.9429 231.182 58.231C231.495 57.5127 231.893 56.9445 232.377 56.5265C232.86 56.102 233.373 55.8049 233.915 55.6351C234.457 55.4588 234.96 55.3706 235.423 55.3706C236.827 55.3706 238.032 55.8996 239.038 56.9576C239.985 58.0286 240.458 59.3543 240.458 60.9347V64.5984C240.452 65.5061 240.318 66.2865 240.057 66.9396C239.802 67.5992 239.479 68.1543 239.087 68.6049C238.702 69.0555 238.31 69.4343 237.911 69.7412C237.676 69.9045 237.353 70.0743 236.942 70.2506C236.537 70.4335 235.955 70.5837 235.198 70.7012C234.538 70.8057 233.683 70.858 232.631 70.858H231.564V66.4106H232.749ZM247.467 61.1306V65.6171H246.596C246.021 65.6171 245.515 65.5518 245.077 65.4212C244.646 65.2906 244.277 65.1273 243.97 64.9314C243.663 64.7355 243.412 64.5396 243.216 64.3437C243.014 64.1478 242.814 63.8963 242.618 63.5894C242.429 63.2824 242.266 62.9135 242.129 62.4824C241.998 62.0449 241.933 61.5388 241.933 60.9641C241.933 60.4286 241.933 59.5437 241.933 58.3094C241.933 57.0751 241.933 55.8343 241.933 54.5869C241.939 53.3331 241.943 52.3567 241.943 51.658C241.943 51.2465 241.943 51.0343 241.943 51.0212H245.949V60.5037C245.949 60.7322 246.024 60.8955 246.174 60.9935C246.325 61.0849 246.458 61.1306 246.576 61.1306H247.467ZM253.373 56.6833C253.373 56.6833 253.428 56.9837 253.539 57.5845C253.65 58.1788 253.777 58.871 253.921 59.6612C254.019 60.1706 254.068 60.6408 254.068 61.0718C254.068 61.2939 254.055 61.5061 254.029 61.7086C253.977 62.1069 253.879 62.5216 253.735 62.9527C253.598 63.3771 253.415 63.7298 253.186 64.0106C252.729 64.6049 252.125 65.0457 251.374 65.3331C250.819 65.5094 250.163 65.5976 249.405 65.5976H246.966V61.1306H249.405C249.647 61.1306 249.81 61.1012 249.895 61.0424C249.98 60.9771 250.022 60.8792 250.022 60.7486C250.022 60.6506 250.009 60.5363 249.983 60.4057C249.657 58.7078 249.493 57.8588 249.493 57.8588L253.373 56.6833ZM253.03 53.0196L250.737 55.302L248.455 53.0196L250.737 50.7273L253.03 53.0196ZM267.008 60.7388C267.145 60.7388 267.272 60.7224 267.39 60.6898C267.507 60.6506 267.602 60.6114 267.674 60.5722C267.896 60.4482 268.049 60.2947 268.134 60.1118C268.225 59.929 268.271 59.7298 268.271 59.5143C268.271 59.3314 268.248 59.1388 268.203 58.9363C268.163 58.7339 268.118 58.5347 268.065 58.3388C268.033 58.2212 268.003 58.1069 267.977 57.9959C267.448 58.218 267.063 58.3878 266.821 58.5053C266.586 58.6229 266.42 58.7339 266.322 58.8384C266.061 59.1127 265.93 59.3935 265.93 59.6808C265.93 59.942 266.025 60.1804 266.214 60.3959C266.332 60.52 266.459 60.6082 266.596 60.6604C266.733 60.7127 266.87 60.7388 267.008 60.7388ZM270.828 52.9216C271.161 54.3453 271.425 55.4914 271.621 56.36C271.667 56.569 271.71 56.7649 271.749 56.9478C271.873 57.529 271.99 58.0547 272.101 58.5249C272.212 58.9886 272.346 59.5306 272.503 60.151C272.549 60.3665 272.627 60.5461 272.738 60.6898C272.849 60.8335 273.048 60.9445 273.336 61.0229C273.63 61.0947 274.08 61.1306 274.688 61.1306H275.265V65.6073H274.688C273.956 65.6073 273.323 65.542 272.787 65.4114C272.258 65.2873 271.811 65.1339 271.445 64.951C271.079 64.7616 270.782 64.5722 270.554 64.3829C270.332 64.1935 270.165 64.0302 270.054 63.8931C269.538 64.1804 269.029 64.3731 268.526 64.471C268.023 64.5624 267.491 64.6082 266.929 64.6082C266.296 64.6082 265.669 64.4873 265.048 64.2457C264.434 63.9976 263.892 63.5894 263.422 63.0212C262.959 62.4531 262.622 61.6857 262.413 60.7192C262.335 60.3404 262.296 59.9518 262.296 59.5535C262.296 59.0637 262.371 58.5673 262.521 58.0645C262.671 57.5616 262.926 57.0784 263.285 56.6147C263.644 56.1445 264.131 55.72 264.745 55.3412C265.359 54.9559 266.123 54.6327 267.037 54.3714L266.91 53.8131L270.828 52.9216ZM280.607 56.6833C280.607 56.6833 280.662 56.9837 280.773 57.5845C280.884 58.1788 281.012 58.871 281.156 59.6612C281.253 60.1706 281.302 60.6408 281.302 61.0718C281.302 61.2939 281.289 61.5061 281.263 61.7086C281.211 62.1069 281.113 62.5216 280.969 62.9527C280.832 63.3771 280.649 63.7298 280.421 64.0106C279.964 64.6049 279.36 65.0457 278.609 65.3331C278.053 65.5094 277.397 65.5976 276.64 65.5976H274.2V61.1306H276.64C276.881 61.1306 277.044 61.1012 277.129 61.0424C277.214 60.9771 277.257 60.8792 277.257 60.7486C277.257 60.6506 277.244 60.5363 277.218 60.4057C276.891 58.7078 276.728 57.8588 276.728 57.8588L280.607 56.6833ZM279.686 68.6245L277.394 70.9069L275.111 68.6245L277.394 66.3322L279.686 68.6245Z" fill="white"/>
<path d="M271.178 127.932H269.143L255.31 110.992C254.548 110.059 253.58 109.305 252.48 108.787C251.38 108.269 250.175 108 248.955 108H221.753C218.425 108 215.432 109.984 214.196 113.012L208.104 128.214C204.599 129.103 202 132.194 202 135.905V149.857C202 150.959 202.911 151.851 204.035 151.851H210.139C210.139 158.456 215.604 163.81 222.346 163.81C229.089 163.81 234.554 158.456 234.554 151.851H250.832C250.832 158.456 256.297 163.81 263.039 163.81C269.782 163.81 275.247 158.456 275.247 151.851H281.351C282.475 151.851 283.386 150.959 283.386 149.857V139.891C283.386 133.286 277.92 127.932 271.178 127.932ZM222.346 157.83C218.98 157.83 216.243 155.148 216.243 151.851C216.243 148.553 218.98 145.871 222.346 145.871C225.713 145.871 228.45 148.553 228.45 151.851C228.45 155.148 225.713 157.83 222.346 157.83ZM231.502 127.932H216.869L221.753 115.973H231.502V127.932ZM237.606 127.932V115.973H248.955L258.721 127.932H237.606ZM263.039 157.83C259.673 157.83 256.935 155.148 256.935 151.851C256.935 148.553 259.673 145.871 263.039 145.871C266.405 145.871 269.143 148.553 269.143 151.851C269.143 155.148 266.405 157.83 263.039 157.83Z" fill="#F5F6F9"/>
<path d="M190.427 144.638C186.014 144.477 181.438 142.004 177.933 139.455C175.089 137.386 171.996 134.749 170.238 131.642C168.563 128.683 168.175 124.824 169.522 121.66C171.2 117.718 175.43 115.821 179.611 116.209C183.423 116.563 184.719 120.533 184.624 123.872C184.461 129.552 178.95 135.266 173.594 136.526C168.124 137.813 161.333 137.436 157.06 133.459C154.979 131.522 153.782 128.868 152.528 126.362" stroke="#F5F6F9" stroke-width="3" stroke-linecap="round" stroke-dasharray="6 6"/>
<defs>
<filter id="filter0_d_312_508" x="24.0531" y="90.6425" width="126.34" height="50.5471" filterUnits="userSpaceOnUse" color-interpolation-filters="sRGB">
<feFlood flood-opacity="0" result="BackgroundImageFix"/>
<feColorMatrix in="SourceAlpha" type="matrix" values="0 0 0 0 0 0 0 0 0 0 0 0 0 0 0 0 0 0 127 0" result="hardAlpha"/>
<feOffset dy="0.58938"/>
<feGaussianBlur stdDeviation="1.47345"/>
<feComposite in2="hardAlpha" operator="out"/>
<feColorMatrix type="matrix" values="0 0 0 0 0 0 0 0 0 0 0 0 0 0 0 0 0 0 0.3 0"/>
<feBlend mode="normal" in2="BackgroundImageFix" result="effect1_dropShadow_312_508"/>
<feBlend mode="normal" in="SourceGraphic" in2="effect1_dropShadow_312_508" result="shape"/>
</filter>
</defs>
</svg>
