<svg width="39" height="12" viewBox="0 0 39 12" fill="none" xmlns="http://www.w3.org/2000/svg">
<path d="M3.255 8.345H7.875C8.105 8.345 8.275 8.355 8.385 8.375C8.505 8.385 8.64 8.43 8.79 8.51C9.06 8.65 9.195 9.04 9.195 9.68C9.195 10.38 9.01 10.79 8.64 10.91C8.47 10.97 8.21 11 7.86 11H1.92C1.22 11 0.81 10.81 0.69 10.43C0.63 10.27 0.6 10.015 0.6 9.665V1.325C0.6 0.814999 0.695 0.469999 0.885 0.289999C1.075 0.0999994 1.435 0.0049994 1.965 0.0049994H7.875C8.105 0.0049994 8.275 0.0149996 8.385 0.0349999C8.505 0.0449998 8.64 0.0899995 8.79 0.169999C9.06 0.31 9.195 0.7 9.195 1.34C9.195 2.04 9.01 2.45 8.64 2.57C8.47 2.63 8.21 2.66 7.86 2.66H3.255V4.175H6.225C6.455 4.175 6.625 4.185 6.735 4.205C6.855 4.215 6.99 4.26 7.14 4.34C7.41 4.48 7.545 4.87 7.545 5.51C7.545 6.21 7.355 6.62 6.975 6.74C6.805 6.8 6.545 6.83 6.195 6.83H3.255V8.345ZM15.5354 3.185C15.7254 3.245 15.8804 3.35 16.0004 3.5C16.1304 3.64 16.1954 3.87 16.1954 4.19C16.1954 4.51 16.1004 4.86 15.9104 5.24C15.7204 5.62 15.4454 5.81 15.0854 5.81C14.9054 5.81 14.7304 5.77 14.5604 5.69C14.4004 5.61 14.1854 5.57 13.9154 5.57C13.6454 5.57 13.3904 5.665 13.1504 5.855C12.9204 6.045 12.8054 6.275 12.8054 6.545V9.695C12.8054 9.925 12.7954 10.1 12.7754 10.22C12.7654 10.33 12.7204 10.46 12.6404 10.61C12.4904 10.87 12.1004 11 11.4704 11C10.9904 11 10.6454 10.915 10.4354 10.745C10.2754 10.605 10.1854 10.39 10.1654 10.1C10.1654 10 10.1654 9.855 10.1654 9.665V4.4C10.1654 4.17 10.1704 4 10.1804 3.89C10.2004 3.77 10.2454 3.64 10.3154 3.5C10.4554 3.23 10.8454 3.095 11.4854 3.095C12.0854 3.095 12.4604 3.21 12.6104 3.44C12.7204 3.6 12.7754 3.765 12.7754 3.935C12.8254 3.865 12.8954 3.78 12.9854 3.68C13.0854 3.58 13.2904 3.445 13.6004 3.275C13.9104 3.105 14.1804 3.02 14.4104 3.02C14.6504 3.02 14.8504 3.035 15.0104 3.065C15.1704 3.085 15.3454 3.125 15.5354 3.185ZM22.3909 3.185C22.5809 3.245 22.7359 3.35 22.8559 3.5C22.9859 3.64 23.0509 3.87 23.0509 4.19C23.0509 4.51 22.9559 4.86 22.7659 5.24C22.5759 5.62 22.3009 5.81 21.9409 5.81C21.7609 5.81 21.5859 5.77 21.4159 5.69C21.2559 5.61 21.0409 5.57 20.7709 5.57C20.5009 5.57 20.2459 5.665 20.0059 5.855C19.7759 6.045 19.6609 6.275 19.6609 6.545V9.695C19.6609 9.925 19.6509 10.1 19.6309 10.22C19.6209 10.33 19.5759 10.46 19.4959 10.61C19.3459 10.87 18.9559 11 18.3259 11C17.8459 11 17.5009 10.915 17.2909 10.745C17.1309 10.605 17.0409 10.39 17.0209 10.1C17.0209 10 17.0209 9.855 17.0209 9.665V4.4C17.0209 4.17 17.0259 4 17.0359 3.89C17.0559 3.77 17.1009 3.64 17.1709 3.5C17.3109 3.23 17.7009 3.095 18.3409 3.095C18.9409 3.095 19.3159 3.21 19.4659 3.44C19.5759 3.6 19.6309 3.765 19.6309 3.935C19.6809 3.865 19.7509 3.78 19.8409 3.68C19.9409 3.58 20.1459 3.445 20.4559 3.275C20.7659 3.105 21.0359 3.02 21.2659 3.02C21.5059 3.02 21.7059 3.035 21.8659 3.065C22.0259 3.085 22.2009 3.125 22.3909 3.185ZM23.1973 7.055C23.1973 5.855 23.6173 4.865 24.4573 4.085C25.2973 3.305 26.2573 2.915 27.3373 2.915C28.4173 2.915 29.3723 3.305 30.2023 4.085C31.0323 4.855 31.4473 5.84 31.4473 7.04C31.4473 7.87 31.2323 8.61 30.8023 9.26C30.3723 9.9 29.8473 10.375 29.2273 10.685C28.6173 10.985 27.9823 11.135 27.3223 11.135C26.6623 11.135 26.0223 10.975 25.4023 10.655C24.7823 10.325 24.2573 9.845 23.8273 9.215C23.4073 8.575 23.1973 7.855 23.1973 7.055ZM26.3323 8.135C26.6523 8.375 26.9773 8.495 27.3073 8.495C27.6373 8.495 27.9673 8.37 28.2973 8.12C28.6273 7.87 28.7923 7.5 28.7923 7.01C28.7923 6.52 28.6373 6.155 28.3273 5.915C28.0173 5.675 27.6823 5.555 27.3223 5.555C26.9623 5.555 26.6273 5.68 26.3173 5.93C26.0073 6.18 25.8523 6.55 25.8523 7.04C25.8523 7.52 26.0123 7.885 26.3323 8.135ZM37.7864 3.185C37.9764 3.245 38.1314 3.35 38.2514 3.5C38.3814 3.64 38.4464 3.87 38.4464 4.19C38.4464 4.51 38.3514 4.86 38.1614 5.24C37.9714 5.62 37.6964 5.81 37.3364 5.81C37.1564 5.81 36.9814 5.77 36.8114 5.69C36.6514 5.61 36.4364 5.57 36.1664 5.57C35.8964 5.57 35.6414 5.665 35.4014 5.855C35.1714 6.045 35.0564 6.275 35.0564 6.545V9.695C35.0564 9.925 35.0464 10.1 35.0264 10.22C35.0164 10.33 34.9714 10.46 34.8914 10.61C34.7414 10.87 34.3514 11 33.7214 11C33.2414 11 32.8964 10.915 32.6864 10.745C32.5264 10.605 32.4364 10.39 32.4164 10.1C32.4164 10 32.4164 9.855 32.4164 9.665V4.4C32.4164 4.17 32.4214 4 32.4314 3.89C32.4514 3.77 32.4964 3.64 32.5664 3.5C32.7064 3.23 33.0964 3.095 33.7364 3.095C34.3364 3.095 34.7114 3.21 34.8614 3.44C34.9714 3.6 35.0264 3.765 35.0264 3.935C35.0764 3.865 35.1464 3.78 35.2364 3.68C35.3364 3.58 35.5414 3.445 35.8514 3.275C36.1614 3.105 36.4314 3.02 36.6614 3.02C36.9014 3.02 37.1014 3.035 37.2614 3.065C37.4214 3.085 37.5964 3.125 37.7864 3.185Z" fill="#FF4659"/>
</svg>
