<svg width="109" height="41" viewBox="0 0 109 41" fill="none" xmlns="http://www.w3.org/2000/svg">
<path d="M23.2139 19.2678C24.9249 19.8816 26.2702 20.822 27.2498 22.089C28.2294 23.3429 28.7192 24.8906 28.7192 26.7322C28.7192 29.3314 27.6612 31.3624 25.5453 32.8253C23.4424 34.2751 20.3665 35 16.3176 35H0.0171429V4.82857H15.4555C18.0939 4.82857 20.2882 5.16163 22.0384 5.82775C23.7886 6.49388 25.0947 7.42122 25.9567 8.6098C26.8188 9.79837 27.2498 11.1698 27.2498 12.7241C27.2498 15.6106 25.9045 17.7918 23.2139 19.2678ZM14.3192 11H8.46122V16.8188H14.3192C17.1665 16.8188 18.6033 15.8392 18.6294 13.88C18.6294 11.9861 17.1927 11.0261 14.3192 11ZM15.6122 28.8286C17.0882 28.8286 18.2049 28.5804 18.9624 28.0841C19.72 27.5747 20.0988 26.8041 20.0988 25.7722C20.0988 24.7404 19.72 23.9763 18.9624 23.48C18.2049 22.9706 17.0882 22.7159 15.6122 22.7159H8.46122V28.8286H15.6122ZM42.7186 11.2547C45.2525 11.2547 47.4076 11.64 49.1839 12.4106C50.9602 13.1682 52.3186 14.3437 53.259 15.9371C54.1994 17.5306 54.6696 19.5616 54.6696 22.0302V35H47.0288V31.9829C45.8402 34.2555 43.5414 35.3918 40.1325 35.3918C38.2647 35.3918 36.6843 35.0718 35.3912 34.4318C34.0982 33.7918 33.1121 32.9298 32.4329 31.8457C31.7667 30.7616 31.4337 29.5404 31.4337 28.182C31.4337 26.7453 31.7929 25.511 32.5112 24.4792C33.2427 23.4343 34.3725 22.631 35.9006 22.0694C37.4288 21.4947 39.401 21.2073 41.8174 21.2073H46.4802C46.4149 20.0188 45.9774 19.1045 45.1676 18.4645C44.3578 17.8245 43.1431 17.5045 41.5235 17.5045C40.4002 17.5045 39.2639 17.6873 38.1145 18.0531C36.9782 18.4057 35.9986 18.8955 35.1757 19.5224L32.4329 13.9584C33.7912 13.0833 35.3847 12.4171 37.2133 11.96C39.0549 11.4898 40.89 11.2547 42.7186 11.2547ZM42.4247 30.2196C43.3259 30.2196 44.1423 29.9976 44.8737 29.5535C45.6051 29.1094 46.1406 28.4237 46.4802 27.4963V25.4784H42.9341C41.628 25.4784 40.7072 25.6939 40.1716 26.1249C39.6361 26.5559 39.3684 27.1306 39.3684 27.849C39.3684 28.5412 39.6361 29.1094 40.1716 29.5535C40.7072 29.9976 41.4582 30.2196 42.4247 30.2196ZM84.036 35H74.6907L70.5176 28.8873L66.0311 35H57.156L66.0311 23.3233L57.4107 11.6465H66.6385L70.7723 17.5437L75.0825 11.6465H83.7421L75.1217 23.0098L84.036 35ZM90.6263 9.06041C89.1242 9.06041 87.916 8.64245 87.0018 7.80653C86.0875 6.95755 85.6303 5.91918 85.6303 4.69143C85.6303 3.46367 86.0875 2.43184 87.0018 1.59592C87.916 0.759999 89.1242 0.34204 90.6263 0.34204C92.1414 0.34204 93.3495 0.740408 94.2507 1.53714C95.165 2.33388 95.6222 3.34612 95.6222 4.57388C95.6222 5.86694 95.165 6.93796 94.2507 7.78694C93.3495 8.63592 92.1414 9.06041 90.6263 9.06041ZM86.5316 35V11.6465H94.7209V35H86.5316ZM107.281 29.3967H100.051L98.9148 4.35837H108.417L107.281 29.3967ZM108.456 36.2539L103.872 40.8188L99.3067 36.2539L103.872 31.6694L108.456 36.2539Z" fill="#2B2B2B"/>
</svg>
