<svg width="46" height="18" viewBox="0 0 46 18" fill="none" xmlns="http://www.w3.org/2000/svg">
<path d="M9.92245 8.4449C10.6354 8.70068 11.1959 9.09252 11.6041 9.62041C12.0122 10.1429 12.2163 10.7878 12.2163 11.5551C12.2163 12.6381 11.7755 13.4844 10.8939 14.0939C10.0177 14.698 8.73605 15 7.04898 15H0.257143V2.42857H6.6898C7.78912 2.42857 8.7034 2.56735 9.43265 2.8449C10.1619 3.12245 10.7061 3.50884 11.0653 4.00408C11.4245 4.49932 11.6041 5.07075 11.6041 5.71837C11.6041 6.92109 11.0435 7.82993 9.92245 8.4449ZM6.21633 5H3.77551V7.42449H6.21633C7.40272 7.42449 8.00136 7.01633 8.01224 6.2C8.01224 5.41088 7.41361 5.01088 6.21633 5ZM6.7551 12.4286C7.37007 12.4286 7.83537 12.3252 8.15102 12.1184C8.46667 11.9061 8.62449 11.585 8.62449 11.1551C8.62449 10.7252 8.46667 10.4068 8.15102 10.2C7.83537 9.98776 7.37007 9.88163 6.7551 9.88163H3.77551V12.4286H6.7551ZM18.0494 5.10612C19.1052 5.10612 20.0032 5.26667 20.7433 5.58775C21.4834 5.9034 22.0494 6.3932 22.4412 7.05714C22.8331 7.72109 23.029 8.56735 23.029 9.59592V15H19.8453V13.7429C19.3501 14.6898 18.3923 15.1633 16.9719 15.1633C16.1936 15.1633 15.5351 15.0299 14.9963 14.7633C14.4576 14.4966 14.0467 14.1374 13.7637 13.6857C13.4861 13.234 13.3474 12.7252 13.3474 12.1592C13.3474 11.5605 13.497 11.0463 13.7963 10.6163C14.1011 10.181 14.5719 9.84626 15.2086 9.61224C15.8453 9.37279 16.6671 9.25306 17.6739 9.25306H19.6168C19.5895 8.75782 19.4072 8.37687 19.0698 8.1102C18.7324 7.84354 18.2263 7.7102 17.5515 7.7102C17.0834 7.7102 16.61 7.78639 16.131 7.93878C15.6576 8.08571 15.2494 8.2898 14.9066 8.55102L13.7637 6.23265C14.3297 5.86803 14.9936 5.59048 15.7555 5.4C16.5229 5.20408 17.2875 5.10612 18.0494 5.10612ZM17.927 13.0082C18.3025 13.0082 18.6426 12.9156 18.9474 12.7306C19.2521 12.5456 19.4753 12.2599 19.6168 11.8735V11.0327H18.1392C17.595 11.0327 17.2113 11.1224 16.9882 11.302C16.7651 11.4816 16.6535 11.7211 16.6535 12.0204C16.6535 12.3088 16.7651 12.5456 16.9882 12.7306C17.2113 12.9156 17.5242 13.0082 17.927 13.0082ZM35.265 15H31.3711L29.6323 12.4531L27.763 15H24.065L27.763 10.1347L24.1711 5.26939H28.016L29.7385 7.72653L31.5344 5.26939H35.1426L31.5507 10.0041L35.265 15ZM38.0109 4.19184C37.3851 4.19184 36.8817 4.01769 36.5007 3.66939C36.1198 3.31565 35.9293 2.88299 35.9293 2.37143C35.9293 1.85986 36.1198 1.42993 36.5007 1.08163C36.8817 0.733333 37.3851 0.559183 38.0109 0.559183C38.6422 0.559183 39.1456 0.72517 39.5211 1.05714C39.9021 1.38912 40.0926 1.81088 40.0926 2.32245C40.0926 2.86122 39.9021 3.30748 39.5211 3.66122C39.1456 4.01497 38.6422 4.19184 38.0109 4.19184ZM36.3048 15V5.26939H39.7171V15H36.3048ZM44.9502 12.6653H41.938L41.4645 2.23265H45.4237L44.9502 12.6653ZM45.44 15.5224L43.5298 17.4245L41.6278 15.5224L43.5298 13.6122L45.44 15.5224Z" fill="#2B2B2B"/>
</svg>
