<svg width="99" height="81" viewBox="0 0 99 81" fill="none" xmlns="http://www.w3.org/2000/svg">
<path d="M36.8907 25.6973C36.8907 25.6973 32.3969 26.3972 32.0348 26.4873C31.6726 26.5773 30.249 27.2001 30.1765 27.6015C30.139 28.1285 30.139 28.6572 30.1765 29.1841C30.1765 29.1841 30.4356 29.3771 30.5944 28.9911C30.701 28.616 30.747 28.2284 30.7309 27.8408L31.5277 27.5578L31.0931 28.2706L31.0207 29.9407C31.0207 29.9407 31.5779 29.8944 31.6865 29.4955C31.7548 29.2177 31.7903 28.9338 31.7924 28.6489L32.3719 28.196L31.9373 28.7389L31.7924 29.9407C31.7924 29.9407 32.2158 30.0694 32.3496 29.8017C32.4474 29.4547 32.4961 29.0975 32.4944 28.7389L34.1326 28.2088L35.2163 28.7673L37.2417 27.7225L36.8907 25.6973Z" fill="#FFBE9D"/>
<path d="M52.6255 15.4373C52.6032 15.5196 47.2096 22.3853 47.2096 22.3853L36.3723 25.499L36.8654 29.2586L50.146 26.7882L54.8599 21.7908L52.6255 15.4373Z" fill="#F7A74B"/>
<g opacity="0.2">
<path d="M52.6255 15.4373C52.6032 15.5196 47.2096 22.3853 47.2096 22.3853L36.3723 25.499L36.8654 29.2586L50.146 26.7882L54.8599 21.7908L52.6255 15.4373Z" fill="black"/>
</g>
<path d="M71.5032 24.8789H93.6459C94.1152 24.8789 94.4956 25.2303 94.4956 25.6638V28.0801C94.4956 28.5136 94.1152 28.865 93.6459 28.865H71.5032C71.0339 28.865 70.6535 28.5136 70.6535 28.0801V25.6638C70.6535 25.2303 71.0339 24.8789 71.5032 24.8789Z" fill="#F5F5F5"/>
<path d="M71.5006 28.865C71.5006 28.865 71.4532 28.865 71.3613 28.847C71.1841 28.8169 71.0223 28.7347 70.8998 28.6128C70.7773 28.4908 70.7007 28.3356 70.6815 28.1702C70.6815 27.9283 70.6815 27.6401 70.6815 27.321C70.6815 27.0019 70.6815 26.6442 70.6815 26.2556C70.6815 26.0601 70.6815 25.8568 70.6815 25.6457C70.6852 25.5413 70.7118 25.4387 70.7597 25.344C70.8075 25.2493 70.8757 25.1647 70.9601 25.0951C71.0516 25.0236 71.1591 24.9717 71.2749 24.9432C71.3983 24.9184 71.5251 24.9106 71.651 24.9201H72.4645H74.2336L93.6266 24.9407C93.735 24.9405 93.8424 24.9613 93.9417 25.0016C94.041 25.0419 94.1301 25.1009 94.2033 25.1748C94.2756 25.2496 94.3307 25.3373 94.3652 25.4324C94.3997 25.5275 94.4129 25.6281 94.4039 25.7281C94.4039 26.1604 94.4039 26.5902 94.4039 27.0148V27.9798C94.4092 28.0783 94.3998 28.177 94.376 28.2731C94.3344 28.4123 94.2488 28.5368 94.1302 28.6307C94.0116 28.7247 93.8654 28.7839 93.7102 28.8007C93.6126 28.8007 93.4929 28.8007 93.3814 28.8007H88.233L79.5157 28.8161L73.6374 28.8367L72.0383 28.8495L73.6374 28.8624L79.5157 28.883L88.233 28.8984H93.4009C93.5151 28.8984 93.621 28.8984 93.7464 28.8984C93.8676 28.885 93.9849 28.85 94.0918 28.7955C94.1984 28.7409 94.2921 28.6672 94.3677 28.5789C94.4433 28.4905 94.4991 28.3892 94.532 28.2808C94.562 28.1734 94.5733 28.0622 94.5654 27.9515V26.9967C94.5654 26.5721 94.5654 26.1424 94.5654 25.7101C94.5729 25.5934 94.5553 25.4765 94.5137 25.3661C94.4721 25.2557 94.4073 25.154 94.3231 25.0667C94.2369 24.9787 94.1315 24.9084 94.0139 24.8605C93.8963 24.8126 93.769 24.7882 93.6405 24.7888L74.2475 24.8094H71.6649C71.5313 24.8043 71.3974 24.8147 71.2665 24.8403C71.1391 24.8723 71.021 24.9303 70.9211 25.0101C70.8269 25.0856 70.7507 25.1783 70.6975 25.2824C70.6442 25.3865 70.6151 25.4998 70.6119 25.6149C70.6119 25.8259 70.6119 26.0317 70.6119 26.2273C70.6119 26.6159 70.6119 26.971 70.6119 27.2927C70.6119 27.6143 70.6118 27.8948 70.6258 28.147C70.6566 28.3605 70.7779 28.5539 70.9629 28.6849C71.0756 28.7629 71.2078 28.8134 71.3473 28.8315C71.3962 28.8502 71.4479 28.8614 71.5006 28.865Z" fill="#263238"/>
<path d="M11.3784 79.7998C5.09411 79.521 0.24442 74.5894 0.546274 68.7847C0.848128 62.9801 6.18722 58.5005 12.4715 58.7793C18.7557 59.0582 23.6054 63.9898 23.3035 69.7944C23.0017 75.5991 17.6626 80.0786 11.3784 79.7998Z" fill="#263238"/>
<path d="M23.3116 69.1118C23.3116 69.1118 23.3116 69.1298 23.3116 69.1401C23.3369 71.9197 22.1704 74.5957 20.0669 76.5835C17.9633 78.5714 15.0937 79.7097 12.0846 79.7498C9.07557 79.7899 6.17156 78.7286 4.00681 76.7976C1.84206 74.8666 0.59247 72.2229 0.530907 69.4438C0.530907 69.4438 0.530907 69.4258 0.530907 69.4155L23.3116 69.1118Z" fill="#263238"/>
<path d="M19.9215 69.1838C19.9445 70.6449 19.4979 72.0795 18.6382 73.3061C17.7784 74.5328 16.5442 75.4964 15.0915 76.0751C13.6389 76.6538 12.0331 76.8216 10.4772 76.5573C8.92128 76.293 7.48518 75.6085 6.35049 74.5902C5.21579 73.572 4.43348 72.2658 4.10248 70.8369C3.77148 69.408 3.90666 67.9205 4.49092 66.5626C5.07518 65.2046 6.08228 64.0372 7.38486 63.208C8.68745 62.3787 10.227 61.9249 11.8088 61.9038C13.9297 61.8757 15.9759 62.6268 17.4973 63.992C19.0187 65.3572 19.8907 67.2248 19.9215 69.1838Z" fill="#FAFAFA"/>
<path d="M11.8087 61.9038C13.9296 61.8757 15.9758 62.6268 17.4972 63.992C19.0186 65.3572 19.8906 67.2248 19.9214 69.1838L3.92726 69.3974C3.89674 67.4383 4.70992 65.5483 6.18795 64.143C7.66598 62.7378 9.68779 61.9323 11.8087 61.9038Z" fill="#E0E0E0"/>
<path d="M16.7959 69.2251C16.8101 70.1152 16.5382 70.9893 16.0146 71.7367C15.491 72.4841 14.7392 73.0713 13.8543 73.424C12.9693 73.7767 11.9911 73.8791 11.0432 73.7182C10.0952 73.5573 9.22026 73.1404 8.52889 72.5201C7.83752 71.8999 7.36082 71.1042 7.15908 70.2337C6.95733 69.3632 7.0396 68.4569 7.39548 67.6296C7.75137 66.8023 8.36487 66.091 9.15842 65.5858C9.95196 65.0806 10.8899 64.8041 11.8536 64.7912C13.1454 64.7741 14.3918 65.2315 15.3186 66.0629C16.2454 66.8944 16.7768 68.0318 16.7959 69.2251Z" fill="#263238"/>
<path d="M17.3305 53.8622C17.3305 53.8622 5.66854 50.6044 0.846058 62.3079L25.251 69.2919L17.3305 53.8622Z" fill="#F7A74B"/>
<path d="M81.662 79.801C75.3778 79.5222 70.5281 74.5906 70.83 68.786C71.1318 62.9813 76.4709 58.5017 82.7552 58.7806C89.0394 59.0594 93.8891 63.991 93.5872 69.7956C93.2854 75.6003 87.9463 80.0799 81.662 79.801Z" fill="#263238"/>
<path d="M93.5987 69.1118C93.5987 69.1118 93.5987 69.1298 93.5987 69.1401C93.624 71.9197 92.4575 74.5957 90.354 76.5835C88.2505 78.5714 85.3808 79.7097 82.3718 79.7498C79.3627 79.7899 76.4587 78.7286 74.2939 76.7976C72.1292 74.8666 70.8796 72.2229 70.818 69.4438V69.4103L93.5987 69.1118Z" fill="#263238"/>
<path d="M90.1969 69.1838C90.2199 70.6449 89.7733 72.0795 88.9135 73.3061C88.0538 74.5328 86.8196 75.4964 85.3669 76.0751C83.9143 76.6538 82.3085 76.8216 80.7526 76.5573C79.1967 76.293 77.7606 75.6085 76.6259 74.5902C75.4912 73.572 74.7089 72.2658 74.3779 70.8369C74.0469 69.408 74.182 67.9205 74.7663 66.5626C75.3506 65.2046 76.3577 64.0372 77.6603 63.208C78.9628 62.3787 80.5024 61.9249 82.0842 61.9038C84.2051 61.8757 86.2513 62.6268 87.7727 63.992C89.2941 65.3572 90.1661 67.2248 90.1969 69.1838Z" fill="#FAFAFA"/>
<path d="M82.0952 61.9039C84.2142 61.8785 86.2575 62.6309 87.7765 63.9958C89.2955 65.3607 90.166 67.2267 90.1968 69.1839L74.2026 69.3975C74.1875 68.4266 74.3798 67.4625 74.7684 66.5603C75.1569 65.6581 75.7343 64.8355 76.4673 64.1395C77.2003 63.4436 78.0747 62.8879 79.0403 62.5043C80.006 62.1207 81.0441 61.9167 82.0952 61.9039Z" fill="#E0E0E0"/>
<path d="M87.082 69.2251C87.0962 70.1152 86.8243 70.9893 86.3007 71.7367C85.7771 72.4841 85.0253 73.0713 84.1404 73.424C83.2555 73.7767 82.2772 73.8791 81.3293 73.7182C80.3814 73.5573 79.5064 73.1404 78.815 72.5201C78.1237 71.8999 77.647 71.1042 77.4452 70.2337C77.2435 69.3632 77.3257 68.4569 77.6816 67.6296C78.0375 66.8023 78.651 66.091 79.4446 65.5858C80.2381 65.0806 81.176 64.8041 82.1397 64.7912C83.4316 64.7741 84.6779 65.2315 85.6047 66.0629C86.5316 66.8944 87.0629 68.0318 87.082 69.2251Z" fill="#263238"/>
<path d="M66.0065 65.0666C66.0705 65.0975 72.0018 64.22 72.0018 64.22C72.3225 64.6066 72.7307 64.924 73.198 65.1498C73.6652 65.3756 74.1802 65.5044 74.707 65.5272C77.2701 65.6405 79.7746 65.746 81.9505 65.836C82.9226 65.8761 83.8379 66.2705 84.4959 66.9327C85.1538 67.595 85.5008 68.4711 85.4607 69.3692C85.4216 70.2216 85.0369 71.0293 84.383 71.6318C83.7292 72.2344 82.8539 72.5878 81.9309 72.6219L69.3022 73.0825C67.2267 73.1572 64.4686 71.994 63.1731 70.4938L66.0065 65.0666Z" fill="#455A64"/>
<path d="M97.0001 60.4037C97.0001 60.4037 97.5406 50.149 87.1072 48.0131V46.6981H50.5611V49.853C50.5611 49.853 55.9241 55.8206 54.1828 60.7743C52.4416 65.7279 51.8844 66.2349 51.8844 66.2349H31.0845C29.4432 64.1042 28.5283 61.5691 28.4574 58.9549C28.3459 54.606 30.3017 47.1716 31.7643 42.4187C33.0849 38.0826 33.9206 34.4696 33.9206 34.4696L27.6801 32.5474C27.6801 32.5474 16.1323 46.5077 15.6615 47.2797C15.1907 48.0517 13.586 49.8942 13.9621 53.9035C14.3382 57.9127 24.727 70.2801 27.4517 71.6749C30.1763 73.0696 32.6391 73.1571 35.0935 73.5045C37.222 73.8082 52.9682 73.6075 57.0886 73.5483C58.5205 73.54 59.9242 73.1803 61.1561 72.5061C62.3875 71.8164 63.3124 70.6739 64.3349 68.8005L66.5162 64.8787L97.0001 60.4037Z" fill="#F7A74B"/>
<path d="M94.2032 59.6985L98.8056 66.3583C98.9422 66.5429 99.01 66.7635 98.9988 66.9869C98.9876 67.2103 98.8979 67.4242 98.7434 67.5963C98.5888 67.7684 98.3778 67.8893 98.1422 67.9408C97.9067 67.9923 97.6593 67.9716 97.4377 67.8817C96.865 67.6452 96.3416 67.3177 95.8915 66.9141C93.7881 65.0639 90.041 60.19 90.041 60.19L94.2032 59.6985Z" fill="#455A64"/>
<path d="M61.1922 60.8977C61.1922 60.8977 61.1922 60.8642 61.1643 60.7999L61.0724 60.5194C60.9616 60.1593 60.8806 59.792 60.83 59.4206C60.6758 58.0459 60.922 56.6582 61.5432 55.401C61.961 54.5334 62.5346 53.7373 63.2398 53.0464C64.0498 52.2574 64.9901 51.592 66.0258 51.0752C67.1736 50.5027 68.4018 50.0801 69.6754 49.8195C71.0484 49.5459 72.4497 49.4121 73.8543 49.4206C75.2526 49.43 76.6487 49.5254 78.0332 49.7062C79.3816 49.8735 80.6743 50.0794 81.8946 50.3367C84.0609 50.7617 86.149 51.475 88.0933 52.4545C89.399 53.1238 90.5919 53.9656 91.6342 54.9533C92.002 55.3032 92.2666 55.594 92.4422 55.7922L92.64 56.0212C92.6611 56.0484 92.6854 56.0734 92.7124 56.0958C92.405 55.6756 92.0582 55.2813 91.676 54.9172C90.6426 53.9108 89.4519 53.0529 88.1434 52.3722C86.1957 51.375 84.0995 50.6484 81.9224 50.2157C80.7022 49.9584 79.4151 49.7448 78.0527 49.575C76.6571 49.3925 75.2499 49.2962 73.8404 49.2868C72.4281 49.2781 71.0192 49.4136 69.6392 49.6908C68.353 49.9604 67.1136 50.3934 65.9561 50.9775C64.9059 51.5016 63.9532 52.1775 63.134 52.9795C62.4236 53.6822 61.848 54.4915 61.4318 55.3727C60.8131 56.6467 60.5801 58.0519 60.7575 59.4386C60.8161 59.8115 60.9093 60.1792 61.0361 60.5374C61.0807 60.6558 61.1142 60.7458 61.142 60.8153C61.1561 60.8441 61.1729 60.8716 61.1922 60.8977Z" fill="#263238"/>
<path d="M63.2957 58.6024C63.3124 58.6024 63.2372 58.4403 63.1592 58.1469C63.0548 57.7246 63.0406 57.2876 63.1174 56.8603C63.2259 56.232 63.4562 55.6271 63.7972 55.0744C63.9902 54.7436 64.2159 54.4301 64.4714 54.1377C64.7389 53.8196 65.0424 53.5289 65.3768 53.2705C66.0287 52.7747 66.7623 52.3785 67.5499 52.097C68.1942 51.8636 68.8626 51.6911 69.5446 51.5824C70.0058 51.5105 70.4707 51.4615 70.9376 51.4357C71.1091 51.4336 71.2803 51.4216 71.4502 51.3996C71.4059 51.3935 71.3608 51.3935 71.3165 51.3996C71.2301 51.3996 71.1019 51.3996 70.9348 51.3996C70.4684 51.406 70.0031 51.4412 69.5418 51.5052C68.8488 51.597 68.1688 51.7584 67.5136 51.9864C66.7059 52.2673 65.9531 52.668 65.2849 53.1727C64.9439 53.438 64.6339 53.7355 64.36 54.0605C64.1038 54.3612 63.8773 54.6824 63.683 55.0203C63.3381 55.5867 63.1131 56.2085 63.0199 56.8525C62.9507 57.2874 62.9801 57.7308 63.1063 58.1546C63.1393 58.269 63.184 58.3802 63.24 58.4866C63.2526 58.5274 63.2714 58.5664 63.2957 58.6024Z" fill="#F5F5F5"/>
<g opacity="0.4">
<path d="M70.4531 49.6111C68.4861 49.943 66.6135 50.6436 64.9509 51.6698C63.2792 52.695 61.9918 54.1727 61.2651 55.9004C60.5351 57.6348 60.6438 59.9328 61.4127 61.3687L58.8301 61.5668C57.9609 58.888 58.9054 55.6018 60.9948 53.5046C62.1904 52.2817 63.6492 51.3028 65.2779 50.6306C66.9066 49.9584 68.6693 49.6076 70.4531 49.6008" fill="black"/>
</g>
<path d="M71.2777 28.6643H93.8689C95.1891 28.6643 96.2593 29.6528 96.2593 30.8722V44.498C96.2593 45.7174 95.1891 46.7059 93.8689 46.7059H71.2777C69.9575 46.7059 68.8873 45.7174 68.8873 44.498V30.8722C68.8873 29.6528 69.9575 28.6643 71.2777 28.6643Z" fill="#455A64"/>
<path d="M68.887 32.689C68.887 32.7276 75.0412 32.7559 82.6301 32.7559C90.219 32.7559 96.376 32.7276 96.376 32.689C96.376 32.6504 90.2246 32.6221 82.6301 32.6221C75.0356 32.6221 68.887 32.6529 68.887 32.689Z" fill="#263238"/>
<path d="M50.5776 47.8999C50.5776 47.9359 58.7934 47.9668 68.9231 47.9668C79.0528 47.9668 87.2686 47.9359 87.2686 47.8999C87.2686 47.8639 79.0556 47.833 68.9231 47.833C58.7906 47.833 50.5776 47.8639 50.5776 47.8999Z" fill="#263238"/>
<path d="M50.5613 46.7058C50.1889 46.27 49.9589 45.7451 49.8982 45.1927C49.8425 44.3461 50.2604 43.2859 51.2494 43.2859H63.8697C64.8517 43.2859 65.7935 43.6462 66.4878 44.2876C67.1822 44.9289 67.5723 45.7988 67.5723 46.7058H50.5613Z" fill="#455A64"/>
<path d="M33.9206 34.4696L36.1159 30.2416C36.4089 29.6612 36.4571 29.0007 36.2511 28.3892C36.045 27.7777 35.5994 27.2591 35.0015 26.9349L28.4378 23.3194C28.0954 23.1292 27.7035 23.0286 27.3039 23.0286H25.8859L25.3287 31.5746L27.5129 32.3543L26.1199 34.4336L33.9206 34.4696Z" fill="#F7A74B"/>
<path d="M25.8667 23.3477C25.8667 23.3477 23.6212 23.8237 23.3398 27.0198C23.0585 30.2159 25.3206 31.2143 25.3206 31.2143L25.8667 23.3477Z" fill="#EBEBEB"/>
<path d="M33.1545 28.5845C33.1545 28.5845 37.6928 30.5711 38.2472 30.9005C38.6317 31.127 38.9604 31.5233 38.6595 32.2207C38.1469 33.407 36.024 32.2901 36.024 32.2901L31.7977 30.3395C31.7977 30.3395 30.1735 29.6319 30.7753 28.7441C31.4467 27.7508 33.1545 28.5845 33.1545 28.5845Z" fill="#263238"/>
<path d="M39.5788 27.8613C39.5788 27.8613 35.3135 28.5355 34.9513 28.6333C34.5892 28.7311 33.1683 29.3461 33.0959 29.7476C33.0583 30.2745 33.0583 30.8032 33.0959 31.3302C33.0959 31.3302 33.3522 31.5232 33.5138 31.1372C33.6188 30.7609 33.6648 30.3727 33.6503 29.9843L34.4471 29.7013L34.0125 30.4141L33.94 32.0867C33.94 32.0867 34.4972 32.0404 34.6031 31.639C34.6715 31.362 34.707 31.079 34.709 30.7949L35.2912 30.3394L34.8566 30.8824L34.709 32.0867C34.709 32.0867 35.1324 32.2128 35.2662 31.9452C35.3642 31.5982 35.4128 31.241 35.411 30.8824L37.0492 30.3549L38.1329 30.9133L39.8379 30.0384L39.5788 27.8613Z" fill="#FFBE9D"/>
<path d="M32.9372 22.3751C32.9372 23.9705 33.7312 25.2624 34.7091 25.2624C35.687 25.2624 36.481 23.9757 36.481 22.3751C36.481 20.7745 35.6898 19.4878 34.7091 19.4878C33.7284 19.4878 32.9372 20.7745 32.9372 22.3751Z" fill="#263238"/>
<path d="M34.4194 24.359L33.4444 27.4779C33.2664 27.3951 33.1244 27.2586 33.0418 27.0911C32.9592 26.9235 32.941 26.735 32.9902 26.5566C33.2354 25.4887 33.3747 24.7296 33.6422 23.7929C33.6756 23.7002 34.4194 24.359 34.4194 24.359Z" fill="#263238"/>
<g opacity="0.4">
<path d="M53.7012 62.0943C53.7959 61.837 53.8962 61.5796 53.9798 61.3043C54.0634 61.0289 54.1692 60.7896 54.2417 60.5323C54.354 60.1462 54.4359 59.7532 54.4868 59.3563C56.1305 65.5323 53.6204 69.8889 49.3133 70.1951C43.0171 70.6429 35.3418 70.9671 32.2382 70.2157C26.58 68.8441 24.5044 64.4849 24.0085 63.767C23.5126 63.049 19.0133 55.4499 21.7798 48.134C24.5462 40.818 29.3436 33.0491 29.3436 33.0491L33.9209 34.4695C33.9209 34.4695 33.0851 38.0722 31.7562 42.4057C30.2936 47.1587 28.3379 54.593 28.4493 58.942C28.5203 61.5562 29.4351 64.0912 31.0765 66.2219H51.8736C51.8736 66.2219 52.3193 65.8102 53.6928 62.1046" fill="black"/>
</g>
<path d="M97.8304 58.803L97.6828 57.3362L59.7158 61.3763C59.2084 61.4315 58.7185 61.5818 58.2763 61.8181C57.834 62.0544 57.4487 62.3717 57.144 62.7505C56.8393 63.1293 56.6216 63.5617 56.5043 64.021C56.387 64.4803 56.3726 64.9569 56.4618 65.4216L56.6318 66.3094L95.9137 61.0366C96.4834 60.9646 97.001 60.692 97.3582 60.2757C97.7154 59.8595 97.8846 59.3318 97.8304 58.803Z" fill="#F7A74B"/>
<g opacity="0.6">
<path d="M97.8304 58.803L97.6828 57.3362L59.7158 61.3763C59.2084 61.4315 58.7185 61.5818 58.2763 61.8181C57.834 62.0544 57.4487 62.3717 57.144 62.7505C56.8393 63.1293 56.6216 63.5617 56.5043 64.021C56.387 64.4803 56.3726 64.9569 56.4618 65.4216L56.6318 66.3094L95.9137 61.0366C96.4834 60.9646 97.001 60.692 97.3582 60.2757C97.7154 59.8595 97.8846 59.3318 97.8304 58.803Z" fill="black"/>
</g>
<g opacity="0.3">
<path d="M24.0083 68.6125C24.0083 68.6125 15.6504 60.1205 13.9259 53.4453C13.0595 53.4407 12.194 53.5001 11.3378 53.6229C11.3378 53.6229 16.2801 66.0341 24.0083 68.6125Z" fill="black"/>
</g>
<path d="M14.0484 50.4553C14.0267 50.5252 14.0118 50.5966 14.0038 50.6689C13.9815 50.8104 13.9369 51.0189 13.9091 51.2891C13.8275 52.0606 13.8491 52.8384 13.9731 53.6051C14.1695 54.7373 14.5449 55.8367 15.0875 56.8681C15.7496 58.1237 16.4881 59.3437 17.2996 60.5222C18.7559 62.6729 20.3915 64.7155 22.1917 66.6313C22.8715 67.375 23.4342 67.9669 23.8243 68.3734L24.2756 68.8392C24.3269 68.8946 24.3818 68.947 24.4399 68.9962C24.3986 68.9347 24.351 68.877 24.2979 68.8238L23.866 68.34L22.2697 66.5721C20.4979 64.6417 18.8779 62.5967 17.4221 60.4527C16.6098 59.2781 15.8658 58.0644 15.1934 56.8166C14.6578 55.7953 14.2826 54.7087 14.079 53.5896C13.951 52.834 13.9145 52.0676 13.9704 51.3045C13.9899 51.0343 14.0261 50.8259 14.0372 50.6818C14.0491 50.6068 14.0528 50.531 14.0484 50.4553Z" fill="#263238"/>
<path d="M28.4962 68.5508C28.9748 68.2125 29.423 67.839 29.8363 67.434C30.2824 67.0606 30.696 66.6553 31.0732 66.2219C30.1477 66.9328 29.2859 67.7116 28.4962 68.5508Z" fill="#263238"/>
<path d="M53.3027 68.291C53.1682 67.8944 52.9599 67.5226 52.687 67.1922C52.4547 66.8366 52.1578 66.5206 51.8095 66.2581C51.7788 66.2864 52.1605 66.7084 52.5672 67.2668C52.974 67.8252 53.2637 68.3064 53.3027 68.291Z" fill="#263238"/>
<path d="M69.361 73.1932C68.9039 72.8083 68.5189 72.3561 68.2216 71.8551C67.9096 71.308 67.7201 70.7085 67.6644 70.0924C67.5799 69.3412 67.722 68.583 68.0751 67.9018C68.4281 67.2205 68.9783 66.6428 69.6647 66.2324C70.2181 65.8851 70.8415 65.6444 71.4978 65.5247C72.1061 65.4232 72.7283 65.4154 73.3394 65.5015C73.3001 65.4859 73.2589 65.4747 73.2168 65.4681C73.0958 65.4388 72.973 65.4165 72.849 65.4012C72.3932 65.3448 71.9306 65.3552 71.4783 65.4321C70.8035 65.5421 70.1605 65.7795 69.5895 66.1294C68.8756 66.5482 68.3039 67.1442 67.9398 67.8492C67.5757 68.5541 67.4339 69.3396 67.5307 70.1155C67.5946 70.7479 67.7995 71.3612 68.1324 71.9169C68.3514 72.2904 68.6335 72.6292 68.9682 72.9205C69.0557 73.0006 69.1488 73.0753 69.2468 73.1443C69.2826 73.1649 69.3209 73.1813 69.361 73.1932Z" fill="#263238"/>
<path d="M83.2318 70.5039C83.3273 70.0982 83.3731 69.6839 83.3683 69.2687C83.4163 68.8547 83.4163 68.4372 83.3683 68.0232C83.2291 68.8434 83.1862 69.6751 83.2401 70.5039H83.2318Z" fill="#263238"/>
<path d="M82.2184 70.5066C82.4269 69.6914 82.5417 68.8582 82.561 68.0208C82.4341 68.4236 82.3529 68.8376 82.3187 69.2559C82.238 69.6684 82.2043 70.0876 82.2184 70.5066Z" fill="#263238"/>
<path d="M66.5583 46.7058C66.5583 46.7418 71.1746 46.7727 76.8663 46.7727C82.558 46.7727 87.1743 46.7418 87.1743 46.7058C87.1743 46.6698 82.558 46.6389 76.8663 46.6389C71.1746 46.6389 66.5583 46.6672 66.5583 46.7058Z" fill="#263238"/>
<path d="M81.5076 46.6929C81.5494 46.6929 81.5801 41.8035 81.5801 35.7871C81.5801 29.7706 81.5606 24.8916 81.5076 24.8916C81.4547 24.8916 81.4352 29.7809 81.4352 35.8C81.4352 41.819 81.4686 46.6929 81.5076 46.6929Z" fill="#263238"/>
<path d="M84.3462 46.675C84.3852 46.675 84.1874 41.7857 83.9032 35.7744C83.619 29.7631 83.346 24.8763 83.3182 24.8789C83.2903 24.8815 83.4742 29.7682 83.7583 35.7795C84.0425 41.7909 84.2932 46.6776 84.3462 46.675Z" fill="#263238"/>
<path d="M90.7289 76.4354C90.7737 76.4005 90.8148 76.3618 90.8515 76.3196C90.9239 76.2424 91.0437 76.1317 91.1747 75.9748C91.5598 75.5378 91.9037 75.0712 92.2027 74.58C93.2111 72.9539 93.7377 71.111 93.7294 69.2371C93.7211 67.3631 93.1782 65.5242 92.1553 63.9058C91.8532 63.4165 91.5055 62.9524 91.1162 62.5188C90.9824 62.3618 90.8626 62.2615 90.7874 62.174C90.7122 62.0865 90.6676 62.0582 90.6648 62.0633C90.6924 62.1098 90.7261 62.1531 90.7651 62.192C90.832 62.2769 90.9462 62.3901 91.0716 62.5523C92.5007 64.2338 93.3617 66.267 93.547 68.398C93.7323 70.5289 93.2337 72.663 92.1135 74.5337C91.8251 75.0254 91.4963 75.496 91.1301 75.9413C91.0075 76.1034 90.8961 76.2192 90.8292 76.3042C90.7623 76.3891 90.7233 76.4302 90.7289 76.4354Z" fill="#455A64"/>
<path d="M50.8176 56.8293L50.9039 56.9786L52.5866 59.889L54.938 61.9786L50.2381 67.7583L46.3238 67.1587C46.3238 67.1587 46.7612 66.3327 48.7281 66.1731L49.472 62.7197L46.7111 58.7671" fill="#455A64"/>
<path d="M54.9321 61.9862L50.2322 67.7659L46.318 67.1663L46.8557 66.6903L50.0679 67.0145L54.4307 61.541L54.9321 61.9862Z" fill="#E0E0E0"/>
<path d="M49.0344 64.593C49.0567 64.6342 49.313 64.5493 49.5916 64.6059C49.8702 64.6625 50.0958 64.8092 50.1321 64.7783C50.1683 64.7474 49.9928 64.5055 49.625 64.4463C49.2573 64.3872 49.0037 64.5596 49.0344 64.593Z" fill="#263238"/>
<path d="M49.2433 63.7489C49.2768 63.7798 49.4913 63.5945 49.8005 63.5842C50.1098 63.5739 50.3577 63.7463 50.3828 63.7128C50.4079 63.6794 50.3633 63.6331 50.263 63.5585C50.1274 63.467 49.9627 63.4199 49.795 63.4246C49.627 63.4287 49.4657 63.4859 49.3381 63.5868C49.2628 63.6588 49.2433 63.7283 49.2433 63.7489Z" fill="#263238"/>
<path d="M49.4243 62.6297C49.4633 62.658 49.636 62.4702 49.923 62.4238C50.2099 62.3775 50.4411 62.4985 50.4802 62.4599C50.5192 62.4213 50.4551 62.3852 50.352 62.3312C50.2159 62.2647 50.0597 62.2422 49.9081 62.2674C49.7566 62.2926 49.6186 62.364 49.5162 62.4701C49.4215 62.5525 49.4048 62.6194 49.4243 62.6297Z" fill="#263238"/>
<path d="M48.533 61.6132C48.5748 61.6338 48.7224 61.4459 48.9927 61.3378C49.2629 61.2297 49.5081 61.2452 49.5192 61.2014C49.5304 61.1577 49.2406 61.0522 48.9203 61.2014C48.5999 61.3507 48.4856 61.6003 48.533 61.6132Z" fill="#263238"/>
<path d="M48.1538 60.7924C48.1733 60.8052 48.3265 60.6817 48.5633 60.4656L48.9645 60.0821C49.0553 60.0071 49.1341 59.9204 49.1985 59.8248C49.2172 59.7904 49.2283 59.7528 49.2312 59.7144C49.2341 59.676 49.2286 59.6374 49.2152 59.6009C49.1994 59.5593 49.1706 59.5229 49.1324 59.4963C49.0942 59.4698 49.0484 59.4542 49.0007 59.4517C48.8581 59.4534 48.7193 59.4947 48.6023 59.57C48.5003 59.6303 48.4067 59.7021 48.3237 59.7836C48.1853 59.9244 48.0833 60.0925 48.0256 60.2751C47.9522 60.44 47.9522 60.6249 48.0256 60.7898C48.0539 60.6307 48.093 60.4734 48.1426 60.3189C48.2106 60.1605 48.3119 60.0162 48.4407 59.8943C48.5167 59.8246 48.6019 59.7641 48.6943 59.7141C48.7828 59.6606 48.8842 59.628 48.9896 59.6189C49.0042 59.6191 49.0184 59.6234 49.0303 59.6312C49.0423 59.639 49.0514 59.65 49.0564 59.6627C49.0714 59.6965 49.0714 59.7344 49.0564 59.7682C49.0021 59.851 48.9366 59.9271 48.8614 59.9946L48.4797 60.4038C48.3493 60.5164 48.2393 60.6476 48.1538 60.7924Z" fill="#263238"/>
<path d="M47.9951 60.877C48.0146 60.877 48.0341 60.6866 47.8614 60.437C47.7439 60.2723 47.572 60.147 47.3712 60.0797C47.1704 60.0125 46.9515 60.0069 46.747 60.0639C46.7246 60.0774 46.7056 60.0952 46.6912 60.1161C46.6768 60.1369 46.6673 60.1603 46.6634 60.1848C46.6598 60.2268 46.6695 60.2688 46.6913 60.3058C46.7225 60.3572 46.763 60.4034 46.8111 60.4421C46.8886 60.5113 46.9725 60.5742 47.0618 60.63C47.2123 60.7236 47.3778 60.7948 47.5522 60.841C47.7078 60.8993 47.8793 60.911 48.0425 60.8745C48.0425 60.8487 47.8614 60.8333 47.5912 60.7329C47.4356 60.676 47.2886 60.6007 47.1538 60.5091C47.0742 60.4549 46.9996 60.3946 46.9309 60.3289C46.897 60.3014 46.8679 60.2693 46.8445 60.2337C46.8306 60.1977 46.8445 60.208 46.8445 60.2003C46.8824 60.1852 46.9231 60.1774 46.9643 60.1771C47.0134 60.1732 47.0628 60.1732 47.112 60.1771C47.2076 60.1849 47.3015 60.2057 47.3906 60.2389C47.5411 60.293 47.6744 60.3815 47.7778 60.4962C47.8594 60.6185 47.932 60.7457 47.9951 60.877Z" fill="#263238"/>
<path d="M51.8289 61.397C51.8136 61.4819 51.8259 61.5691 51.8643 61.6475C51.9026 61.7259 51.9653 61.7921 52.0444 61.8376C52.1235 61.8831 52.2154 61.9059 52.3085 61.9031C52.4017 61.9003 52.4918 61.8721 52.5676 61.822C52.6433 61.7718 52.7012 61.7021 52.734 61.6215C52.7668 61.541 52.773 61.4532 52.7518 61.3694C52.7306 61.2856 52.6829 61.2095 52.6148 61.1507C52.5468 61.092 52.4613 61.0532 52.3694 61.0393C52.2465 61.0214 52.1209 61.0489 52.0198 61.1158C51.9186 61.1827 51.8501 61.2837 51.8289 61.397Z" fill="#E0E0E0"/>
<path d="M36.5537 59.6086L35.2972 67.1433L25.1369 65.7485C25.343 64.8607 30.8871 63.7825 30.8871 63.7825L31.4777 58.9241L36.5537 59.6086Z" fill="#455A64"/>
<path d="M34.0936 63.8082C34.1871 63.8488 34.261 63.9198 34.3012 64.0077C34.3413 64.0956 34.3447 64.1942 34.3109 64.2843C34.2696 64.3715 34.194 64.4411 34.0994 64.4788C34.0047 64.5165 33.8981 64.5197 33.801 64.4876C33.7002 64.4437 33.621 64.3664 33.5792 64.271C33.5374 64.1756 33.536 64.0692 33.5754 63.9729C33.6279 63.8849 33.7154 63.8193 33.8195 63.79C33.9235 63.7607 34.0358 63.77 34.1326 63.816" fill="#E0E0E0"/>
<path d="M35.2969 67.1433L35.3916 66.3713L25.6157 65.3188C25.6157 65.3188 25.1337 65.4398 25.1365 65.7409L35.2969 67.1433Z" fill="#E0E0E0"/>
<path d="M30.7306 63.713C30.7306 63.7594 30.9675 63.8134 31.1903 63.9935C31.4132 64.1737 31.5079 64.3847 31.5581 64.3744C31.6082 64.3641 31.5748 64.0862 31.3046 63.8726C31.0343 63.659 30.7251 63.6693 30.7306 63.713Z" fill="#263238"/>
<path d="M29.6001 63.9729C29.5806 64.0166 29.7839 64.1222 29.9204 64.3409C30.057 64.5596 30.0737 64.7681 30.1238 64.7732C30.174 64.7784 30.2464 64.5159 30.0709 64.2585C29.8954 64.0012 29.6084 63.9292 29.6001 63.9729Z" fill="#263238"/>
<path d="M28.8034 65.0665C28.848 65.0845 28.9538 64.8632 28.8675 64.5956C28.7811 64.3279 28.5638 64.1941 28.5359 64.2301C28.5081 64.2662 28.6307 64.4206 28.7003 64.6419C28.77 64.8632 28.756 65.0562 28.8034 65.0665Z" fill="#263238"/>
<path d="M30.9978 62.6194C30.9978 62.6631 31.2485 62.6323 31.5271 62.6863C31.8057 62.7403 32.0091 62.8561 32.0425 62.8201C32.076 62.7841 31.8893 62.5911 31.5633 62.5293C31.2374 62.4676 30.9783 62.5782 30.9978 62.6194Z" fill="#263238"/>
<path d="M31.413 61.5385C31.5733 61.603 31.7495 61.6261 31.9229 61.6054C32.1113 61.6006 32.2984 61.5747 32.4801 61.5282C32.591 61.5037 32.7 61.4719 32.806 61.433C32.868 61.4125 32.9255 61.382 32.9759 61.3429C33.0143 61.3155 33.0413 61.2768 33.0524 61.2333C33.0636 61.1897 33.0582 61.144 33.0372 61.1036C33.0176 61.0681 32.9892 61.0372 32.9544 61.0136C32.9196 60.9899 32.8793 60.974 32.8367 60.9672C32.7729 60.9582 32.7081 60.9582 32.6444 60.9672C32.5311 60.9749 32.419 60.9939 32.3101 61.0238C32.1271 61.0718 31.9533 61.1456 31.7947 61.2426C31.5161 61.4124 31.4186 61.572 31.4353 61.5848C31.452 61.5977 31.5941 61.4742 31.8588 61.3404C32.0141 61.2629 32.18 61.2049 32.3519 61.168C32.4521 61.1436 32.5548 61.129 32.6583 61.1242C32.7698 61.1242 32.8617 61.1242 32.8812 61.1731C32.9007 61.222 32.8812 61.1963 32.8617 61.2246C32.8234 61.2513 32.7812 61.273 32.7364 61.2889C32.6409 61.3288 32.5433 61.364 32.4438 61.3944C32.2741 61.4445 32.0997 61.4798 31.9229 61.4999C31.7521 61.5016 31.5818 61.5145 31.413 61.5385Z" fill="#263238"/>
<path d="M31.472 61.6131C31.4887 61.6131 31.6141 61.4716 31.6809 61.1782C31.7112 61.0078 31.7112 60.834 31.6809 60.6636C31.6629 60.5603 31.6349 60.4586 31.5973 60.3599C31.5806 60.2951 31.5462 60.2354 31.4975 60.1863C31.4487 60.1372 31.3872 60.1004 31.3187 60.0794C31.2735 60.0741 31.2275 60.0807 31.1861 60.0985C31.1447 60.1162 31.1095 60.1444 31.0847 60.1798C31.0497 60.2319 31.0225 60.2882 31.0039 60.3471C30.9698 60.4496 30.9528 60.5563 30.9538 60.6636C30.9538 60.8431 31.0016 61.0199 31.0931 61.1782C31.2519 61.4356 31.4497 61.5308 31.4553 61.5154C31.4608 61.4999 31.3187 61.3841 31.2045 61.1294C31.1381 60.9829 31.1076 60.8247 31.1154 60.6661C31.1181 60.5741 31.1359 60.483 31.1683 60.396C31.1989 60.2982 31.2519 60.2235 31.2909 60.239C31.3299 60.2544 31.4162 60.3316 31.4441 60.4165C31.4818 60.5048 31.5107 60.5961 31.5305 60.6893C31.5621 60.848 31.5696 61.0099 31.5528 61.1705C31.5277 61.433 31.4469 61.6028 31.472 61.6131Z" fill="#263238"/>
<path d="M44.5466 41.9093L53.2583 59.444L47.5053 62.6349L35.4589 41.5361" fill="#263238"/>
<path d="M30.1794 63.0335L36.4283 63.9599L40.1698 43.3372L58.6546 44.575C59.1436 44.6064 59.6348 44.5638 60.1089 44.4489C65.2991 43.1339 64.597 37.0197 64.0956 36.0393L38.5178 35.3625C37.1777 35.3265 35.8704 35.7485 34.8464 36.5477C33.8223 37.3469 33.1535 38.467 32.9682 39.6934L30.1794 63.0335Z" fill="#263238"/>
<path d="M64.3545 37.0069L64.2626 28.2885C64.2626 28.2885 65.48 22.6271 65.8422 20.3909C66.3994 16.9323 67.1683 15.288 61.0337 12.8304L59.6908 12.3518L57.6153 12.3775C55.1414 12.55 52.5337 14.6163 52.4724 15.9802L50.0793 35.6327L64.3545 37.0069Z" fill="#F7A74B"/>
<path d="M63.9696 14.8555C63.9696 14.8555 65.7024 18.2986 65.3626 21.4355L58.9075 27.1586C57.4616 28.646 55.6507 29.279 53.3356 29.4077L39.9798 30.7561L39.6092 27.5291L52.3076 24.2044C52.8146 24.1169 53.0682 23.6305 53.4554 23.3166L63.9696 14.8555Z" fill="#F7A74B"/>
<path d="M65.0146 15.8489C64.9396 15.7826 64.853 15.7287 64.7583 15.6893C64.4833 15.5774 64.1926 15.502 63.8947 15.4654C63.4169 15.393 62.9294 15.393 62.4516 15.4654C62.304 15.4902 62.1612 15.5353 62.0281 15.5992C61.892 15.6781 61.7609 15.764 61.6353 15.8566C61.379 16.0419 61.1199 16.2554 60.8552 16.487C60.3203 16.9477 59.8133 17.5318 59.2199 18.1237C58.6265 18.7156 57.9773 19.3512 57.2697 20.0177C56.5621 20.6842 55.8015 21.3815 54.988 22.1021C54.5785 22.4623 54.1522 22.8277 53.7093 23.1854C53.4836 23.3553 53.2607 23.556 53.0462 23.7438C52.844 23.937 52.5889 24.0757 52.3079 24.1453L39.5845 27.4649L39.526 27.4803V27.5369C39.5511 27.766 39.5817 28.0104 39.6096 28.26C39.7071 29.117 39.8046 29.9662 39.8882 30.7639V30.8308H39.9606L45.6217 30.2492L48.2962 29.979L50.8565 29.7397C51.6922 29.6548 52.4974 29.5673 53.2802 29.4618C54.045 29.3751 54.7977 29.2138 55.5257 28.9806C56.1968 28.7446 56.8318 28.4288 57.4146 28.0413C57.9718 27.6785 58.4955 27.3002 58.9775 26.9271C60.8859 25.4242 62.2872 24.0784 63.2595 23.1623C63.7415 22.7016 64.112 22.3388 64.36 22.0918L64.6386 21.8087L64.7305 21.7083C64.7305 21.7083 64.6943 21.7366 64.6274 21.7984C64.5605 21.8602 64.463 21.9554 64.3488 22.0738L63.2344 23.1288C62.251 24.0321 60.8385 25.3676 58.9274 26.8576C58.4454 27.2256 57.93 27.6013 57.37 27.959C56.791 28.3385 56.1619 28.6481 55.4979 28.8802C54.7748 29.108 54.0277 29.265 53.2691 29.3486C52.4862 29.4515 51.6783 29.539 50.8481 29.6213L48.2878 29.8529L45.6133 30.1231L39.9578 30.6919L40.0386 30.751C39.9467 29.9533 39.8492 29.1041 39.76 28.2446C39.7294 27.9873 39.7015 27.7505 39.6764 27.5215L39.6235 27.5936L52.3274 24.2611C52.6376 24.1899 52.9196 24.0391 53.1409 23.8262C53.3666 23.628 53.57 23.4428 53.8012 23.2652C54.2497 22.9049 54.6704 22.537 55.08 22.1767C55.8935 21.4536 56.6512 20.7511 57.3561 20.082C58.0609 19.4129 58.7073 18.7747 59.3062 18.1752C59.9052 17.5756 60.3955 16.994 60.9249 16.5334C61.1684 16.3103 61.4251 16.0998 61.6938 15.9029C61.8151 15.8087 61.9436 15.7227 62.0783 15.6456C62.2045 15.5822 62.3408 15.5379 62.4822 15.5143C62.9523 15.4348 63.4333 15.4278 63.9058 15.4937C64.2016 15.5244 64.4913 15.5928 64.7667 15.697C64.8534 15.7417 64.9363 15.7925 65.0146 15.8489Z" fill="#263238"/>
<path d="M61.6799 4.78887L61.0335 13.2809C60.9821 13.9485 60.6585 14.5733 60.1281 15.0294C59.5977 15.4854 58.8998 15.7388 58.1752 15.7384C57.7833 15.7385 57.3956 15.6643 57.036 15.5203C56.6764 15.3764 56.3527 15.1659 56.0847 14.9018C55.8168 14.6376 55.6104 14.3255 55.4783 13.9848C55.3462 13.644 55.2912 13.2818 55.3168 12.9206C55.3753 12.1126 55.4254 11.4512 55.4254 11.4512C55.4254 11.4512 53.1967 11.1321 53.1744 9.07604C53.1577 7.88974 53.3805 5.19803 53.57 3.13422C53.6322 2.46006 53.9668 1.83222 54.5073 1.37547C55.0477 0.918725 55.7544 0.666514 56.4869 0.668963H57.8325C58.3805 0.6997 58.9163 0.831483 59.4082 1.05654C59.9002 1.28159 60.3384 1.59536 60.697 1.97935C61.0556 2.36333 61.3273 2.80975 61.4961 3.29228C61.6649 3.77481 61.7274 4.28368 61.6799 4.78887Z" fill="#FFBE9D"/>
<path d="M55.4226 11.4178C56.4494 11.4357 57.4588 11.1715 58.3228 10.6587C58.3228 10.6587 57.6374 12.1358 55.417 11.9454L55.4226 11.4178Z" fill="#EB996E"/>
<path d="M54.0689 5.77171C54.0681 5.8482 54.0997 5.92196 54.157 5.97724C54.2142 6.03252 54.2926 6.06496 54.3753 6.06764C54.4153 6.07117 54.4557 6.06726 54.494 6.05616C54.5323 6.04506 54.5678 6.02699 54.5985 6.003C54.6291 5.97902 54.6542 5.94961 54.6724 5.91652C54.6905 5.88343 54.7013 5.84731 54.7041 5.81031C54.7049 5.73356 54.6734 5.65952 54.6162 5.60383C54.559 5.54813 54.4806 5.51514 54.3976 5.5118C54.3168 5.50612 54.2367 5.53029 54.1751 5.57901C54.1135 5.62772 54.0753 5.69702 54.0689 5.77171Z" fill="#263238"/>
<path d="M53.9518 5.19287C53.9936 5.23147 54.2304 5.06678 54.5759 5.06678C54.9213 5.06678 55.1665 5.22632 55.2055 5.18772C55.2445 5.14912 55.1832 5.10023 55.0718 5.02817C54.925 4.93291 54.7497 4.88251 54.5703 4.88407C54.392 4.88369 54.2182 4.93598 54.0744 5.03332C53.9797 5.10538 53.9351 5.17485 53.9518 5.19287Z" fill="#263238"/>
<path d="M57.2779 5.77171C57.2764 5.8484 57.3077 5.92253 57.3651 5.97796C57.4225 6.03338 57.5013 6.06562 57.5843 6.06764C57.6243 6.07117 57.6646 6.06726 57.703 6.05616C57.7413 6.04506 57.7768 6.02699 57.8074 6.003C57.8381 5.97902 57.8632 5.94961 57.8813 5.91652C57.8995 5.88343 57.9103 5.84731 57.9131 5.81031C57.9139 5.73356 57.8824 5.65952 57.8252 5.60383C57.768 5.54813 57.6896 5.51514 57.6066 5.5118C57.5257 5.50612 57.4457 5.53029 57.3841 5.57901C57.3225 5.62772 57.2843 5.69702 57.2779 5.77171Z" fill="#263238"/>
<path d="M57.3226 5.25195C57.3616 5.29055 57.6012 5.12586 57.9466 5.12586C58.2921 5.12586 58.5373 5.28541 58.5735 5.24681C58.6097 5.20821 58.554 5.15931 58.4425 5.08726C58.2958 4.99199 58.1204 4.94159 57.9411 4.94315C57.7631 4.94202 57.5893 4.99341 57.4452 5.08983C57.3226 5.16446 57.2919 5.23394 57.3226 5.25195Z" fill="#263238"/>
<path d="M56.0717 7.59381C55.8908 7.54166 55.7037 7.51054 55.5145 7.50117C55.4281 7.50117 55.3445 7.47544 55.3306 7.4214C55.3214 7.33787 55.342 7.25385 55.3891 7.18208L55.651 6.56963C55.8912 6.04986 56.085 5.51282 56.2305 4.96387C55.9476 5.46487 55.7073 5.98539 55.5117 6.52073L55.2665 7.13833C55.2108 7.23538 55.1941 7.34749 55.2192 7.45486C55.232 7.48347 55.2517 7.50901 55.2768 7.52953C55.3019 7.55004 55.3317 7.56499 55.364 7.57323C55.4123 7.58473 55.4619 7.59078 55.5117 7.59124C55.6975 7.61384 55.8856 7.61471 56.0717 7.59381Z" fill="#263238"/>
<path d="M57.0774 7.81255C57.0217 7.81255 57.0217 8.15223 56.7041 8.39412C56.3865 8.63601 55.9909 8.59999 55.9881 8.65145C55.9853 8.70292 56.0773 8.71579 56.2444 8.72094C56.4615 8.72323 56.6726 8.65491 56.8406 8.52794C56.9982 8.40422 57.0981 8.22906 57.1192 8.039C57.1443 7.90776 57.1025 7.80998 57.0774 7.81255Z" fill="#263238"/>
<path d="M57.225 4.01435C57.2585 4.09927 57.5984 4.06067 57.9995 4.10441C58.4007 4.14816 58.7267 4.2511 58.7796 4.1739C58.8325 4.0967 58.7462 4.05552 58.6152 3.97318C58.4411 3.8706 58.2437 3.80635 58.0385 3.78538C57.8332 3.76441 57.6254 3.78728 57.4312 3.85223C57.2835 3.90627 57.2083 3.97317 57.225 4.01435Z" fill="#263238"/>
<path d="M54.08 4.27932C54.1385 4.35138 54.3753 4.27932 54.6567 4.27932C54.9381 4.27932 55.1805 4.32564 55.2362 4.25102C55.2919 4.17639 55.2222 4.14294 55.1164 4.07603C54.9769 3.99158 54.8121 3.95013 54.6456 3.95766C54.4799 3.96087 54.3194 4.01119 54.1859 4.10177C54.0856 4.17125 54.0521 4.2433 54.08 4.27932Z" fill="#263238"/>
<path d="M60.9306 6.33275C60.9696 6.31731 62.46 5.9133 62.4099 7.31834C62.3597 8.72338 60.847 8.38884 60.8442 8.34767C60.8414 8.3065 60.9306 6.33275 60.9306 6.33275Z" fill="#FFBE9D"/>
<path d="M61.3293 7.83049C61.3293 7.83049 61.3544 7.84851 61.399 7.86909C61.4627 7.89144 61.533 7.89144 61.5968 7.86909C61.6964 7.81445 61.7786 7.73634 61.8349 7.64275C61.8912 7.54916 61.9196 7.44345 61.9171 7.33641C61.9252 7.21615 61.9043 7.09574 61.8559 6.98387C61.8432 6.93938 61.8192 6.89837 61.7857 6.86432C61.7522 6.83027 61.7103 6.80419 61.6636 6.78829C61.6332 6.78036 61.6007 6.78245 61.5718 6.79418C61.5428 6.80591 61.5191 6.82657 61.5048 6.85262C61.4825 6.89122 61.4909 6.91953 61.4825 6.9221C61.4742 6.92468 61.4519 6.89637 61.4658 6.83976C61.4752 6.80445 61.4979 6.7734 61.5299 6.75226C61.5511 6.73841 61.5751 6.72856 61.6004 6.72326C61.6257 6.71796 61.652 6.71732 61.6776 6.72138C61.7416 6.73292 61.8011 6.75998 61.85 6.79977C61.899 6.83956 61.9356 6.89067 61.9562 6.94784C62.0172 7.07106 62.044 7.20637 62.0342 7.34156C62.038 7.46675 62.0013 7.59015 61.9288 7.69602C61.8564 7.80189 61.7515 7.88544 61.6274 7.936C61.5865 7.94599 61.5437 7.94725 61.5021 7.93967C61.4606 7.93209 61.4215 7.91587 61.3878 7.89225C61.3293 7.86395 61.3237 7.83306 61.3293 7.83049Z" fill="#EB996E"/>
<path d="M61.7803 6.28386C61.6356 6.2752 61.4911 6.30292 61.362 6.3641C61.233 6.42527 61.1244 6.51759 61.0476 6.63126C60.9501 6.83198 60.9278 7.05843 60.8303 7.25915C60.7882 7.36231 60.7113 7.45025 60.611 7.51002C60.5107 7.56978 60.3923 7.59821 60.2731 7.59111C60.1941 7.56824 60.1231 7.52641 60.0673 7.4699C60.0115 7.41339 59.9729 7.34422 59.9555 7.26945C59.9235 7.11993 59.9235 6.96605 59.9555 6.81654C60.0447 6.16034 60.1923 5.51186 60.2202 4.85051C60.2797 4.18699 60.1236 3.52216 59.7717 2.9411C59.5933 2.65326 59.3338 2.41541 59.0209 2.25276C58.708 2.09011 58.3532 2.00874 57.9942 2.01727C57.5206 2.0533 57.0888 2.2746 56.618 2.34151C56.3385 2.37531 56.0543 2.35002 55.7869 2.26755C55.5196 2.18508 55.276 2.04759 55.0746 1.86545C54.9857 1.79633 54.8927 1.7319 54.796 1.67245C54.802 1.5171 54.8572 1.3668 54.9548 1.24012C55.8881 0.442391 57.5652 0.210793 58.7966 0.506727C59.422 0.649086 60.0064 0.915487 60.5091 1.28743C61.0119 1.65938 61.4209 2.12795 61.7079 2.66061C62.2372 3.72597 62.0812 5.20563 61.7887 6.28386" fill="#263238"/>
<path d="M53.545 2.81505C53.545 2.81505 59.3788 1.08062 61.9029 5.7435C62.0976 5.15708 62.2246 4.55328 62.2817 3.94217C62.2817 3.52529 62.0031 1.03687 59.2395 0.254579C59.2395 0.264872 55.0633 -1.20707 53.545 2.81505Z" fill="#F7A74B"/>
<path d="M58.5595 2.9308C58.4559 3.08554 58.3148 3.21591 58.1472 3.31159C57.9797 3.40728 57.7903 3.46566 57.5941 3.48214C57.398 3.49861 57.2003 3.47272 57.0169 3.40651C56.8334 3.3403 56.6691 3.23559 56.5369 3.10064C56.4794 3.23465 56.3778 3.34861 56.2464 3.42652C56.1151 3.50443 55.9606 3.54235 55.8047 3.53497C55.6489 3.52758 55.4994 3.47526 55.3774 3.38535C55.2554 3.29545 55.1669 3.17248 55.1245 3.03373C54.9687 3.19503 54.7792 3.32547 54.5673 3.41716C54.4581 3.46004 54.3373 3.47094 54.2213 3.44839C54.1052 3.42584 53.9994 3.37093 53.9182 3.29107C53.8517 3.19786 53.8198 3.08722 53.8273 2.97582C53.8349 2.86442 53.8814 2.7583 53.9599 2.67347C54.1179 2.50449 54.3218 2.37747 54.5506 2.30548C55.2418 2.02488 56.0012 1.91834 56.7515 1.99668C57.5056 2.08036 58.1964 2.4275 58.6821 2.96683" fill="#263238"/>
<g opacity="0.4">
<path d="M53.545 2.81503C54.0315 2.34489 54.6969 2.06803 55.4004 2.04303C57.1222 1.97355 60.3427 2.86649 61.9029 5.74863C62.0976 5.16221 62.2246 4.5584 62.2817 3.94729C62.2817 3.53041 62.0031 1.042 59.2395 0.259707C59.2395 0.264854 55.0633 -1.20709 53.545 2.81503Z" fill="black"/>
</g>
<path d="M61.6602 5.19796C60.7755 3.98108 59.616 2.95567 58.2613 2.19231C56.9185 1.42031 54.7008 0.648312 53.1741 0.277752C52.7212 0.139483 52.2414 0.0929657 51.7672 0.141365C51.531 0.168986 51.308 0.257495 51.1237 0.396759C50.9395 0.536023 50.8014 0.720412 50.7253 0.928805C50.5804 1.46148 51.6029 2.28238 52.0848 2.60404C52.5552 2.89455 53.0426 3.16087 53.5447 3.40178C53.5447 3.40178 53.5308 2.41362 55.2413 2.21032C57.5676 1.93498 61.6602 5.19796 61.6602 5.19796Z" fill="#F7A74B"/>
<g opacity="0.3">
<path d="M63.7139 22.7095C63.1121 24.0502 62.5048 25.7048 61.6328 26.9117C60.7608 28.1186 59.5962 29.1917 58.1475 29.7424C56.3255 30.4475 54.172 30.5607 52.3611 29.8402C52.2135 29.781 51.9237 29.7064 51.9516 29.5597C51.9516 29.5597 52.5506 29.4954 52.7372 29.467C56.3952 28.9061 56.7936 28.4943 58.5459 27.2077C59.638 26.4125 62.059 24.0013 63.7139 22.7095Z" fill="black"/>
</g>
<path d="M52.0799 32.4727C52.1169 32.5827 52.1684 32.6881 52.2331 32.7866C52.3956 33.065 52.5939 33.3242 52.8238 33.5586C53.5989 34.3093 54.5741 34.8586 55.6515 35.1515C56.7252 35.4339 57.8339 35.587 58.9501 35.607C59.3763 35.6224 59.7218 35.625 59.9586 35.625C60.0823 35.6297 60.2063 35.6245 60.3291 35.6096C60.2085 35.5838 60.0851 35.5709 59.9614 35.571L58.9556 35.5118C57.8515 35.4647 56.7569 35.3006 55.6933 35.0228C54.6344 34.7319 53.671 34.2011 52.8906 33.4788C52.5864 33.168 52.3149 32.8311 52.0799 32.4727Z" fill="#263238"/>
<path d="M36.319 64.575C36.3311 64.5497 36.3386 64.5228 36.3413 64.4952C36.3413 64.436 36.3692 64.3563 36.3915 64.2585C36.4333 64.0423 36.4946 63.7438 36.5698 63.3475C36.723 62.5446 36.9375 61.3995 37.205 59.9868C37.7259 57.1406 38.4447 53.2215 39.2387 48.8931C39.5925 46.9322 39.9296 45.0588 40.2389 43.3476L40.1664 43.4016L48.1649 43.9343L50.4605 44.0784L51.0734 44.1119H51.2294H51.2852H51.2322L51.0734 44.0938L50.4633 44.0424L48.1705 43.8622L40.1776 43.2729H40.1163V43.3296C39.8043 45.0408 39.4616 46.9142 39.105 48.8725C38.3277 53.2034 37.6257 57.1252 37.113 59.9739C36.8679 61.3892 36.6673 62.5472 36.5252 63.3398L36.3748 64.2585C36.358 64.3563 36.3469 64.436 36.3385 64.4952C36.3285 64.521 36.3219 64.5478 36.319 64.575Z" fill="#455A64"/>
<path d="M38.2942 41.5C38.2691 41.5309 38.7567 41.9169 39.3083 42.4367C39.8599 42.9565 40.2722 43.412 40.3057 43.3862C39.7919 42.6297 39.1055 41.9859 38.2942 41.5Z" fill="#455A64"/>
<path d="M55.3724 13.098C55.3724 13.098 55.3557 13.1263 55.339 13.1829C55.3113 13.2667 55.2936 13.3529 55.2861 13.4402C55.2535 13.7578 55.2993 14.078 55.4198 14.3769C55.5999 14.8236 55.9199 15.2107 56.3392 15.4886C56.8625 15.8196 57.4925 15.9758 58.125 15.9312C58.7548 15.8917 59.3583 15.6823 59.8606 15.3291C60.2655 15.0417 60.6013 14.6798 60.8468 14.2663C61.0133 13.9909 61.1406 13.6968 61.2257 13.3913C61.2536 13.2833 61.2731 13.1983 61.2814 13.134C61.2898 13.0697 61.2814 13.0439 61.2814 13.0439C61.1523 13.4498 60.9757 13.8416 60.7549 14.2122C60.5028 14.6046 60.1707 14.948 59.777 15.2236C59.2902 15.5565 58.7099 15.753 58.1055 15.7897C57.5046 15.8323 56.9055 15.6883 56.4032 15.3805C56.0022 15.1186 55.6909 14.7561 55.5062 14.3358C55.3799 14.0511 55.3201 13.7451 55.3307 13.4377C55.3502 13.2215 55.3724 13.1031 55.3724 13.098Z" fill="#263238"/>
<path d="M51.4418 24.3359C51.4736 24.2528 51.4942 24.1664 51.5031 24.0786C51.5338 23.8753 51.57 23.6283 51.6146 23.3426C51.7065 22.6864 51.8263 21.8424 51.9572 20.9082C52.0882 19.9741 52.1829 19.1069 52.2358 18.4687C52.2665 18.1574 52.286 17.9026 52.2971 17.7276C52.3105 17.6371 52.3105 17.5453 52.2971 17.4548C52.268 17.5385 52.2484 17.6247 52.2386 17.7122C52.208 17.9155 52.1718 18.1599 52.13 18.4481C52.0408 19.1043 51.9266 19.9484 51.8012 20.8825C51.6759 21.8166 51.5672 22.6838 51.5003 23.3195C51.4697 23.6334 51.4474 23.8856 51.4335 24.0632C51.4247 24.1541 51.4275 24.2456 51.4418 24.3359Z" fill="#263238"/>
</svg>
