<svg width="25" height="25" viewBox="0 0 25 25" fill="none" xmlns="http://www.w3.org/2000/svg">
<path d="M22.5586 11.7988L21.4844 7.65625C21.0156 5.9375 19.4531 4.6875 17.7344 4.6875H17.1875V3.125C17.1875 2.26221 16.4878 1.5625 15.625 1.5625H9.375C8.51221 1.5625 7.8125 2.26221 7.8125 3.125V4.6875H7.26562C5.54688 4.6875 3.98438 5.9375 3.51562 7.65625L2.44141 11.7988C1.04541 12.1113 0 13.353 0 14.8438V17.1875C0 18.3413 0.632324 19.3379 1.5625 19.8789V21.875C1.5625 22.7378 2.26221 23.4375 3.125 23.4375H4.6875C5.55029 23.4375 6.25 22.7378 6.25 21.875V20.3125H18.75V21.875C18.75 22.7378 19.4497 23.4375 20.3125 23.4375H21.875C22.7378 23.4375 23.4375 22.7378 23.4375 21.875V19.8789C24.3677 19.3374 25 18.3408 25 17.1875V14.8438C25 13.353 23.9546 12.1113 22.5586 11.7988ZM4.6875 17.1875C3.82471 17.1875 3.125 16.4878 3.125 15.625C3.125 14.7622 3.82471 14.0625 4.6875 14.0625C5.55029 14.0625 6.25 14.7622 6.25 15.625C6.25 16.4878 5.55029 17.1875 4.6875 17.1875ZM5.69092 11.7188L6.53076 8.47852C6.63965 8.08008 6.99902 7.8125 7.26611 7.8125H17.7349C18.002 7.8125 18.3613 8.08008 18.46 8.44043L19.3091 11.7188H5.69092ZM20.3125 17.1875C19.4497 17.1875 18.75 16.4878 18.75 15.625C18.75 14.7622 19.4497 14.0625 20.3125 14.0625C21.1753 14.0625 21.875 14.7622 21.875 15.625C21.875 16.4878 21.1753 17.1875 20.3125 17.1875Z" fill="black"/>
</svg>
