<svg width="25" height="42" viewBox="0 0 25 42" fill="none" xmlns="http://www.w3.org/2000/svg">
<path d="M11.9053 2.24536C11.1541 2.59887 9.84015 2.75769 9.22197 3.3108C8.82711 3.6641 8.61978 4.18913 8.17626 4.53409C7.25698 5.24908 6.84346 6.24176 6.04538 7.03984C4.40878 8.67644 3.80271 10.8691 2.94771 12.8998C2.46034 14.0573 2.31634 15.3346 2.31634 16.5893C2.31634 17.4088 1.74424 18.4047 2.13876 19.1148C3.16114 20.9551 3.82085 21.8263 5.43374 23.2779C7.16979 24.8404 11.91 25.5904 13.6021 23.4752C14.2915 22.6135 14.3913 19.8655 14.3913 18.7597C14.3913 17.0832 12.5596 16.8064 11.195 16.8064C4.99095 16.8064 4.34608 23.989 6.22295 28.3684C8.10348 32.7563 12.7353 36.3395 17.5679 36.3395C18.1813 36.3395 23.27 36.6362 23.27 36.3395C23.27 35.3529 21.8628 33.7544 21.3167 32.9656C20.482 31.7599 19.7282 30.6938 19.0082 29.4338C18.4237 28.4109 18.9676 30.0355 19.0872 30.3809C19.3313 31.0861 20.5097 33.0259 21.1391 33.4194C22.2655 34.1233 22.8754 36.3177 22.8754 37.5627C22.8754 37.7226 19.7353 38.3009 19.3634 38.3914C17.8426 38.7613 16.0588 39.3712 14.7465 40.2461" stroke="#F7A74B" stroke-width="3" stroke-linecap="round"/>
</svg>
