<svg width="312" height="174" viewBox="0 0 312 174" fill="none" xmlns="http://www.w3.org/2000/svg">
<rect y="11" width="312" height="155" rx="20" fill="#A673E7"/>
<path d="M150.905 63.9396C151.251 63.9396 151.6 63.9722 151.953 64.0376C152.305 64.0963 152.661 64.1747 153.021 64.2727L152.002 68.1518C151.558 67.982 151.094 67.8971 150.611 67.8971C150.225 67.8971 149.85 67.9722 149.484 68.1224C149.125 68.2661 148.812 68.5143 148.544 68.8669C148.276 69.2131 148.083 69.6833 147.966 70.2776C148.567 70.4408 149.099 70.5845 149.563 70.7086C150.333 70.9045 150.937 71.0743 151.375 71.218C151.923 71.4008 152.315 71.6914 152.55 72.0898C152.785 72.4882 152.903 72.9649 152.903 73.52V73.5592C152.89 74.6498 152.75 75.5673 152.482 76.3118C152.221 77.0629 151.871 77.6702 151.434 78.1339C151.003 78.6041 150.526 78.9633 150.003 79.2114C149.481 79.4596 148.955 79.6261 148.426 79.711C147.897 79.8024 147.411 79.8482 146.967 79.8482H143.969C142.865 79.8482 141.912 79.649 141.109 79.2506C140.305 78.8522 139.643 78.3298 139.12 77.6833C138.604 77.0367 138.219 76.3249 137.964 75.5478C137.716 74.7771 137.592 74.0196 137.592 73.2751C137.592 72.0539 137.739 70.9535 138.033 69.9739C138.327 68.9878 138.709 68.031 139.179 67.1037L142.774 68.8669C142.421 69.5788 142.137 70.2678 141.922 70.9339C141.706 71.6 141.598 72.2498 141.598 72.8833C141.598 73.582 141.71 74.111 141.932 74.4702C142.154 74.8359 142.447 75.0808 142.813 75.2049C143.179 75.3355 143.574 75.4008 143.998 75.4008H146.996C147.525 75.4008 147.93 75.342 148.211 75.2245C148.498 75.1135 148.697 74.9829 148.808 74.8327C148.926 74.6824 148.985 74.5453 148.985 74.4212C148.939 74.4082 148.694 74.3429 148.25 74.2253C147.812 74.1078 147.31 73.9739 146.741 73.8237C146.18 73.6735 145.68 73.5396 145.243 73.422C144.805 73.3045 144.586 73.2457 144.586 73.2457C144.586 73.2457 144.554 73.1184 144.488 72.8637C144.423 72.6024 144.354 72.2596 144.283 71.8351C144.217 71.4041 144.185 70.9339 144.185 70.4245C144.185 69.8759 144.247 69.3143 144.371 68.7396C144.43 68.4653 144.547 68.129 144.723 67.7306C144.906 67.3322 145.158 66.9143 145.478 66.4767C145.798 66.0392 146.206 65.631 146.702 65.2522C147.198 64.8669 147.793 64.5535 148.485 64.3118C149.177 64.0637 149.984 63.9396 150.905 63.9396ZM160.014 70.1306V74.6171H159.142C158.568 74.6171 158.062 74.5518 157.624 74.4212C157.193 74.2906 156.824 74.1273 156.517 73.9314C156.21 73.7355 155.959 73.5396 155.763 73.3437C155.56 73.1478 155.361 72.8963 155.165 72.5894C154.976 72.2824 154.813 71.9135 154.676 71.4824C154.545 71.0449 154.48 70.5388 154.48 69.9641C154.48 69.4286 154.48 68.5437 154.48 67.3094C154.48 66.0751 154.48 64.8343 154.48 63.5869C154.486 62.3331 154.489 61.3567 154.489 60.658C154.489 60.2465 154.489 60.0343 154.489 60.0212H158.496V69.5037C158.496 69.7322 158.571 69.8955 158.721 69.9935C158.871 70.0849 159.005 70.1306 159.123 70.1306H160.014ZM174.168 65.5559C175.369 66.7641 176.143 67.8776 176.489 68.8963C176.685 69.4841 176.783 70.0294 176.783 70.5322C176.783 70.898 176.731 71.2441 176.626 71.5706C176.476 72.0996 176.186 72.6122 175.755 73.1086C175.324 73.5984 174.71 73.9902 173.913 74.2841C173.24 74.5388 172.408 74.6661 171.415 74.6661C171.239 74.6661 171.059 74.6629 170.876 74.6563C169.257 74.5584 168.003 74.4441 167.115 74.3135L165.782 74.1273C165.129 74.3037 164.47 74.4278 163.804 74.4996C163.137 74.578 162.439 74.6171 161.707 74.6171H159.562L159.572 70.1306H160.796C160.698 69.7192 160.646 69.2914 160.639 68.8473C160.639 67.3976 161.119 66.1437 162.079 65.0857C163.059 64.0278 164.293 63.4988 165.782 63.4988C166.899 63.4988 167.879 63.8057 168.721 64.4196L170.808 62.3233C170.827 62.3363 171.007 62.5061 171.346 62.8327C171.686 63.1592 172.11 63.5706 172.62 64.0669C173.129 64.5567 173.645 65.0531 174.168 65.5559ZM165.782 70.0424C165.821 70.0359 165.91 70.0098 166.047 69.9641C166.184 69.9118 166.334 69.8367 166.497 69.7388C166.661 69.6343 166.801 69.5004 166.919 69.3371C167.043 69.1739 167.105 68.9714 167.105 68.7298C167.105 68.6449 167.088 68.5241 167.056 68.3673C167.023 68.2106 166.958 68.0506 166.86 67.8873C166.768 67.7241 166.635 67.5837 166.458 67.4661C166.288 67.3486 166.063 67.2898 165.782 67.2898C165.495 67.2898 165.263 67.3486 165.087 67.4661C164.917 67.5837 164.786 67.7241 164.695 67.8873C164.604 68.0506 164.541 68.2106 164.509 68.3673C164.476 68.5241 164.46 68.6449 164.46 68.7298C164.46 68.978 164.519 69.1869 164.636 69.3567C164.754 69.52 164.894 69.6506 165.057 69.7486C165.221 69.8465 165.371 69.9184 165.508 69.9641C165.645 70.0098 165.737 70.0359 165.782 70.0424ZM172.639 69.9151C172.646 69.8955 172.649 69.8792 172.649 69.8661C172.649 69.7486 172.568 69.5886 172.404 69.3861C172.248 69.1837 172.045 68.9714 171.797 68.7494C171.555 68.5273 171.337 68.338 171.141 68.1812L170.847 67.9461C170.893 68.24 170.915 68.5404 170.915 68.8473C170.915 69.298 170.866 69.729 170.768 70.1404L170.729 70.258C171.004 70.3494 171.268 70.3951 171.523 70.3951C171.66 70.3951 171.856 70.3722 172.11 70.3265C172.372 70.2808 172.548 70.1437 172.639 69.9151ZM183.093 69.7388C183.231 69.7388 183.358 69.7224 183.476 69.6898C183.593 69.6506 183.688 69.6114 183.76 69.5722C183.982 69.4482 184.135 69.2947 184.22 69.1118C184.311 68.929 184.357 68.7298 184.357 68.5143C184.357 68.3314 184.334 68.1388 184.289 67.9363C184.249 67.7339 184.204 67.5347 184.151 67.3388C184.119 67.2212 184.089 67.1069 184.063 66.9959C183.534 67.218 183.149 67.3878 182.907 67.5053C182.672 67.6229 182.506 67.7339 182.408 67.8384C182.147 68.1127 182.016 68.3935 182.016 68.6808C182.016 68.942 182.111 69.1804 182.3 69.3959C182.418 69.52 182.545 69.6082 182.682 69.6604C182.819 69.7127 182.956 69.7388 183.093 69.7388ZM186.914 61.9216C187.247 63.3453 187.511 64.4914 187.707 65.36C187.753 65.569 187.796 65.7649 187.835 65.9478C187.959 66.529 188.076 67.0547 188.187 67.5249C188.298 67.9886 188.432 68.5306 188.589 69.151C188.635 69.3665 188.713 69.5461 188.824 69.6898C188.935 69.8335 189.134 69.9445 189.422 70.0229C189.716 70.0947 190.166 70.1306 190.773 70.1306H191.351V74.6073H190.773C190.042 74.6073 189.409 74.542 188.873 74.4114C188.344 74.2873 187.897 74.1339 187.531 73.951C187.165 73.7616 186.868 73.5722 186.64 73.3829C186.418 73.1935 186.251 73.0302 186.14 72.8931C185.624 73.1804 185.115 73.3731 184.612 73.471C184.109 73.5624 183.577 73.6082 183.015 73.6082C182.382 73.6082 181.755 73.4873 181.134 73.2457C180.52 72.9976 179.978 72.5894 179.508 72.0212C179.044 71.4531 178.708 70.6857 178.499 69.7192C178.421 69.3404 178.382 68.9518 178.382 68.5535C178.382 68.0637 178.457 67.5673 178.607 67.0645C178.757 66.5616 179.012 66.0784 179.371 65.6147C179.73 65.1445 180.217 64.72 180.831 64.3412C181.444 63.9559 182.209 63.6327 183.123 63.3714L182.996 62.8131L186.914 61.9216ZM195.459 63.1069L193.303 65.2522L191.158 63.1069L193.303 60.9518L195.459 63.1069ZM200.053 63.1069L197.898 65.2522L195.752 63.1069L197.898 60.9518L200.053 63.1069ZM198.642 67.0155V69.6604C198.642 69.8237 198.678 69.9445 198.75 70.0229C198.822 70.0947 199.001 70.1306 199.289 70.1306H200.807V74.5976H199.367C198.871 74.5976 198.391 74.5257 197.927 74.382C197.463 74.2384 197.036 74.0424 196.644 73.7943C196.265 74.0947 195.841 74.3037 195.37 74.4212C194.907 74.5388 194.306 74.5976 193.568 74.5976H190.286V70.1306H193.852C194.172 70.1306 194.381 70.098 194.479 70.0327C194.577 69.9608 194.626 69.8367 194.626 69.6604V67.0155H198.642ZM211.573 70.1306H212.768V74.6073H210.652C209.921 74.6073 209.248 74.5682 208.634 74.4898C208.02 74.418 207.338 74.2939 206.587 74.1176C205.934 74.2939 205.274 74.418 204.608 74.4898C203.949 74.5682 203.25 74.6073 202.512 74.6073H200.367V70.1306H201.591C201.493 69.7192 201.444 69.2882 201.444 68.8376C201.444 67.3878 201.924 66.1339 202.884 65.0759C203.864 64.018 205.098 63.489 206.587 63.489C208.069 63.489 209.3 64.018 210.28 65.0759C211.24 66.1339 211.72 67.3878 211.72 68.8376C211.72 69.2882 211.671 69.7192 211.573 70.1306ZM206.587 70.0327C206.633 70.0261 206.721 70 206.851 69.9543C206.989 69.902 207.139 69.8269 207.302 69.729C207.465 69.631 207.606 69.5004 207.723 69.3371C207.847 69.1673 207.909 68.9616 207.909 68.72C207.909 68.6416 207.893 68.5241 207.86 68.3673C207.828 68.2041 207.763 68.0408 207.665 67.8776C207.573 67.7143 207.439 67.5739 207.263 67.4563C207.093 67.3388 206.868 67.28 206.587 67.28C206.306 67.28 206.078 67.3388 205.901 67.4563C205.725 67.5739 205.591 67.7143 205.5 67.8776C205.408 68.0408 205.346 68.2041 205.314 68.3673C205.281 68.5241 205.265 68.6416 205.265 68.72C205.265 68.9682 205.323 69.1771 205.441 69.3469C205.565 69.5102 205.705 69.6408 205.862 69.7388C206.025 69.8367 206.176 69.9086 206.313 69.9543C206.45 70 206.541 70.0261 206.587 70.0327ZM208.869 60.0702L206.577 62.3527L204.295 60.0702L206.577 57.778L208.869 60.0702ZM226.949 65.5559C228.15 66.7641 228.924 67.8776 229.27 68.8963C229.466 69.4841 229.564 70.0294 229.564 70.5322C229.564 70.898 229.512 71.2441 229.408 71.5706C229.257 72.0996 228.967 72.6122 228.536 73.1086C228.105 73.5984 227.491 73.9902 226.694 74.2841C226.022 74.5388 225.189 74.6661 224.196 74.6661C224.02 74.6661 223.84 74.6629 223.657 74.6563C222.038 74.5584 220.784 74.4441 219.896 74.3135L218.564 74.1273C217.91 74.3037 217.251 74.4278 216.585 74.4996C215.919 74.578 215.22 74.6171 214.488 74.6171H212.343L212.353 70.1306H213.577C213.479 69.7192 213.427 69.2914 213.421 68.8473C213.421 67.3976 213.901 66.1437 214.861 65.0857C215.84 64.0278 217.075 63.4988 218.564 63.4988C219.68 63.4988 220.66 63.8057 221.502 64.4196L223.589 62.3233C223.608 62.3363 223.788 62.5061 224.128 62.8327C224.467 63.1592 224.892 63.5706 225.401 64.0669C225.91 64.5567 226.426 65.0531 226.949 65.5559ZM218.564 70.0424C218.603 70.0359 218.691 70.0098 218.828 69.9641C218.965 69.9118 219.115 69.8367 219.279 69.7388C219.442 69.6343 219.582 69.5004 219.7 69.3371C219.824 69.1739 219.886 68.9714 219.886 68.7298C219.886 68.6449 219.87 68.5241 219.837 68.3673C219.804 68.2106 219.739 68.0506 219.641 67.8873C219.55 67.7241 219.416 67.5837 219.239 67.4661C219.07 67.3486 218.844 67.2898 218.564 67.2898C218.276 67.2898 218.044 67.3486 217.868 67.4661C217.698 67.5837 217.568 67.7241 217.476 67.8873C217.385 68.0506 217.323 68.2106 217.29 68.3673C217.257 68.5241 217.241 68.6449 217.241 68.7298C217.241 68.978 217.3 69.1869 217.417 69.3567C217.535 69.52 217.675 69.6506 217.839 69.7486C218.002 69.8465 218.152 69.9184 218.289 69.9641C218.426 70.0098 218.518 70.0359 218.564 70.0424ZM225.421 69.9151C225.427 69.8955 225.43 69.8792 225.43 69.8661C225.43 69.7486 225.349 69.5886 225.186 69.3861C225.029 69.1837 224.826 68.9714 224.578 68.7494C224.337 68.5273 224.118 68.338 223.922 68.1812L223.628 67.9461C223.674 68.24 223.697 68.5404 223.697 68.8473C223.697 69.298 223.648 69.729 223.55 70.1404L223.51 70.258C223.785 70.3494 224.049 70.3951 224.304 70.3951C224.441 70.3951 224.637 70.3722 224.892 70.3265C225.153 70.2808 225.329 70.1437 225.421 69.9151ZM245.849 70.1306H246.202V74.6073H245.751C245.451 74.6073 245.16 74.5747 244.88 74.5094C244.769 74.9535 244.595 75.4792 244.36 76.0865C244.132 76.6939 243.809 77.2588 243.391 77.7812C242.77 78.4931 241.993 79.022 241.059 79.3682C240.177 79.7012 239.182 79.8678 238.071 79.8678H237.102V75.4008H238.071C239.182 75.4008 239.952 75.1624 240.383 74.6857C240.638 74.3722 240.804 73.9869 240.883 73.5298C240.968 73.0727 241.01 72.6547 241.01 72.2759V67.0155H245.026V69.3567C245.026 69.5592 245.095 69.7388 245.232 69.8955C245.376 70.0522 245.582 70.1306 245.849 70.1306ZM250.81 64.4686C251.176 64.4686 251.532 64.5208 251.878 64.6253C253.406 65.0824 254.849 65.5363 256.207 65.9869C257.572 66.4376 258.565 66.7706 259.185 66.9861C259.447 67.071 259.594 67.12 259.626 67.1331L260.126 71.1298C259.081 71.8678 258.026 72.4947 256.962 73.0106C255.897 73.5265 254.519 73.9216 252.828 74.1959C251.143 74.4702 248.776 74.6073 245.726 74.6073L245.716 70.1306C247.747 70.1306 249.667 70.0947 251.476 70.0229C253.292 69.951 254.653 69.7747 255.561 69.4939C255.561 69.4939 255.31 69.4155 254.807 69.2588C254.31 69.102 253.736 68.9257 253.083 68.7298C252.436 68.5273 251.858 68.351 251.349 68.2008C251.27 68.1812 251.195 68.1714 251.123 68.1714C250.941 68.1714 250.797 68.2563 250.692 68.4261C250.594 68.5894 250.49 68.8245 250.379 69.1314L246.637 68.1714C247.035 66.6955 247.796 65.631 248.919 64.978C249.533 64.6384 250.163 64.4686 250.81 64.4686ZM252.603 61.138L250.31 63.4204L248.028 61.138L250.31 58.8457L252.603 61.138ZM266.914 61.4612V74.6073H262.897V61.4612H266.914ZM269 57.2392V60.0506H263.936C263.544 60.0506 263.247 60.1061 263.044 60.2171C262.848 60.3216 262.705 60.4522 262.613 60.609C262.528 60.7657 262.466 60.929 262.427 61.0988L259.724 60.3347C259.835 59.9167 259.988 59.5086 260.184 59.1102C260.38 58.7118 260.664 58.3559 261.036 58.0424C261.657 57.5069 262.623 57.2392 263.936 57.2392H269ZM105.827 105.143L109.422 106.877C108.704 108.366 108.345 109.639 108.345 110.697C108.345 111.546 108.57 112.209 109.021 112.686C109.471 113.169 110.144 113.411 111.039 113.411H113.644C114.141 113.411 114.559 113.394 114.898 113.362C115.238 113.329 115.519 113.287 115.741 113.234C115.963 113.189 116.132 113.14 116.25 113.087C116.374 113.042 116.459 113.002 116.505 112.97C116.55 112.937 116.573 112.921 116.573 112.921C116.188 112.738 115.75 112.598 115.261 112.5C114.777 112.402 114.252 112.317 113.683 112.245C113.488 112.219 113.288 112.189 113.086 112.157V108.14H122.039V112.607H120.247C120.279 112.797 120.296 112.986 120.296 113.176C120.296 114.044 120.136 114.762 119.816 115.331C119.502 115.899 119.091 116.353 118.581 116.692C118.072 117.032 117.52 117.283 116.926 117.447C116.332 117.616 115.744 117.724 115.163 117.77C114.588 117.822 114.082 117.848 113.644 117.848H111.039C109.863 117.848 108.851 117.642 108.002 117.231C107.153 116.82 106.454 116.271 105.906 115.585C105.357 114.906 104.952 114.142 104.691 113.293C104.43 112.444 104.299 111.579 104.299 110.697C104.299 109.907 104.43 109.012 104.691 108.013C104.959 107.014 105.337 106.057 105.827 105.143ZM138.434 105.016V107.337C138.434 107.605 138.519 107.804 138.689 107.935C138.865 108.065 139.162 108.131 139.58 108.131H140.521V112.607C139.522 112.607 138.78 112.591 138.297 112.558C137.82 112.526 137.458 112.447 137.21 112.323C136.962 112.206 136.713 112.016 136.465 111.755C136.015 112.095 135.411 112.353 134.653 112.529C134.411 112.575 134.153 112.601 133.879 112.607H133.84C132.475 112.594 131.541 112.31 131.038 111.755C130.64 112.023 130.242 112.232 129.843 112.382C129.445 112.532 128.998 112.607 128.501 112.607C127.809 112.607 127.241 112.522 126.797 112.353C126.359 112.189 125.977 111.99 125.651 111.755C125.592 111.814 125.536 111.869 125.484 111.922C125.301 112.131 125.112 112.284 124.916 112.382C124.72 112.48 124.384 112.542 123.907 112.568C123.43 112.594 122.646 112.607 121.556 112.607V108.131H122.545C122.97 108.131 123.267 108.062 123.437 107.925C123.606 107.788 123.691 107.585 123.691 107.318V105.016H127.708V107.337C127.708 107.579 127.763 107.778 127.874 107.935C127.985 108.091 128.145 108.173 128.354 108.18C128.857 108.18 129.099 107.899 129.079 107.337V105.016H133.086V107.337C133.086 107.579 133.154 107.778 133.291 107.935C133.429 108.091 133.602 108.17 133.811 108.17C134.02 108.17 134.173 108.091 134.271 107.935C134.369 107.778 134.418 107.579 134.418 107.337V105.016H138.434ZM149.311 106.23C149.775 106.851 150.144 107.298 150.418 107.572C150.692 107.84 150.983 108 151.29 108.052C151.597 108.104 152.051 108.131 152.652 108.131V112.617C151.914 112.617 151.231 112.568 150.604 112.47C149.984 112.372 149.393 112.167 148.831 111.853C148.439 111.624 148.074 111.35 147.734 111.03C147.375 111.409 146.944 111.732 146.441 112C145.625 112.411 144.75 112.617 143.816 112.617H140.025V108.131H143.522C143.803 108.131 144.093 108.114 144.394 108.082C144.694 108.049 144.952 108.01 145.167 107.964C145.383 107.912 145.507 107.856 145.54 107.798C145.54 107.798 145.416 107.631 145.167 107.298C144.926 106.958 144.642 106.573 144.315 106.142L141.964 103.311L142.66 100.264L151.133 96.16L152.877 99.7649L146.666 102.782C146.738 102.867 146.914 103.096 147.195 103.468C147.483 103.833 147.816 104.268 148.194 104.771C148.58 105.267 148.952 105.753 149.311 106.23ZM158.689 103.683C158.689 103.683 158.744 103.984 158.856 104.584C158.967 105.179 159.094 105.871 159.238 106.661C159.336 107.171 159.384 107.641 159.384 108.072C159.384 108.294 159.371 108.506 159.345 108.709C159.293 109.107 159.195 109.522 159.051 109.953C158.914 110.377 158.731 110.73 158.503 111.011C158.046 111.605 157.442 112.046 156.691 112.333C156.136 112.509 155.479 112.598 154.722 112.598H152.282V108.131H154.722C154.963 108.131 155.127 108.101 155.211 108.042C155.296 107.977 155.339 107.879 155.339 107.749C155.339 107.651 155.326 107.536 155.3 107.406C154.973 105.708 154.81 104.859 154.81 104.859L158.689 103.683ZM157.768 115.624L155.476 117.907L153.193 115.624L155.476 113.332L157.768 115.624ZM173.245 108.131V112.617H172.373C171.798 112.617 171.292 112.552 170.855 112.421C170.424 112.291 170.055 112.127 169.748 111.931C169.441 111.736 169.189 111.54 168.993 111.344C168.791 111.148 168.592 110.896 168.396 110.589C168.206 110.282 168.043 109.913 167.906 109.482C167.775 109.045 167.71 108.539 167.71 107.964C167.71 107.429 167.71 106.544 167.71 105.309C167.71 104.075 167.71 102.834 167.71 101.587C167.717 100.333 167.72 99.3567 167.72 98.658C167.72 98.2465 167.72 98.0343 167.72 98.0212H171.726V107.504C171.726 107.732 171.801 107.896 171.952 107.993C172.102 108.085 172.236 108.131 172.353 108.131H173.245ZM179.15 103.683C179.15 103.683 179.205 103.984 179.316 104.584C179.427 105.179 179.555 105.871 179.698 106.661C179.796 107.171 179.845 107.641 179.845 108.072C179.845 108.294 179.832 108.506 179.806 108.709C179.754 109.107 179.656 109.522 179.512 109.953C179.375 110.377 179.192 110.73 178.964 111.011C178.507 111.605 177.903 112.046 177.152 112.333C176.596 112.509 175.94 112.598 175.183 112.598H172.743V108.131H175.183C175.424 108.131 175.587 108.101 175.672 108.042C175.757 107.977 175.8 107.879 175.8 107.749C175.8 107.651 175.787 107.536 175.761 107.406C175.434 105.708 175.271 104.859 175.271 104.859L179.15 103.683ZM178.229 115.624L175.937 117.907L173.654 115.624L175.937 113.332L178.229 115.624Z" fill="white"/>
<path d="M193.922 101.714L199.315 104.315C198.237 106.549 197.699 108.459 197.699 110.046C197.699 111.319 198.037 112.313 198.713 113.029C199.389 113.753 200.397 114.116 201.74 114.116H205.648C206.393 114.116 207.02 114.091 207.529 114.042C208.038 113.993 208.46 113.93 208.793 113.851C209.126 113.783 209.38 113.709 209.557 113.631C209.743 113.562 209.87 113.504 209.939 113.455C210.007 113.406 210.042 113.381 210.042 113.381C209.464 113.107 208.807 112.896 208.073 112.749C207.348 112.602 206.559 112.475 205.707 112.367C205.413 112.328 205.114 112.284 204.811 112.235V106.211H218.241V112.911H215.552C215.601 113.195 215.625 113.479 215.625 113.763C215.625 115.066 215.385 116.144 214.905 116.996C214.435 117.848 213.818 118.529 213.054 119.038C212.29 119.548 211.462 119.925 210.571 120.17C209.679 120.424 208.797 120.586 207.926 120.655C207.064 120.733 206.304 120.772 205.648 120.772H201.74C199.976 120.772 198.458 120.464 197.184 119.847C195.911 119.229 194.863 118.407 194.04 117.378C193.217 116.359 192.61 115.213 192.218 113.94C191.826 112.666 191.63 111.368 191.63 110.046C191.63 108.86 191.826 107.518 192.218 106.02C192.62 104.521 193.188 103.086 193.922 101.714ZM226.597 99.5249C226.597 99.5249 226.68 99.9755 226.846 100.877C227.013 101.768 227.204 102.807 227.419 103.992C227.566 104.756 227.64 105.461 227.64 106.108C227.64 106.441 227.62 106.759 227.581 107.063C227.503 107.66 227.356 108.282 227.14 108.929C226.935 109.566 226.66 110.095 226.317 110.516C225.632 111.407 224.726 112.069 223.599 112.5C222.766 112.764 221.782 112.896 220.646 112.896H214.122V106.196H220.646C221.008 106.196 221.253 106.152 221.38 106.064C221.508 105.966 221.571 105.819 221.571 105.623C221.571 105.476 221.552 105.304 221.513 105.109C221.023 102.562 220.778 101.288 220.778 101.288L226.597 99.5249ZM218.544 114.527L221.777 117.745L218.544 120.978L215.326 117.745L218.544 114.527ZM225.436 114.527L228.668 117.745L225.436 120.978L222.218 117.745L225.436 114.527ZM236.17 91.2376L237.169 104.565L231.174 105.02L230.175 91.6784L236.17 91.2376ZM246.764 91.0171V104.521C246.764 105.099 246.843 105.525 247 105.799C247.156 106.064 247.514 106.196 248.072 106.196H248.542V112.926H248.072C246.975 112.926 245.961 112.735 245.031 112.353C244.364 112.069 243.767 111.701 243.238 111.251C242.778 111.574 242.273 111.848 241.724 112.073C240.373 112.642 238.688 112.926 236.67 112.926H230.337V106.211H236.67C237.689 106.211 238.477 106.137 239.036 105.99C239.594 105.843 239.996 105.584 240.24 105.211C240.485 104.839 240.632 104.32 240.681 103.654C240.73 102.988 240.755 102.131 240.755 101.082V91.0171H246.764ZM256.445 106.196H260.604C261.446 106.196 262.029 106.093 262.352 105.887C262.676 105.672 262.837 105.3 262.837 104.771C262.837 104.398 262.769 104.139 262.632 103.992C262.494 103.835 262.289 103.742 262.014 103.713C261.75 103.683 261.422 103.669 261.03 103.669C260.462 103.669 259.796 103.86 259.032 104.242C258.277 104.614 257.557 105.123 256.872 105.77C256.823 105.819 256.774 105.868 256.725 105.917C256.627 106.005 256.534 106.098 256.445 106.196ZM256.299 90.9878V98.9078L256.269 99.0988L256.431 99.0106C257.89 98.2367 259.37 97.8498 260.868 97.8498H261.162C261.603 97.8498 262.068 97.8645 262.558 97.8939C263.048 97.9233 263.543 98.0016 264.042 98.129C264.552 98.2465 265.046 98.4473 265.526 98.7314C266.496 99.3192 267.216 100.157 267.686 101.244C268.068 102.145 268.259 103.252 268.259 104.565C268.259 105.28 268.186 106.073 268.039 106.945C267.892 107.817 267.672 108.542 267.378 109.12C266.839 110.168 266.075 111.011 265.085 111.647C264.517 112.01 263.949 112.284 263.381 112.47C262.823 112.656 262.299 112.779 261.809 112.838C261.329 112.896 260.927 112.926 260.604 112.926H247.82V106.196H249.554C249.789 105.843 250.029 105.491 250.274 105.138V90.9878H256.299Z" fill="#FFD600"/>
<path d="M87.5076 173.14C86.4237 173.487 55.462 173.088 54.2938 172.324C53.8246 172.042 53.6369 167.524 53.5477 162.062V161.893C53.5243 160.767 53.5102 159.609 53.5102 158.431C53.5102 158.271 53.5102 158.107 53.5102 157.962L55.0069 141.901L75.7169 142.113L73.6712 158.023V158.651L73.5492 161.936V162.278C73.5492 162.278 85.3305 167.73 86.5317 168.706C87.7328 169.682 88.5961 172.793 87.5076 173.14Z" fill="#D3766A"/>
<path d="M87.5076 173.14C86.4238 173.487 55.4621 173.088 54.2938 172.324C53.8246 172.042 53.637 167.524 53.5478 162.062V161.893C53.5243 160.767 53.5103 159.609 53.5103 158.431C53.5103 158.271 53.5103 158.107 53.5103 157.962L73.6854 158.018V158.647L73.5634 161.931V162.274C73.5634 162.274 85.3447 167.725 86.5458 168.701C87.7469 169.677 88.5961 172.793 87.5076 173.14Z" fill="#EBEBEB"/>
<path d="M87.8736 172.84C86.7663 173.196 55.3119 172.708 54.1296 171.925C53.6604 171.639 53.4774 167.05 53.3977 161.5V161.326L73.6947 161.415V161.758C73.6947 161.758 85.6496 167.332 86.8648 168.326C88.08 169.321 88.9762 172.493 87.8736 172.84Z" fill="#F7A74B"/>
<path opacity="0.1" d="M70.9875 172.807C62.8518 172.633 54.716 172.314 54.1249 171.925C53.6557 171.639 53.4774 167.05 53.4023 161.5V161.326L61.3363 161.359L70.9875 172.807Z" fill="black"/>
<path d="M75.3838 161.847C73.3053 161.424 70.7482 161.706 69.1295 163.17C69.0685 163.226 69.1295 163.311 69.2187 163.292C71.2228 162.68 73.2863 162.284 75.3744 162.109C75.3917 162.11 75.4089 162.107 75.425 162.101C75.4412 162.095 75.456 162.086 75.4687 162.074C75.4813 162.063 75.4915 162.048 75.4987 162.033C75.5058 162.017 75.5099 162 75.5105 161.983C75.5111 161.966 75.5083 161.948 75.5023 161.932C75.4962 161.916 75.4871 161.901 75.4753 161.889C75.4635 161.876 75.4494 161.866 75.4337 161.859C75.418 161.851 75.401 161.847 75.3838 161.847Z" fill="#263238"/>
<path d="M76.8758 162.78C74.7973 162.358 72.2402 162.635 70.6215 164.099C70.5605 164.155 70.6215 164.244 70.7106 164.226C72.7142 163.612 74.778 163.215 76.8664 163.043C76.9012 163.044 76.9351 163.032 76.9606 163.008C76.9862 162.984 77.0012 162.951 77.0024 162.917C77.0037 162.882 76.991 162.848 76.9673 162.822C76.9435 162.797 76.9106 162.782 76.8758 162.78Z" fill="#263238"/>
<path d="M78.3678 163.709C76.2893 163.287 73.7323 163.569 72.1136 165.028C72.0526 165.089 72.1136 165.173 72.2027 165.154C74.2055 164.534 76.2694 164.131 78.3584 163.953C78.3832 163.945 78.4048 163.929 78.4204 163.907C78.436 163.886 78.4449 163.861 78.4459 163.835C78.4469 163.808 78.44 163.782 78.4261 163.76C78.4122 163.738 78.3919 163.72 78.3678 163.709Z" fill="#263238"/>
<path d="M88.3709 171.718C88.9292 171.948 88.7791 173.834 88.3709 173.98C87.9627 174.125 53.651 173.44 53.088 173.304C52.5249 173.168 52.7548 171.075 53.4305 170.958C54.1061 170.841 88.3709 171.718 88.3709 171.718Z" fill="#263238"/>
<path d="M58.5352 164.929C56.2737 163.756 54.4439 167.275 56.7101 168.448C58.9763 169.621 60.8061 166.107 58.5352 164.929Z" fill="white"/>
<path d="M74.8818 161.997H52.5859C52.5859 161.997 57.0761 109.917 56.8978 109.007C56.6773 107.838 55.3588 102.569 53.6135 95.6816C53.0645 93.5281 52.4686 91.215 51.854 88.8174C50.1931 82.3379 48.3585 75.2579 46.7633 69.1115C44.3658 59.8779 42.4937 52.6899 42.4937 52.6899H61.3879C61.3879 52.6899 63.5931 59.6715 66.366 68.7549C70.889 83.5203 76.9321 103.836 77.5327 108.777C78.4992 116.758 74.8818 161.997 74.8818 161.997Z" fill="#455A64"/>
<path d="M73.8965 158.192C70.4901 158.121 71.4708 158.093 68.0644 158.06C66.3941 158.06 55.4433 157.948 53.8856 158.206C53.8527 158.206 53.8527 158.271 53.8856 158.276C55.4433 158.534 66.3941 158.44 68.0644 158.422C71.4708 158.389 70.4901 158.361 73.8965 158.29C73.907 158.287 73.9161 158.28 73.9226 158.272C73.9292 158.263 73.9327 158.252 73.9327 158.241C73.9327 158.23 73.9292 158.219 73.9226 158.21C73.9161 158.202 73.907 158.195 73.8965 158.192Z" fill="#263238"/>
<path d="M61.097 105.821C60.365 102.597 59.2718 99.4398 58.3194 96.2775C56.3863 89.8465 54.4423 83.4202 52.4874 76.9986C51.5115 73.7893 50.5309 70.5801 49.5456 67.3708C49.0482 65.7474 48.5478 64.1272 48.0442 62.51C47.5468 60.9289 46.9791 59.3571 46.5334 57.7619C46.3504 57.1144 46.2519 57.471 46.4865 58.2967C46.9556 59.9577 47.4248 61.6233 47.894 63.2795C48.8543 66.567 49.8208 69.8513 50.7936 73.1325C52.7267 79.6698 54.6769 86.1978 56.6444 92.7164C57.6265 95.9913 58.6103 99.2631 59.5956 102.532C60.0931 104.087 60.4958 105.671 60.8014 107.275C61.0659 108.951 61.1352 110.651 61.0078 112.343C60.792 115.754 60.3979 119.16 60.0695 122.566C59.741 125.972 59.4361 129.383 59.1311 132.794C58.5055 139.582 57.8799 146.371 57.2543 153.162C57.1793 154.02 57.0995 154.884 57.0338 155.742C57.0338 156.033 57.4514 156.01 57.4795 155.742C58.2162 149.033 58.7792 142.295 59.4079 135.567C60.0366 128.839 60.6606 122.191 61.2847 115.5C61.4442 113.82 61.6225 112.141 61.6225 110.452C61.6205 108.893 61.4443 107.34 61.097 105.821Z" fill="#263238"/>
<path d="M59.2437 52.6948C57.93 62.8434 55.4292 81.8736 53.6134 95.6818C49.3485 78.9506 42.4937 52.6948 42.4937 52.6948H59.2437Z" fill="#263238"/>
<path d="M63.884 173.436C62.8001 173.792 31.8384 173.501 30.6655 172.741C30.1963 172.46 29.9945 167.946 29.8866 162.485C29.8866 162.428 29.8866 162.372 29.8866 162.316C29.8631 161.19 29.8444 160.031 29.8397 158.853C29.8397 158.694 29.8397 158.53 29.8397 158.384C29.7693 150.502 30.337 142.319 30.337 142.319L50.5731 142.455L50.0101 158.365L49.9866 158.999L49.874 162.283V162.621C49.874 162.621 61.6647 168.026 62.8518 169.002C64.0388 169.978 64.949 173.088 63.884 173.436Z" fill="#D3766A"/>
<path d="M63.884 173.436C62.8001 173.792 31.8384 173.502 30.6655 172.741C30.1963 172.46 29.9945 167.946 29.8866 162.485C29.8866 162.429 29.8866 162.372 29.8866 162.316C29.8631 161.19 29.8444 160.031 29.8397 158.853C29.8397 158.694 29.8397 158.53 29.8397 158.384H50.0148L49.9913 159.018L49.8787 162.302V162.64C49.8787 162.64 61.6647 168.026 62.8518 169.002C64.0388 169.978 64.949 173.089 63.884 173.436Z" fill="#EBEBEB"/>
<path d="M64.189 172.84C63.0864 173.196 31.632 172.708 30.445 171.925C29.9758 171.639 29.7928 167.05 29.7177 161.5V161.326L50.0101 161.415V161.758C50.0101 161.758 61.965 167.332 63.1755 168.326C64.386 169.321 65.2916 172.493 64.189 172.84Z" fill="#F7A74B"/>
<path d="M51.7038 161.847C49.6206 161.424 47.0683 161.706 45.4496 163.17C45.3839 163.226 45.4496 163.311 45.534 163.292C47.5381 162.68 49.6017 162.284 51.6898 162.109C51.7246 162.111 51.7588 162.099 51.7847 162.076C51.8107 162.053 51.8263 162.02 51.8282 161.985C51.83 161.95 51.818 161.916 51.7947 161.89C51.7714 161.864 51.7387 161.849 51.7038 161.847Z" fill="#263238"/>
<path d="M53.1959 162.78C51.1127 162.358 48.5556 162.635 46.9416 164.099C46.8759 164.155 46.9416 164.244 47.0261 164.226C49.0296 163.612 51.0934 163.215 53.1818 163.043C53.2167 163.045 53.2508 163.033 53.2768 163.01C53.3027 162.986 53.3183 162.954 53.3202 162.919C53.3221 162.884 53.31 162.85 53.2867 162.824C53.2634 162.798 53.2307 162.782 53.1959 162.78Z" fill="#263238"/>
<path d="M54.6879 163.709C52.6047 163.287 50.0476 163.569 48.4336 165.028C48.3679 165.089 48.4336 165.173 48.5181 165.154C50.5209 164.534 52.5847 164.131 54.6738 163.953C54.6989 163.945 54.7208 163.929 54.7369 163.909C54.7529 163.888 54.7623 163.862 54.7639 163.836C54.7654 163.81 54.7589 163.784 54.7454 163.761C54.7318 163.738 54.7118 163.72 54.6879 163.709Z" fill="#263238"/>
<path d="M64.6863 171.718C65.2446 171.948 65.0945 173.834 64.6863 173.98C64.2781 174.125 29.9664 173.44 29.4033 173.304C28.8403 173.168 29.0702 171.075 29.7505 170.958C30.4309 170.841 64.6863 171.718 64.6863 171.718Z" fill="#263238"/>
<path d="M34.8553 164.929C32.5938 163.756 30.764 167.275 33.0302 168.448C35.2963 169.621 37.1215 166.107 34.8553 164.929Z" fill="white"/>
<path d="M60.7779 52.6948C60.7779 52.6948 60.3416 61.7361 58.2725 68.8959C58.1083 69.4918 57.9253 70.0736 57.7329 70.6319C55.835 71.4019 54.0116 72.3442 52.2856 73.447C52.2856 73.447 52.0698 80.7241 51.8493 88.8364C51.61 97.9058 51.3567 108.026 51.4083 110.17C51.6006 118.198 50.4042 162.344 50.4042 162.344L28.1131 162.433C28.1131 162.433 32.1434 113.117 32.1059 110.175C32.0636 105.45 33.185 84.5574 34.053 69.3182C34.5832 59.9344 35.0148 52.6948 35.0148 52.6948H60.7779Z" fill="#455A64"/>
<path d="M49.6394 158.356C46.2378 158.299 47.2137 158.271 43.8074 158.253C42.1418 158.253 31.1863 158.192 29.6333 158.459C29.6245 158.459 29.6162 158.462 29.61 158.469C29.6039 158.475 29.6004 158.483 29.6004 158.492C29.6004 158.501 29.6039 158.509 29.61 158.515C29.6162 158.521 29.6245 158.525 29.6333 158.525C31.191 158.778 42.1418 158.637 43.8074 158.614C47.2137 158.567 46.2378 158.543 49.6441 158.459C49.6578 158.458 49.6707 158.452 49.6799 158.442C49.6892 158.432 49.694 158.419 49.6934 158.405C49.6928 158.391 49.6867 158.378 49.6766 158.369C49.6665 158.36 49.6531 158.355 49.6394 158.356Z" fill="#263238"/>
<path d="M36.901 55.9226C36.4881 68.3608 36.0565 80.7895 35.4934 93.2371C34.9304 105.685 34.1844 118.184 33.1475 130.627C32.5657 137.58 32.0168 147.358 31.2707 154.297C31.2707 154.344 31.3364 154.358 31.3411 154.297C32.9645 141.958 33.87 126.704 34.6677 114.285C35.4653 101.865 36.0095 89.4179 36.4318 77.0032C36.6711 69.9654 36.8541 62.9275 37.0652 55.8897C37.0558 55.8147 36.901 55.824 36.901 55.9226Z" fill="#263238"/>
<path d="M57.0854 70.8477C55.1494 71.5523 53.2781 72.4236 51.4927 73.4517C51.4223 73.4893 51.4693 73.6019 51.5443 73.569C53.4211 72.7573 55.3494 71.9832 57.1746 71.0729C57.2008 71.0587 57.2209 71.0354 57.2311 71.0074C57.2412 70.9793 57.2408 70.9486 57.2298 70.9208C57.2189 70.8931 57.1981 70.8704 57.1715 70.8569C57.1449 70.8434 57.1143 70.8402 57.0854 70.8477Z" fill="#263238"/>
<path d="M57.686 57.9167C57.686 57.851 57.564 57.837 57.564 57.9167C57.5659 60.0195 57.461 62.1211 57.2497 64.2132C57.1605 65.1845 56.3817 70.5473 54.6973 70.1578C54.4158 70.0922 54.2703 69.8153 54.2281 69.3884C54.2361 68.8323 54.3117 68.2793 54.4533 67.7415C54.6363 66.6202 54.7864 65.4941 54.885 64.3587C55.0798 62.2474 55.0562 60.1217 54.8146 58.0153C54.8111 58.0036 54.804 57.9935 54.7943 57.9862C54.7846 57.979 54.7728 57.975 54.7606 57.975C54.7485 57.975 54.7367 57.979 54.727 57.9862C54.7173 57.9935 54.7102 58.0036 54.7067 58.0153C54.757 60.9439 54.586 63.8721 54.1953 66.775C53.9841 68.1826 53.2803 70.2704 54.7395 70.4863C56.1987 70.7021 57.1887 67.202 57.3717 66.2214C57.8355 63.4784 57.9411 60.6869 57.686 57.9167Z" fill="#263238"/>
<path d="M54.7442 70.2894C54.5924 70.651 54.4654 71.0225 54.3642 71.4013C54.256 71.6941 54.2019 72.0041 54.2046 72.3163C54.2068 72.3289 54.2127 72.3406 54.2214 72.35C54.2302 72.3593 54.2415 72.3659 54.254 72.3689C54.2665 72.3719 54.2796 72.3712 54.2917 72.3668C54.3037 72.3625 54.3142 72.3547 54.3219 72.3444C54.4958 72.0679 54.6285 71.7676 54.7161 71.4529C54.8427 71.1104 54.9788 70.7679 55.0961 70.4207C55.1135 70.3741 55.1117 70.3224 55.091 70.2771C55.0703 70.2318 55.0325 70.1965 54.9858 70.1791C54.9392 70.1617 54.8875 70.1635 54.8422 70.1842C54.7969 70.2049 54.7616 70.2427 54.7442 70.2894Z" fill="#263238"/>
<path d="M47.1199 59.7374C47.1225 59.4816 47.0942 59.2263 47.0355 58.9773C47.0326 58.969 47.0272 58.9619 47.02 58.9568C47.0129 58.9517 47.0043 58.949 46.9956 58.949C46.9868 58.949 46.9783 58.9517 46.9711 58.9568C46.964 58.9619 46.9586 58.969 46.9557 58.9773C46.8986 59.1934 46.8671 59.4154 46.8619 59.6389C46.8337 59.8875 46.7962 60.1409 46.768 60.3943C46.7105 60.9124 46.6133 61.4253 46.4771 61.9285C46.2196 62.8947 45.6962 63.7692 44.9663 64.4527C44.2221 65.1316 43.3561 65.6633 42.4139 66.0198C41.3358 66.3701 40.2394 66.6614 39.1296 66.8925C39.1197 66.8925 39.1101 66.8965 39.1031 66.9035C39.096 66.9106 39.0921 66.9201 39.0921 66.9301C39.0921 66.94 39.096 66.9496 39.1031 66.9566C39.1101 66.9636 39.1197 66.9676 39.1296 66.9676C40.3427 66.9653 41.5456 66.746 42.6814 66.3201C43.6667 65.9748 44.5729 65.4356 45.3464 64.7343C46.0991 64.0338 46.6377 63.1341 46.8994 62.1396C47.0232 61.6354 47.0939 61.1196 47.1105 60.6007C47.1324 60.3135 47.1356 60.0251 47.1199 59.7374Z" fill="#263238"/>
<path d="M61.036 58.2969C61.012 58.1133 60.9994 57.9284 60.9985 57.7433C60.9985 57.7151 61.0782 57.7151 61.0829 57.7433C61.1251 57.8934 61.4676 62.6651 64.2968 63.1906C64.2968 63.1906 64.2968 63.2422 64.2968 63.2469C63.8592 63.2836 63.4226 63.1657 63.0629 62.9137C62.6493 62.6458 62.3013 62.2882 62.0447 61.8674C61.6999 61.3018 61.4495 60.6838 61.3034 60.0376C61.219 59.6763 61.1533 59.3057 61.1017 58.9303C61.0782 58.7145 61.0501 58.5081 61.036 58.2969Z" fill="#263238"/>
<path d="M54.0779 50.8182C53.8715 51.1701 32.9645 55.0127 31.9135 54.8626C31.8635 54.8542 31.8147 54.84 31.768 54.8204C30.4496 54.4122 23.9889 49.9361 23.4963 49.5514C22.2811 48.613 25.6217 40.3365 26.851 38.8773C27.6626 37.9061 29.347 37.3384 29.347 37.3384C29.347 37.3384 32.2842 22.6012 34.8835 19.2418C35.5356 18.402 48.5462 16.3141 51.0235 17.0601C52.0839 17.3745 54.8568 19.5233 54.9835 19.9597C55.1336 20.6025 54.2844 50.4616 54.0779 50.8182Z" fill="#455A64"/>
<path d="M54.0779 50.8179C53.8715 51.1698 32.9645 55.0125 31.9135 54.8623C31.8635 54.8539 31.8147 54.8397 31.768 54.8201C33.0349 49.0913 38.9935 22.2022 39.2375 21.9769C39.4815 21.7517 51.9666 20.133 54.9835 19.9407C55.1336 20.6022 54.2844 50.4614 54.0779 50.8179Z" fill="#263238"/>
<path d="M41.8697 19.3402C41.6351 19.1713 41.1002 16.328 41.4005 15.7087C41.743 15.0096 46.7915 14.6343 47.1622 15.141C47.5328 15.6477 48.0677 18.4816 47.9316 18.6036C47.7956 18.7256 46.9933 18.9414 46.8337 18.7725C46.6742 18.6036 46.3645 16.2436 46.2754 16.131C46.1863 16.0184 42.6345 16.2717 42.5219 16.4688C42.4093 16.6659 43.0474 19.0118 42.9254 19.1385C42.8034 19.2652 42.1043 19.5045 41.8697 19.3402Z" fill="#37474F"/>
<path d="M74.6519 3.35042L71.4661 17.2618C71.33 17.67 71.5412 17.9985 71.9353 17.9891L79.0716 17.8343C79.2895 17.8127 79.4968 17.7298 79.6695 17.5953C79.8422 17.4608 79.9733 17.2801 80.0475 17.0742L83.2474 3.16274C83.3835 2.74986 83.1723 2.42612 82.7782 2.4355L75.6372 2.59033C75.4175 2.60966 75.2079 2.69152 75.0333 2.82622C74.8587 2.96092 74.7263 3.14283 74.6519 3.35042Z" fill="#263238"/>
<path d="M75.4964 3.32205L72.3153 17.2382C72.1745 17.6464 72.3857 17.9701 72.7845 17.9607L79.9255 17.8059C80.1428 17.7847 80.3497 17.7025 80.5224 17.5689C80.695 17.4352 80.8264 17.2555 80.9014 17.0505L84.0825 3.13437C84.2233 2.72618 84.0121 2.40244 83.6133 2.41182L76.4723 2.56665C76.255 2.58785 76.0481 2.67 75.8754 2.80364C75.7027 2.93729 75.5714 3.11699 75.4964 3.32205Z" fill="#455A64"/>
<path d="M77.467 3.91336C77.467 4.03307 77.4315 4.15008 77.365 4.24962C77.2985 4.34915 77.204 4.42673 77.0934 4.47254C76.9828 4.51835 76.8611 4.53033 76.7437 4.50698C76.6263 4.48363 76.5184 4.42598 76.4338 4.34133C76.3491 4.25669 76.2915 4.14884 76.2681 4.03144C76.2448 3.91403 76.2567 3.79233 76.3026 3.68174C76.3484 3.57114 76.426 3.47662 76.5255 3.41011C76.625 3.3436 76.742 3.30811 76.8618 3.30811C77.0223 3.30811 77.1762 3.37187 77.2897 3.48538C77.4032 3.59889 77.467 3.75284 77.467 3.91336Z" fill="#263238"/>
<path d="M51.8118 27.5277C56.9729 35.5039 66.5537 44.4184 70.279 43.9727C72.0526 43.7569 75.7404 43.9164 77.7861 41.5705C82.2621 36.4563 86.1517 28.513 86.7006 23.8211C86.9071 22.0616 77.162 18.8477 76.1064 20.4242C73.6384 24.1073 71.1236 31.0278 70.6028 31.056C68.6791 31.1686 60.4026 25.9606 54.6222 22.2915C47.6173 17.8342 49.7755 24.3372 51.8118 27.5277Z" fill="#EB9481"/>
<path d="M86.6396 15.6243C85.7012 12.096 84.9083 11.3313 85.7012 7.92964C86.2173 5.701 85.0115 4.41542 83.4585 6.21711C80.9155 9.17299 81.1782 13.9822 81.7506 15.6009L86.6396 15.6243Z" fill="#EB9481"/>
<path d="M86.1516 26.1621C86.1516 26.1621 87.6671 21.2075 87.0337 17.3461C86.5974 14.6764 84.9927 8.97577 77.467 6.05742C75.6794 5.36302 72.6484 5.63984 75.1492 7.83095C76.9321 9.38866 78.5273 9.83908 79.4 10.9323C79.4 10.9323 75.5808 11.744 74.9568 13.5597C74.4093 15.1469 73.9766 16.7713 73.6619 18.4205C73.9504 18.5469 74.2465 18.6551 74.5486 18.7443C74.5486 18.7443 74.0184 20.4615 75.3181 22.8731L86.1516 26.1621Z" fill="#EB9481"/>
<path d="M86.2079 14.8688C85.1147 13.9633 82.7688 12.0912 80.3102 11.2232C77.5843 10.2848 72.0713 9.14469 71.3957 11.1669C70.889 12.6495 72.9581 13.2595 72.9581 13.2595C72.9581 13.2595 70.5793 13.2595 70.4151 14.714C70.2696 16.0277 71.893 16.403 71.893 16.403C71.893 16.403 70.4573 16.6611 70.5558 17.9514C70.6778 19.5044 73.6712 18.7067 75.1492 20.1706C75.4729 20.5037 86.2079 14.8688 86.2079 14.8688Z" fill="#EB9481"/>
<path d="M79.7754 14.2823C77.6736 13.2495 75.3072 12.8813 72.9909 13.2267C72.9346 13.2267 72.9112 13.2877 72.9675 13.2923C75.2654 13.346 77.5482 13.6784 79.766 14.2823C79.766 14.2823 79.7895 14.2823 79.7754 14.2823Z" fill="#263238"/>
<path d="M78.7243 16.999C77.6593 16.5298 74.4782 15.7651 71.8883 16.3515C71.832 16.3515 71.8132 16.4172 71.8883 16.4125C74.1876 16.3573 76.4857 16.5635 78.7384 17.0272L78.7243 16.999Z" fill="#263238"/>
<path d="M73.4929 22.8871L87.0384 29.5214C87.0384 29.5214 82.5436 38.1685 77.162 42.6587C74.6471 44.7512 70.462 45.0046 69.1342 44.7325C64.9725 43.9208 53.651 32.8198 49.4658 25.8664C46.9181 21.6437 49.2875 18.472 54.6973 21.9722C60.2571 25.5427 69.7723 29.7654 70.3494 29.9108C70.9265 30.0563 73.4929 22.8871 73.4929 22.8871Z" fill="#F7A74B"/>
<path d="M78.9684 28.8271C77.955 28.3204 73.9106 26.256 72.9487 25.6695C72.9487 25.6695 72.9487 25.6319 72.9487 25.6366C73.9809 26.0261 78.0347 27.9497 79.0482 28.4518C81.1015 29.4149 83.1016 30.4878 85.0397 31.6657C85.0464 31.6711 85.0511 31.6786 85.053 31.687C85.0548 31.6954 85.0537 31.7042 85.0499 31.7119C85.0461 31.7195 85.0397 31.7257 85.0318 31.7292C85.024 31.7328 85.0152 31.7336 85.0069 31.7314C82.9424 30.915 80.9672 29.8453 78.9684 28.8271Z" fill="#263238"/>
<path opacity="0.1" d="M49.4659 25.8572C52.8581 31.4875 60.9328 39.8531 66.0892 43.25L51.4318 20.5319C48.4524 19.9971 47.514 22.6104 49.4659 25.8572Z" fill="black"/>
<path d="M63.5931 57.1661L32.8894 59.2868C32.8894 59.2868 36.0189 30.6664 43.8966 22.099C45.9047 19.9219 49.9585 19.556 51.8728 21.0292C57.0807 25.0736 63.9496 56.711 63.5931 57.1661Z" fill="#F7A74B"/>
<path opacity="0.1" d="M44.1264 21.869L52.1871 21.3201C52.1073 21.2403 52.0229 21.1699 51.9431 21.1042L44.408 21.625C44.31 21.7015 44.216 21.7829 44.1264 21.869ZM42.8831 23.3423L53.2052 22.6291C53.2521 22.6995 53.2991 22.7699 53.3413 22.8449L42.6907 23.5816L42.8831 23.3423ZM41.7758 25.0407L54.1248 24.1868L54.2374 24.4073L41.6397 25.28C41.6867 25.2003 41.7336 25.1205 41.7758 25.0407ZM40.8703 26.7204L54.8802 25.7539C54.917 25.8272 54.9499 25.9024 54.9788 25.9791L40.753 26.9503C40.7952 26.88 40.8327 26.8002 40.8703 26.7204ZM40.0914 28.4001L55.5746 27.3304C55.6028 27.4008 55.6309 27.4758 55.6638 27.5462L40.007 28.63C40.021 28.5503 40.0539 28.4752 40.082 28.4001H40.0914ZM39.397 30.0611L56.1752 28.9022C56.1992 28.9787 56.2274 29.0539 56.2596 29.1274L39.3079 30.3003C39.3407 30.2346 39.3689 30.1408 39.397 30.0611ZM38.7777 31.7267L56.7523 30.4833L56.8274 30.7085L38.6745 31.9613L38.7777 31.7267ZM38.21 33.3876L57.2919 32.0645C57.32 32.1396 57.3435 32.2146 57.3669 32.2897L38.1302 33.6222C38.1631 33.5424 38.2053 33.4627 38.2053 33.3876H38.21ZM37.6892 35.0438L57.8127 33.6363L57.883 33.8615L37.6188 35.269L37.6892 35.0438ZM37.22 36.6954L58.3334 35.2362C58.3334 35.3113 58.3804 35.3816 58.3991 35.4567L37.1684 36.93C37.1637 36.8502 37.1872 36.7751 37.2106 36.6954H37.22ZM36.7508 38.3469L58.7886 36.8033C58.7886 36.8784 58.8308 36.9534 58.8543 37.0285L36.6992 38.5627C36.718 38.5017 36.7414 38.4267 36.7602 38.3469H36.7508ZM36.3285 39.9938L59.239 38.4126C59.239 38.4877 59.2812 38.5627 59.3047 38.6378L36.2722 40.2284L36.3285 39.9938ZM35.9344 41.6453L59.6894 40.0031C59.6894 40.0735 59.7269 40.1486 59.7504 40.2237L35.8828 41.8752C35.911 41.8001 35.925 41.7204 35.9438 41.6453H35.9344ZM35.5638 43.2875L60.1164 41.589C60.1164 41.6641 60.1586 41.7391 60.1774 41.8142L35.5122 43.5221C35.5403 43.4423 35.5544 43.3719 35.5731 43.2875H35.5638ZM35.2119 44.9343L60.548 43.1795C60.5715 43.2546 60.5902 43.3297 60.609 43.4048L35.1743 45.1642C35.1931 45.0891 35.2072 45.0094 35.2213 44.9343H35.2119ZM34.8834 46.5765L60.9609 44.7795L61.0172 45L34.8459 46.8111C34.86 46.7266 34.8787 46.6562 34.8928 46.5765H34.8834ZM34.5691 48.2186L61.3503 46.3419C61.3647 46.418 61.3835 46.4932 61.4066 46.5671L34.5269 48.4438L34.5691 48.2186ZM34.2735 49.8608L61.7351 47.9606C61.7351 48.0356 61.7679 48.106 61.7867 48.1811L34.2313 50.086L34.2735 49.8608ZM33.992 51.4983L62.1339 49.5511C62.1339 49.6262 62.1667 49.7013 62.1855 49.7763L33.9826 51.7282C33.9826 51.6531 33.9826 51.578 33.9826 51.4983H33.992ZM33.7292 53.1357L62.467 51.1464C62.467 51.2214 62.5045 51.2965 62.5186 51.3716L33.6964 53.3656C33.7152 53.2906 33.7292 53.2249 33.7386 53.1357H33.7292ZM33.4806 54.7732L62.8283 52.7557C62.8283 52.8307 62.8611 52.9058 62.8752 52.9762L33.4571 55.0125C33.4665 54.928 33.4806 54.8529 33.49 54.7732H33.4806ZM33.2507 56.406L63.1473 54.3368C63.1473 54.4119 63.1802 54.4917 63.1942 54.5667L33.2131 56.6405C33.2366 56.5655 33.246 56.5092 33.26 56.406H33.2507ZM33.0348 58.0434L63.4476 55.9415C63.4476 56.0212 63.4758 56.0963 63.4851 56.1667L32.9879 58.2733C33.0442 58.1983 33.0442 58.1232 33.0442 58.0434H33.0348Z" fill="black"/>
<path d="M40.7765 24.0181C32.2982 32.44 21.5397 50.2316 23.4916 53.8819C25.6405 57.9451 37.4499 46.1356 37.4124 45.4365C37.3842 44.911 41.6069 34.0822 44.8021 26.1998C47.9973 18.3174 42.8737 21.9349 40.7765 24.0181Z" fill="#EB9481"/>
<path d="M37.4921 45.4506C37.8581 44.2917 43.5916 30.0144 45.2431 25.4961C46.8947 20.9778 45.4214 19.5608 40.8093 23.6662C36.1972 27.7716 26.0486 41.5423 23.6933 48.8804C21.4178 55.9511 25.068 55.9886 29.9194 52.77C33.8935 50.1331 37.4921 45.4506 37.4921 45.4506Z" fill="#F7A74B"/>
<path d="M42.1277 33.702C42.2772 33.3561 42.4661 33.0287 42.6907 32.7261C42.9055 32.4178 43.1542 32.1346 43.432 31.8816C43.2842 32.2273 43.0968 32.5548 42.8737 32.8575C42.6572 33.1659 42.407 33.4491 42.1277 33.702Z" fill="#263238"/>
<path d="M38.1396 43.3719C38.5056 42.2693 38.9091 41.1854 39.3173 40.0875C39.7255 38.9896 40.1571 37.9293 40.5747 36.8501C40.9923 35.771 41.4521 34.7106 41.9119 33.6456C42.3717 32.5805 42.8503 31.5202 43.3195 30.4739C42.9535 31.5765 42.55 32.6603 42.1418 33.7582C41.7336 34.8561 41.302 35.9165 40.8797 36.9956C40.4574 38.0747 40.0023 39.1351 39.5425 40.2002C39.0827 41.2652 38.637 42.3396 38.1396 43.3719Z" fill="#263238"/>
<path d="M49.0811 19.2698C52.3045 19.9642 53.4681 21.7096 53.6463 23.3048C53.8246 24.9001 53.3883 26.8378 51.5631 27.0583C49.738 27.2788 46.5898 25.7915 44.8397 22.7559C43.4321 20.2973 46.2848 18.6692 49.0811 19.2698Z" fill="#F7A74B"/>
<path opacity="0.1" d="M49.0811 19.2698C52.3045 19.9642 53.4681 21.7096 53.6463 23.3048C53.8246 24.9001 53.3883 26.8378 51.5631 27.0583C49.738 27.2788 46.5898 25.7915 44.8397 22.7559C43.4321 20.2973 46.2848 18.6692 49.0811 19.2698Z" fill="black"/>
<path d="M51.671 25.543C49.9913 26.0122 46.5709 23.3519 45.3229 21.3203C45.2384 21.1795 45.3932 19.6453 45.4918 17.7779C45.5434 16.6425 45.5809 15.3757 45.5293 14.2168L52.8627 15.6572C52.5132 17.1231 52.3446 18.6263 52.3607 20.1333C52.3738 20.291 52.3973 20.4478 52.4311 20.6024C52.4342 20.6274 52.4342 20.6526 52.4311 20.6775C52.6328 21.5455 53.2991 25.0738 51.671 25.543Z" fill="#EB9481"/>
<path d="M52.4311 20.5743C52.4324 20.5993 52.4324 20.6243 52.4311 20.6494C52.1862 20.6927 51.9384 20.7178 51.6898 20.7244C47.4671 20.8183 46.266 15.7229 46.0079 14.2825L47.8425 14.6437L52.8487 15.6243C52.4992 17.0902 52.3322 18.5936 52.3514 20.1004C52.3627 20.2605 52.3894 20.4192 52.4311 20.5743Z" fill="#263238"/>
<path d="M45.0179 4.82818C44.2532 5.53196 41.7336 5.42405 40.6686 4.19478C39.2141 2.50101 41.2504 -0.722313 43.6057 0.145685C45.961 1.01368 45.6044 4.28392 45.0179 4.82818Z" fill="#263238"/>
<path d="M40.8985 0.961914C40.4525 1.54227 40.1575 2.22419 40.0399 2.94658C39.993 3.28721 40.0451 3.63412 40.19 3.94595C40.3455 4.24822 40.585 4.49913 40.8797 4.6685C41.1852 4.85442 41.5153 4.99656 41.8603 5.09077C42.202 5.19629 42.5546 5.26241 42.9113 5.28783C43.6447 5.34588 44.3785 5.18243 45.0179 4.81864C44.4261 5.312 43.677 5.5767 42.9066 5.56465C42.5199 5.56255 42.1351 5.51051 41.7618 5.40981C41.3845 5.30564 41.0242 5.14761 40.692 4.94063C40.341 4.73375 40.06 4.42654 39.885 4.05855C39.7244 3.68452 39.6819 3.27038 39.763 2.87151C39.9402 2.13499 40.336 1.46929 40.8985 0.961914Z" fill="#263238"/>
<path d="M44.3048 5.76193C43.6197 8.42692 45.351 15.9527 47.2982 17.562C50.1133 19.9079 54.5612 19.9079 56.4989 16.5767C58.3757 13.3299 55.95 3.55675 53.7917 2.11634C50.6294 -0.0137755 45.3276 1.83013 44.3048 5.76193Z" fill="#EB9481"/>
<path d="M52.0417 10.116C52.0417 10.116 52.0088 10.1488 52.0135 10.1676C52.1402 10.6743 52.2059 11.2702 51.7836 11.5423C51.7836 11.5423 51.7836 11.5751 51.7836 11.5704C52.3373 11.3687 52.2434 10.5711 52.0417 10.116Z" fill="#263238"/>
<path d="M51.4693 9.68906C50.6388 9.81105 50.9438 11.4626 51.7132 11.35C52.4827 11.2374 52.1637 9.59053 51.4693 9.68906Z" fill="#263238"/>
<path d="M54.9225 9.59033C54.9225 9.59033 54.9694 9.59033 54.9741 9.62787C55.0492 10.144 55.2275 10.7164 55.7201 10.8008V10.8337C55.143 10.8478 54.9178 10.0595 54.9225 9.59033Z" fill="#263238"/>
<path d="M55.2838 8.9616C56.0955 8.74578 56.4615 10.3692 55.7108 10.585C54.9601 10.8008 54.6035 9.12113 55.2838 8.9616Z" fill="#263238"/>
<path d="M50.681 9.14491C50.8943 9.05785 51.1026 8.95917 51.3051 8.84932C51.5387 8.77594 51.7415 8.62751 51.8822 8.42705C51.9149 8.35647 51.923 8.27694 51.9051 8.20122C51.8873 8.1255 51.8445 8.05797 51.7836 8.00947C51.6477 7.92989 51.4931 7.88794 51.3356 7.88794C51.1781 7.88794 51.0234 7.92989 50.8875 8.00947C50.59 8.13079 50.3467 8.35583 50.2025 8.64288C50.1747 8.71074 50.1672 8.78517 50.1808 8.8572C50.1945 8.92924 50.2286 8.9958 50.2792 9.04886C50.3298 9.10192 50.3946 9.13922 50.4659 9.15626C50.5372 9.1733 50.6119 9.16936 50.681 9.14491Z" fill="#263238"/>
<path d="M55.7436 8.06077C55.5145 8.05915 55.2857 8.04348 55.0585 8.01385C54.8135 8.02824 54.5703 7.96415 54.3641 7.83087C54.3091 7.77482 54.2738 7.70236 54.2637 7.62447C54.2535 7.54658 54.269 7.4675 54.3078 7.39921C54.4049 7.27645 54.5333 7.18205 54.6794 7.12592C54.8255 7.06979 54.984 7.05399 55.1383 7.08017C55.4603 7.08159 55.7701 7.20382 56.0063 7.42267C56.0577 7.47513 56.0926 7.54154 56.1067 7.61366C56.1208 7.68577 56.1133 7.76043 56.0854 7.82837C56.0574 7.89631 56.0101 7.95454 55.9493 7.99585C55.8886 8.03717 55.817 8.05974 55.7436 8.06077Z" fill="#263238"/>
<path d="M52.3842 14.4186C52.5015 14.55 52.6094 14.7236 52.7971 14.7564C52.9901 14.7676 53.1834 14.7388 53.3648 14.672C53.3648 14.672 53.3976 14.672 53.3648 14.7001C53.2828 14.7964 53.1762 14.8686 53.0564 14.9091C52.9366 14.9496 52.808 14.9568 52.6845 14.93C52.5851 14.894 52.4978 14.8311 52.4324 14.7482C52.3669 14.6653 52.3258 14.5658 52.3138 14.4608C52.3279 14.4045 52.3701 14.3998 52.3842 14.4186Z" fill="#263238"/>
<path d="M52.5953 13.2688C52.7627 13.4481 52.9655 13.5907 53.1908 13.6876C53.4161 13.7845 53.6591 13.8336 53.9043 13.8319C54.1169 13.8338 54.3286 13.8054 54.533 13.7474L54.6503 13.7099L54.7583 13.6724C54.7854 13.6622 54.8084 13.6433 54.8236 13.6187C54.8389 13.5941 54.8456 13.5651 54.8427 13.5363V13.4847V13.4378C54.7817 13.0436 54.6363 12.4525 54.6363 12.4525C54.7911 12.4947 55.5747 12.6918 55.5371 12.49C55.1641 10.7184 54.6123 8.98917 53.8903 7.32893C53.8859 7.31711 53.877 7.3075 53.8656 7.30222C53.8542 7.29694 53.8411 7.29643 53.8293 7.30078C53.8174 7.30514 53.8078 7.31401 53.8026 7.32545C53.7973 7.33689 53.7968 7.34995 53.8011 7.36177C54.1342 8.99455 54.7395 10.5616 55.1195 12.1991C54.8363 12.1252 54.5441 12.092 54.2515 12.1006C54.1952 12.1287 54.5565 13.2407 54.5706 13.419C54.2542 13.511 53.9225 13.5385 53.5953 13.4998C53.268 13.4611 52.9519 13.3571 52.6657 13.1938C52.5906 13.1938 52.5578 13.236 52.5953 13.2688Z" fill="#263238"/>
<path opacity="0.3" d="M45.0367 13.0063C45.8532 11.5098 46.5847 9.9684 47.2278 8.38953C47.5093 7.56845 46.7586 4.63602 46.7352 4.55157C46.5324 4.03755 46.1577 3.60974 45.6748 3.34106C45.0611 3.97493 44.6159 4.75242 44.3798 5.60255C43.9341 7.11334 44.3048 10.3789 45.0367 13.0063Z" fill="#263238"/>
<path d="M44.9006 4.09624C44.2578 5.00647 47.1246 5.56949 47.5562 5.55072C47.9879 5.53196 47.2325 4.77656 47.2325 4.77656C47.2325 4.77656 48.9826 6.03399 50.0007 6.13252C50.7122 6.17419 51.4259 6.10614 52.1167 5.93077L50.5074 4.9267C50.5074 4.9267 53.4352 6.23105 54.9741 6.09498C55.8931 6.0135 56.8147 6.22012 57.6109 6.68616C57.6109 6.68616 57.0245 3.2517 55.9031 2.43062C55.1698 1.90486 54.3698 1.47886 53.5243 1.16382L55.4808 1.02306C54.5624 0.657657 53.5946 0.431515 52.6094 0.35212C51.4684 0.481556 50.344 0.730015 49.2547 1.09344L50.5168 0.000229409C49.6827 -0.00729973 48.8574 0.170587 48.1005 0.521028C47.2674 1.06245 46.4825 1.67466 45.7546 2.35086L46.5803 1.2295C46.049 1.35021 45.5762 1.65212 45.2431 2.08343C44.91 2.68868 44.9006 4.09624 44.9006 4.09624Z" fill="#263238"/>
<path d="M50.7327 14.2823C50.858 13.9379 51.0526 13.6229 51.3043 13.3566C51.5561 13.0903 51.8597 12.8784 52.1965 12.734C52.9299 12.3597 53.7572 12.2096 54.5753 12.3023C55.6591 12.4431 56.0485 13.0577 56.3441 14.2354C56.6397 15.413 56.7664 17.2945 56.4567 17.8012C55.6774 18.7292 54.6079 19.3672 53.4211 19.6123C52.4433 19.7341 51.4512 19.5712 50.5637 19.1431C49.935 18.7208 50.4746 14.9908 50.7327 14.2823ZM51.9713 16.159C52.4649 16.339 52.9969 16.3875 53.5149 16.2998C54.1999 16.206 55.0867 15.8306 55.265 15.5772C55.4433 15.3239 55.3635 14.1697 55.2134 13.541C55.0633 12.9123 54.8568 12.6026 54.275 12.5557C53.8216 12.5178 53.3667 12.6071 52.9613 12.8137C52.5889 12.9659 52.2919 13.2594 52.1355 13.6301C51.976 13.9867 51.6288 15.9385 51.9713 16.1309V16.159Z" fill="#263238"/>
<path d="M46.5663 11.4907C46.5663 11.4907 44.6895 9.14474 43.6198 9.83444C42.55 10.5242 44.089 13.9868 45.4074 14.3903C45.5757 14.453 45.7549 14.4812 45.9343 14.4732C46.1137 14.4652 46.2897 14.4212 46.4517 14.3436C46.6137 14.2661 46.7585 14.1568 46.8773 14.0221C46.9962 13.8874 47.0866 13.7302 47.1434 13.5598L46.5663 11.4907Z" fill="#EB9481"/>
<path d="M44.0842 10.8196V10.8524C45.0226 11.1668 45.5575 11.9832 45.961 12.8418C45.9018 12.7534 45.8242 12.6788 45.7334 12.6232C45.6426 12.5677 45.5409 12.5325 45.4353 12.52C45.3296 12.5075 45.2225 12.5181 45.1213 12.5509C45.0201 12.5838 44.9272 12.6382 44.849 12.7104C44.8256 12.7104 44.849 12.7667 44.8772 12.762C45.0371 12.6942 45.2145 12.6795 45.3835 12.72C45.5524 12.7606 45.7038 12.8542 45.8155 12.9872C45.9961 13.2031 46.1534 13.4374 46.2847 13.6863C46.3317 13.7661 46.4771 13.6863 46.4396 13.6206C46.3598 12.4289 45.3417 10.8524 44.0842 10.8196Z" fill="#263238"/>
<path d="M41.8134 22.5636C41.3958 22.1319 43.906 20.7994 44.5863 21.2639C45.2666 21.7284 49.1797 29.2401 48.809 38.0046C48.4384 46.769 33.0255 52.981 32.2889 51.7377C31.9792 51.2169 32.1998 49.6733 32.5798 49.1525C33.1147 48.4205 43.8919 44.3808 44.6895 38.9148C45.4168 34.054 42.8972 23.6662 41.8134 22.5636Z" fill="#37474F"/>
<path d="M23.806 54.3368C26.7337 55.8523 32.5375 54.0506 45.0696 50.3206C46.8009 49.8045 43.4274 37.0003 41.5507 37.4555C39.1813 38.0326 32.1294 40.233 31.4913 40.5146C26.1144 42.9027 21.8213 53.3093 23.806 54.3368Z" fill="#EB9481"/>
<path d="M56.7617 35.6445C56.9587 36.0007 57.0423 36.4086 57.0012 36.8136C56.9601 37.2185 56.7963 37.6013 56.5318 37.9107C57.1465 38.226 57.6324 38.7452 57.9065 39.3793C58.3335 40.5241 56.7336 41.697 56.7336 41.697C57.3046 42.1547 57.7234 42.7747 57.9347 43.4753C58.235 44.6107 56.7852 46.0276 56.7852 46.0276C57.0778 46.7389 57.1044 47.5317 56.8603 48.261C56.1283 50.18 53.0457 50.7899 51.0892 51.1934C49.1327 51.5969 43.2069 50.9213 42.0668 50.9072L39.3502 38.3799C39.3502 38.3799 47.6032 34.0633 49.9679 33.9132C51.9619 33.7865 55.9594 34.3073 56.7617 35.6445Z" fill="#EB9481"/>
<path d="M56.4004 37.7418C54.2468 37.3665 52.1026 37.6527 49.9444 37.8122C49.9344 37.8122 49.9249 37.8162 49.9178 37.8232C49.9108 37.8302 49.9068 37.8398 49.9068 37.8497C49.9068 37.8597 49.9108 37.8692 49.9178 37.8763C49.9249 37.8833 49.9344 37.8873 49.9444 37.8873C52.0839 37.7043 54.2374 37.9436 56.3863 37.8451C56.452 37.831 56.4567 37.7418 56.4004 37.7418Z" fill="#263238"/>
<path d="M56.6538 41.5422C56.1582 41.5033 55.6597 41.5301 55.1711 41.622C54.6457 41.6877 54.1249 41.7628 53.6041 41.8472C52.5578 42.0114 51.5209 42.1991 50.484 42.4196C50.4417 42.4196 50.4417 42.5041 50.484 42.4947C51.5209 42.3305 52.5672 42.185 53.6134 42.063L55.1852 41.8988C55.6827 41.8813 56.1768 41.8089 56.6585 41.683C56.6727 41.6772 56.6848 41.6672 56.6931 41.6543C56.7015 41.6414 56.7057 41.6263 56.7052 41.611C56.7046 41.5956 56.6994 41.5808 56.6903 41.5685C56.6811 41.5563 56.6683 41.5471 56.6538 41.5422Z" fill="#263238"/>
<path d="M56.743 46.0323C56.2937 46.0037 55.843 46.0529 55.4105 46.1778L54.0029 46.4264C53.0645 46.586 52.1262 46.7455 51.1502 46.8956C51.1403 46.8956 51.1307 46.8996 51.1237 46.9066C51.1167 46.9137 51.1127 46.9232 51.1127 46.9332C51.1127 46.9431 51.1167 46.9527 51.1237 46.9597C51.1307 46.9667 51.1403 46.9707 51.1502 46.9707C52.1168 46.844 53.088 46.7361 54.0592 46.6047L55.4668 46.3983C55.9061 46.3742 56.3378 46.2742 56.743 46.1027C56.7523 46.1027 56.7612 46.099 56.7678 46.0924C56.7744 46.0858 56.7782 46.0768 56.7782 46.0675C56.7782 46.0582 56.7744 46.0492 56.7678 46.0426C56.7612 46.036 56.7523 46.0323 56.743 46.0323Z" fill="#263238"/>
<path d="M41.987 36.8032L37.8769 53.3749C37.8769 53.3749 26.6164 56.3402 23.7637 54.5385C21.887 53.3515 25.8891 42.5132 32.0308 40.3174L41.987 36.8032Z" fill="#F7A74B"/>
<path d="M26.1472 45.7178C27.1681 43.9348 28.5467 42.3821 30.1963 41.1573C32.3827 39.562 40.4199 37.2114 41.9635 36.7844C41.9964 36.7844 42.0245 36.822 41.9917 36.836C40.7624 37.3052 32.2466 40.0687 30.3464 41.4153C28.7663 42.6587 27.3672 44.1163 26.1894 45.7459C26.1706 45.76 26.1331 45.7178 26.1472 45.7178Z" fill="#263238"/>
<path d="M34.1844 52.9388C34.541 51.1184 35.0008 49.3261 35.4606 47.5291C35.9204 45.7321 36.399 43.9351 36.8682 42.1522C37.1544 41.1434 37.4359 40.1347 37.7549 39.1353C37.7549 39.1072 37.8112 39.1353 37.8018 39.1353C37.4453 40.9464 36.9948 42.7481 36.5491 44.5451C36.1034 46.342 35.6107 48.139 35.1415 49.9266C34.8694 50.9401 34.5785 51.9488 34.2548 52.9435C34.2595 53.0045 34.1703 52.9904 34.1844 52.9388Z" fill="#263238"/>
<path d="M31.6085 54.6652C32.6734 54.5654 33.7321 54.4088 34.7803 54.196C35.8312 53.999 36.8728 53.7268 37.905 53.4594H37.966V53.4031C38.027 53.07 38.088 52.7322 38.1162 52.3896C37.9801 52.7087 37.8769 53.0324 37.7737 53.3562L37.8441 53.2858C36.8118 53.5439 35.7702 53.7784 34.7286 54.0083L31.6085 54.6652Z" fill="#263238"/>
</svg>
